<?xml version="1.0" encoding="utf-8"?>
<!-- Generator: Adobe Illustrator 27.5.0, SVG Export Plug-In . SVG Version: 6.00 Build 0)  -->
<svg version="1.1" id="_x3C_Layer_x3E_" xmlns="http://www.w3.org/2000/svg" xmlns:xlink="http://www.w3.org/1999/xlink" x="0px"
	 y="0px" viewBox="0 0 2760 1840" style="enable-background:new 0 0 2760 1840;" xml:space="preserve">
<rect style="fill:#FFFFFF;" width="2760" height="1840"/>
<g>
	<path style="fill:#EBF3FA;" d="M402.662,1655.946c0,0-329.871-202-156.036-600.113
		c109.928-251.754,365.417-175.156,352.999-559.611c-12.42-384.458,590.207-417.487,782.027-306.011
		s174.763,178.565,568.576,117.783c337.296-52.059,425.984,321.18,284.563,530.169c-170.97,252.657,507.824,291.576,160.096,817.783
		H402.662z"/>
	<g>
		<g>
			<polygon style="fill:#8C9DF4;" points="1676.266,1655.709 985.687,1655.709 1031.914,1474.573 1632.397,1474.573 			"/>
			<ellipse style="fill:#6980E2;" cx="1332.199" cy="1474.573" rx="300.197" ry="22.815"/>
		</g>
		<g>
			<path style="fill:#F78248;" d="M1483.578,1606.34c0,8.546-6.929,15.474-15.475,15.474c-8.547,0-15.475-6.928-15.475-15.474
				c0-8.547,6.928-15.475,15.475-15.475C1476.649,1590.865,1483.578,1597.793,1483.578,1606.34z"/>
			<path style="fill:#AEC3FF;" d="M1543.947,1606.34c0,8.546-6.928,15.474-15.475,15.474s-15.475-6.928-15.475-15.474
				c0-8.547,6.928-15.475,15.475-15.475S1543.947,1597.793,1543.947,1606.34z"/>
			<path style="fill:#213F7A;" d="M1604.291,1606.34c0,8.546-6.929,15.474-15.475,15.474s-15.475-6.928-15.475-15.474
				c0-8.547,6.929-15.475,15.475-15.475S1604.291,1597.793,1604.291,1606.34z"/>
		</g>
	</g>
	<g>
		<path style="fill:#233862;" d="M472.875,1651.726h41.606c-0.312-2.183-1.372-8.82-3.319-14.935
			c-0.675-2.13-1.462-4.199-2.356-5.994c-4.046-8.078-29.748-2.94-29.748-2.94s-2.386,2.046-4.251,9.858
			C473.981,1641.154,473.254,1645.724,472.875,1651.726z"/>
		<path style="fill:#8C9DF4;" d="M549.254,1016.205c0,0,33.153,5.821,40.649,25.391c7.495,19.568,49.84,335.665,49.84,335.665
			s-20.969,16.614-65.979,10.649C528.754,1381.945,549.254,1016.205,549.254,1016.205z"/>
		<path style="fill:#233862;" d="M598.602,1638.594c0.114,5.66,0.827,11.017,2.881,13.132h82.295
			c-1.046-2.979-4.009-7.456-12.457-8.828c-9.6-1.554-24.565-6.175-33.302-15.412c-3.114-3.281-5.433-7.152-6.447-11.676
			c-3.872-17.238-32.015,5.28-32.015,5.28S598.421,1630.168,598.602,1638.594z"/>
		<path style="fill:#ED7D2B;" d="M634.043,1630.212c-9.197,2.934-26.774,11.89-37.941,7.677
			c-7.215-2.72-47.552-119.399-50.168-170.435c-0.192-3.711-0.922-8.888-2.065-15.201c-2.39-13.17-6.568-31.27-11.381-51.242
			c-12.908-53.514-30.368-120.459-29.988-141.856c0.585-33.21,98.972-6.96,98.972-6.96s6.768,27.243,8.116,66.685
			c2.672,78.291,10.018,210.537,29.997,302.377C640.432,1625.152,637.856,1629,634.043,1630.212z"/>
		<path style="fill:#F99746;" d="M565.756,1259.27l-52.012,376.966c0,0-22.841,5.507-40.605,1.102
			c0,0-15.228-200.487-13.959-248.957c1.27-48.469-10.928-129.696,2.784-138.653C475.676,1240.769,565.756,1259.27,565.756,1259.27z
			"/>
		<path style="fill:#FFFFFF;" d="M455.39,1033.474c0,0,54.659-35.344,93.864-17.269c6.246,2.88,13.374,10.918,18.476,16.54
			c14.171,15.614,41.861,263.67,41.861,263.67s-78.605,26.621-154.201-9.036V1033.474z"/>
		<path style="fill:#8C9DF4;" d="M552.364,1015.309c0,0,55.334,22.678,62.829,40.103c7.495,17.424,31.854,124.426,31.854,136.974
			c0,12.547-42.413,2.805-49.241-17.433c-5.669-16.804-24.793-68.429-34.877-101.081L552.364,1015.309z"/>
		<g>
			<path style="fill:#FFB27D;" d="M540.872,1032.589c-12.08,2.369-29.824-0.156-42.817-8.72c5.865-14.01,8.271-25.071,9.126-32.229
				c0.05-0.381,0.088-0.749,0.125-1.105c0.387-3.71,0.331-6.228,0.149-7.383h31.23c0,0,8.538,3.903,8.538,6.602
				c0,1.442,0.013,2.823,0.038,4.142c0.062,3.592,0.206,6.727,0.394,9.42c0.593,8.762,1.599,12.891,1.599,12.891
				S553.069,1030.196,540.872,1032.589z"/>
			<path style="fill:#E2915A;" d="M547.655,1003.315c-23.66,4.57-37.395-8.358-40.475-11.675c-0.437-0.475-0.662-0.756-0.662-0.756
				c0.251-0.125,0.513-0.237,0.787-0.35c8.808-3.566,28.794-0.732,39.956,3.36C547.323,997.486,547.468,1000.621,547.655,1003.315z"
				/>
			<path style="fill:#FFB27D;" d="M499.452,978.019c4.229,22.755,33.589,22.007,46.278,20.577c3.57-0.398,5.816-0.854,5.816-0.854
				c4.027-1.075,6.273-7.417,7.317-15.724c2.071-16.44-0.547-40.573-3.322-46.745c-4.18-9.287-12.053-19.333-41.621-12.084
				C484.348,930.441,494.027,948.863,499.452,978.019z"/>
			<path style="fill:#233862;" d="M556.644,922.58c-4.042-5.595-12.611-12.431-20.394-16.641
				c-16.72-9.046-38.117,0.284-38.207,0.323c-24.151,10.618-30.458,29.096-17.654,57.88c13.541,30.437,26.433,27.012,26.433,27.012
				s-2.735-1.702-2.489-11.188c0.015-0.541,0.036-0.99,0.061-1.378c0.125-1.944-0.561-3.894-2.014-5.191
				c-3-2.678-4.462-10.774-1.95-13.029c3.03-2.72,7.289,0.584,8.649,3.124c1.188,1.794,3.317,2.423,5.3,1.17
				c7.518-4.752,2.634-14.257,9.817-20.071c7.182-5.815,21.758-0.933,32.533-5.566C570.833,933.771,559.688,926.797,556.644,922.58z
				"/>
		</g>
		<path style="fill:#8C9DF4;" d="M560.008,1400.485c-4.759,1.224-9.469,2.229-14.153,3.004c-4.142,0.706-8.264,1.23-12.393,1.581
			c-23.392,2.035-46.889-1.256-74.352-9.132c-6.184-1.774-12.573-3.785-19.207-6.016c-0.705-0.237,1.806-72.859,4.704-147.769
			c0.294-7.731,0.6-15.496,0.9-23.204c0.131-3.267,0.256-6.515,0.388-9.756c2.629-66.252,5.233-126.082,5.783-129.305
			c1.256-7.289,2.43-13.504,3.71-18.888c3.742-15.697,8.389-24.304,18.52-31.705c0.987-0.749,9.088-4.835,16.233-8.388
			c5.922-2.942,11.181-5.51,11.181-5.51c0.006,0,0.006,0,0.006,0c2.355,1.155,5.185,6.552,8.146,14.129
			c5.44,13.966,11.312,35.352,15.396,51.323c0.013,0.043,0.019,0.068,0.019,0.081c0,0.007,0,0.007,0,0.007
			c2.629,10.312,4.516,18.344,5.053,20.649c0.911,3.891,2.117,11.423,3.535,21.636c1.924,13.897,4.223,32.76,6.651,54.165
			c0.25,2.198,0.5,4.429,0.75,6.678c0.287,2.566,0.581,5.165,0.868,7.788c0.095,0.844,0.188,1.687,0.275,2.53
			c0.937,8.476,1.88,17.227,2.816,26.12c0.78,7.352,11.931,12.667,12.698,20.143c0.444,4.392,1.37,44.901,2.563,57.831
			C560.953,1307.711,560.345,1396.145,560.008,1400.485z"/>
		<path style="fill:#6980E2;" d="M479.337,1106.599c-0.035,0.15-1.895,66.993,48.386,75.113c50.28,8.12,16.872,10.267,16.872,10.267
			s-94.602-4.021-96.164-6.519C446.869,1182.962,479.337,1106.599,479.337,1106.599z"/>
		<path style="fill:#6980E2;" d="M521.819,1210.406c0,0-0.943,0.669-2.754,1.837c-0.032,0.013-0.063,0.036-0.094,0.056
			c-7.671,4.897-30.438,18.244-63.585,27.195c-3.479,0.942-7.076,1.837-10.78,2.66c0.294-7.731,0.6-15.496,0.9-23.204
			c-4.379-0.343-8.569-0.899-12.461-1.724c0.131-1.018,0.269-2.036,0.4-3.054c4.216-1.73,8.406-3.398,12.448-4.979
			c3.291-1.286,6.477-2.511,9.493-3.647c13.616-5.172,23.711-8.676,23.711-8.676l40.306,12.768L521.819,1210.406z"/>
		<path style="fill:#8C9DF4;" d="M532.487,1209.288c0,0-5.178,1.294-13.422,2.955c-0.032,0-0.056,0.006-0.089,0.019
			c-15.201,3.054-40.76,7.339-63.59,7.107c-3.366-0.037-6.677-0.169-9.881-0.419c-4.379-0.343-8.569-0.899-12.461-1.724
			c-8.345-1.761-15.334-4.74-19.906-9.399c-33.959-34.591,18.532-158.737,29.569-170.816c12.885-14.104,36.401-19.051,49.387-20.749
			c0.544-0.068,1.063-0.138,1.568-0.2c4.565-0.543,7.494-0.655,7.657-0.662c0.006,0,0.006,0,0.006,0s-1.018,3.273-2.723,8.825
			c-0.662,2.149-1.431,4.641-2.274,7.421c-7.977,26.121-23.366,77.457-30.149,106.407c-2.485,10.594-3.816,18.188-3.21,20.455
			c2.648,9.888,30.087,14.972,47.47,17.221c7.251,0.938,12.755,1.38,13.984,1.475c0.088,0,0.168,0.005,0.257,0.018l1.005,4.123
			l2.405,9.888l2.366,9.712L532.487,1209.288z"/>
		<polygon style="fill:#233862;" points="627.203,1268.796 510.573,1263.883 534.235,1118.533 650.866,1123.446 		"/>
		<path style="fill:#FFB27D;" d="M524.681,1177.223c0,0,22.703-1.583,23.843,3.709c2.653,12.335-19.519,22.465-26.702,21.772
			S519.455,1176.398,524.681,1177.223z"/>
		<path style="fill:#FFB27D;" d="M644.488,1152.962c0,0-21.72-6.791-24.053-1.906c-5.435,11.387,13.793,26.371,20.942,27.358
			C648.525,1179.402,649.764,1153.369,644.488,1152.962z"/>
		<path style="fill:#6980E2;" d="M503.682,1008.101c0,0-9.551,4.553-14.34,11.424c0,0,35.703,61.987,35.543,61.406
			C524.726,1080.35,512.816,1016.04,503.682,1008.101z"/>
		<path style="fill:#6980E2;" d="M548.149,1008.975c3.146,1.188,9.176,7.365,10.535,10.781l4.244,54.115
			c0,0-9.062-39.715-13.675-57.666C548.081,1011.643,548.297,1010.255,548.149,1008.975z"/>
		<path style="fill:#C65447;" d="M572.897,1120.162c0,0,0.922-4.033,6.23-3.564c5.31,0.469,35.134,1.936,35.134,1.936
			s5.753-0.096,5.219,3.591L572.897,1120.162z"/>
	</g>
	<g>
		<g>
			<g>
				<g style="opacity:0.4;">
					<g>
						<path style="fill:#8C9DF4;" d="M2022.318,1656.899l-0.349-0.007c-2.849-0.055-5.048-2.471-4.78-5.249l19.002-196.925
							l16.582,1.534l-27.285,197.984C2025.273,1655.784,2023.911,1656.929,2022.318,1656.899z"/>
					</g>
					<g>
						<path style="fill:#8C9DF4;" d="M2205.292,1656.899l0.349-0.007c2.848-0.055,5.049-2.471,4.779-5.249l-19.002-196.925
							l-16.581,1.534l27.286,197.984C2202.336,1655.784,2203.699,1656.929,2205.292,1656.899z"/>
					</g>
					<path style="fill:#8C9DF4;" d="M2199.634,1427.113l33.729-166.57c4.329-22.553-14.358-43.175-38.623-42.62l-65.051,1.486
						c-22.441,0.512-41.952,15.531-48.19,37.095l-49.349,170.609H2199.634z"/>
					<path style="fill:#8C9DF4;" d="M2179.227,1427.113l33.73-166.57c4.329-22.553-14.358-43.175-38.623-42.62l-65.051,1.486
						c-22.441,0.512-41.953,15.531-48.19,37.095l-49.349,170.609H2179.227z"/>
					<path style="fill:#8C9DF4;" d="M2190.231,1457.493h-257.368c-5.171,0-9.402-4.231-9.402-9.402v-11.576
						c0-5.171,4.231-9.401,9.402-9.401h266.771v20.978C2199.634,1453.262,2195.402,1457.493,2190.231,1457.493z"/>
					<path style="fill:#8C9DF4;" d="M2069.455,1457.493h-164.066c-4.166,0-7.573-3.408-7.573-7.574v-15.232
						c0-4.165,3.407-7.573,7.573-7.573h164.066c4.166,0,7.574,3.408,7.574,7.573v15.232
						C2077.029,1454.085,2073.621,1457.493,2069.455,1457.493z"/>
				</g>
				<g>
					<g>
						<g>
							<path style="fill:#A9453D;" d="M2061.625,1077.322c0,0,7.649-23.63,41.281-22.554c0,0,6.727-12.646,22.869-10.493
								c16.144,2.152,25.023,60.537,9.687,74.797c-15.336,14.26-24.852,14.687-24.852,14.687l-48.985-54.237V1077.322z"/>
							<path style="fill:#ABDDDA;" d="M2070.644,1255.977l-27.338,69.176c0,0-26.341,31.041-47.513,21.036l66.992-130.09
								L2070.644,1255.977z"/>
							<path style="fill:#FFB27D;" d="M1884.892,1636.04c0.788,7.645-9.845,9.619-22.176,10.365
								c-12.33,0.748-8.574,3.233-25.449,6.478c-16.874,3.244-23.698-1.311-24.947-3.582c-1.112-2.015,6.715-5.269,15.053-8.94
								c1.051-0.46,2.101-0.932,3.151-1.404c9.384-4.247,14.583-12.759,21.85-20.678c6.884-7.5,13.238-31.347,13.238-31.347
								l22.924-5.152c0,0-6.222,21.467-8.363,30.627c-1.26,5.387,0.748,11.373,2.522,15.928
								C1883.651,1630.812,1884.617,1633.347,1884.892,1636.04z"/>
							<path style="fill:#0F2549;" d="M1862.716,1646.405c-12.33,0.748-8.574,3.233-25.449,6.478
								c-16.874,3.244-23.698-1.311-24.947-3.582c-1.112-2.015,6.715-5.269,15.053-8.94l0.133,0.141c0,0,11.932,3.909,25.613,0.031
								c11.152-3.157,21.894-9.957,29.576-12.198c0.957,2.478,1.923,5.013,2.197,7.706
								C1885.68,1643.685,1875.047,1645.659,1862.716,1646.405z"/>
							<path style="fill:#ED7D2B;" d="M1919.621,1370.464c12.336-8.661,92.359-46.656,133.997-51.123l47.592-17.396
								c0,0,39.175,58.022,39.484,102.41c0.145,20.697-9.388,22.753-9.391,22.758c0,0-147.534,1.094-154.002,1.761
								c-10.585,1.092-24.549,27.463-28.038,51.481c-3.49,24.019-65.012,121.709-65.012,121.709s-12.83,4.111-18.764,3.763
								c-6.38-0.375-9.334-2.513-9.334-2.513S1891.804,1389.997,1919.621,1370.464z"/>
							<path style="fill:#FFB27D;" d="M1923.053,1636.04c0.788,7.645-9.845,9.619-22.176,10.365
								c-12.33,0.748-8.574,3.233-25.449,6.478c-16.874,3.244-18.232-8.851-9.895-12.522c1.051-0.46,2.101-0.932,3.152-1.404
								c9.383-4.247,14.582-12.759,21.85-20.678c6.882-7.5,13.238-31.347,13.238-31.347l22.923-5.152c0,0-6.222,21.467-8.363,30.627
								c-1.26,5.387,0.748,11.373,2.522,15.928C1921.813,1630.812,1922.778,1633.347,1923.053,1636.04z"/>
							<path style="fill:#233862;" d="M1900.877,1646.405c-12.33,0.748-8.574,3.233-25.449,6.478
								c-16.874,3.244-23.699-1.311-24.947-3.582c-1.111-2.015,6.715-5.269,15.053-8.94l0.134,0.141c0,0,11.931,3.909,25.612,0.031
								c11.151-3.157,21.895-9.957,29.576-12.198c0.957,2.478,1.923,5.013,2.197,7.706
								C1923.841,1643.685,1913.208,1645.659,1900.877,1646.405z"/>
							<path style="fill:#F99746;" d="M1958.12,1370.464c10.712-7.521,37.673-10.935,76.866-23.702
								c9.438-3.074,45.773-20.588,48.181-30.219l-17.925-8.276l74.467-6.321c0,0,18.842,36.523,19.152,80.912
								c0.145,20.696-18.162,44.251-18.165,44.256c0,0-118.429,1.094-124.896,1.761c-10.586,1.092-24.549,27.463-28.038,51.481
								s-65.012,121.709-65.012,121.709s-12.83,4.111-18.765,3.763c-6.38-0.375-9.334-2.513-9.334-2.513
								S1930.303,1389.997,1958.12,1370.464z"/>
							<path style="fill:#FFB27D;" d="M2075.867,1180.292c-0.146,0.075,14.947,6.94,25.844,3.34
								c10.25-3.377,19.278-18.81,19.134-18.832c-4.449-0.645-8.972-5.034-10.234-31.041l-1.97,0.496l-33.126,8.372
								c0,0,1.311,10.494,1.851,20.417C2077.822,1171.374,2077.729,1179.303,2075.867,1180.292z"/>
							<path style="fill:#ED975D;" d="M2075.515,1142.627c0,0,0,2.16,1.238,11.923c18.733-4.726,26.995-10.938,32.82-18.048
								L2075.515,1142.627z"/>
							<path style="fill:#FFB27D;" d="M2068.447,1143.949c0,0,43.805,7.132,47.826-20.216s12.384-44.845-15.414-50.556
								c-27.797-5.709-34.778,3.926-38.342,12.727C2058.957,1094.707,2057.157,1141.389,2068.447,1143.949z"/>
							<path style="fill:#A9453D;" d="M2068.406,1072.033c0,0,19.893,31.4,37.65,38.837c17.758,7.438,26.482,3.661,26.482,3.661
								s-8.078-12.249-10.184-28.697c-0.621-4.849-3.779-9.005-8.316-10.822C2101.296,1069.909,2076.645,1061.859,2068.406,1072.033
								z"/>
							<path style="fill:#A9453D;" d="M2085.88,1075.068c0,0-11.66,5.978-16.462,11.579c-4.633,5.407-9.985,20.077-9.603,26.664
								c0,0-5.752-31.571,6.228-42.425C2078.746,1059.379,2085.88,1075.068,2085.88,1075.068z"/>
							<path style="fill:#2B478B;" d="M2040.824,1247.102c1.33,89.039-31.486,64.117-21.746,72.566
								c2.348,2.034,11.949,17.189,48.175,18.989c27.328,1.358,76.601-11.539,78.426-16.585c6.298-17.458,1.853-22.882,7.106-49.61
								c0.547-2.843,1.225-5.92,2.021-9.271c4.38-18.357,8.645-24.603-6.897-54.096c-14.094-26.716-30.669-48.419-31.986-47.636
								c-37.186,22.073-38.459,3.57-38.459,3.57S2040.172,1203.671,2040.824,1247.102z"/>
							<path style="fill:#8C9DF4;" d="M2077.463,1165.029c0,0-38.057,6.451-42.55,22.925
								c-4.493,16.476-53.592,146.253-53.592,146.253s44.287,8.986,53.272,0c8.986-8.984,29.09-121.791,29.09-121.791
								L2077.463,1165.029z"/>
							<path style="fill:#6980E2;" d="M2077.124,1159.217l0.339,5.813c-4.324,14.873-14.927,64.948-24.036,100.504l-3.083-55.03
								l5.239-4.278l-1.965-7.203l17.16-32.566L2077.124,1159.217z"/>
							<path style="fill:#8C9DF4;" d="M2077.46,1403.65c58.716,19.644,105.213,6.442,105.213,6.442l-9.595-56.751l-5.235-30.939
								l-11.228-66.426l-19.182-63.176l-16.776-10.156l-14.655,73.332L2077.46,1403.65z"/>
							<path style="fill:#6980E2;" d="M2148.25,1262.873c0.983,1.548,1.026,31.721-27.404,39.102
								c-28.43,7.381,41.634,14.568,41.634,14.568s22.591-17.338,22.264-21.594
								C2184.415,1290.693,2148.25,1262.873,2148.25,1262.873z"/>
							<path style="fill:#6980E2;" d="M2096.417,1328.581c0,0,38.953,22.295,76.661,24.761l-5.235-30.939L2096.417,1328.581z"/>
							<g>
								<path style="fill:#FFB27D;" d="M2070.917,1324.023c0,0-3.228,8.627-4.736,10.006c-1.509,1.381-2.714,1.527-2.714,1.527
									l1.6-7.666L2070.917,1324.023z"/>
								<path style="fill:#FFB27D;" d="M2069.938,1316.477l-13.305,12.481c0,0,1.007,0.883,2.908,0.196
									c1.902-0.688,6.216-3.981,6.216-3.981L2069.938,1316.477z"/>
								<path style="fill:#FFB27D;" d="M2100.879,1310.635c0,0-27.502,2.27-30.941,5.842c-3.441,3.573-10.999,15.04-11.37,18.327
									c-0.371,3.288,8.557-5.068,11.69-7.048c2.029-1.282,8.486-1.069,11.67-1.004c13.397,0.271,20.188-4.123,20.188-4.123
									L2100.879,1310.635z"/>
							</g>
							<path style="fill:#8C9DF4;" d="M2115.922,1161.459c0,0,38.123,2.228,50.643,19.689
								c17.625,24.582,52.588,129.344,32.55,143.315c-22.565,15.735-102.7,4.117-102.7,4.117s-2.666-12.466,1.044-18.495
								c3.711-6.029,64.005-15.77,66.788-18.552c2.782-2.783-34.785-54.265-34.785-62.613S2115.922,1161.459,2115.922,1161.459z"/>
							<path style="fill:#6980E2;" d="M2113.727,1156.563l-7.725,99.414l17.681-38.064l-3.029-6.777c0,0,6.467-11.131,6.467-12.441
								c0-1.31-1.84-36.165-1.84-36.165L2113.727,1156.563z"/>
						</g>
					</g>
				</g>
			</g>
			<g>
				<polygon style="fill:#142D5E;" points="1883.497,1311.032 2038.03,1311.032 2009.952,1207.187 1855.419,1207.187 				"/>
				<polygon style="fill:#2B478B;" points="1878.617,1311.032 2033.15,1311.032 2005.072,1207.187 1850.539,1207.187 				"/>
				<polygon style="fill:#142D5E;" points="1944.44,1336.224 1976.842,1336.521 1954.41,1268.143 1922.009,1267.847 				"/>
				
					<rect x="1926.087" y="1333.261" transform="matrix(-1 -1.224647e-16 1.224647e-16 -1 3922.9404 2669.7813)" style="fill:#142D5E;" width="70.767" height="3.26"/>
			</g>
			
				<rect x="2018.587" y="1330.494" transform="matrix(-1 -1.224647e-16 1.224647e-16 -1 4087.9209 2667.7793)" style="fill:#233862;" width="50.747" height="6.791"/>
		</g>
		<g>
			<g>
				<g>
					<path style="fill:#4C64A5;" d="M2261.741,1654.011c-1.952,0-3.621-1.305-3.955-3.087l-19.384-104.593l-27.882-150.425
						l-7.797-42.064l19.858-0.54l3.446,24.419l24.192,171.598l14.344,101.715
						C2264.785,1652.611,2263.461,1654.011,2261.741,1654.011z"/>
				</g>
				<path style="fill:#4C64A5;" d="M2226.028,1377.721c-12.866,5.405-15.508,18.186-15.508,18.186l-8.454-44.598l20.516,1.993
					L2226.028,1377.721z"/>
			</g>
			<g>
				<g>
					<path style="fill:#4C64A5;" d="M1712.896,1652.98c1.952,0,3.621-1.301,3.955-3.077l19.385-104.234l27.882-149.909l7.797-41.92
						l-19.859-0.538l-3.445,24.335l-24.194,171.011l-14.343,101.365C1709.852,1651.585,1711.176,1652.98,1712.896,1652.98z"/>
				</g>
				<path style="fill:#4C64A5;" d="M1748.609,1377.637c12.865,5.387,15.508,18.123,15.508,18.123l11.507-42.977l-23.569,0.519
					L1748.609,1377.637z"/>
			</g>
			<path style="fill:#4C64A5;" d="M2280.578,1353.302h-572.681c-3.379,0-6.144-2.764-6.144-6.143v-4.496
				c0-3.378,2.765-6.143,6.144-6.143h572.681c3.379,0,6.143,2.765,6.143,6.143v4.496
				C2286.721,1350.538,2283.957,1353.302,2280.578,1353.302z"/>
		</g>
	</g>
	<path style="fill:#F5F9FD;" d="M1098.733,1474.573L837.136,504.075c0,0,450.597-296.79,936.83,0l-221.499,970.498H1098.733z"/>
	<path style="fill:#8C9DF4;" d="M1519.191,1244.485c0,0-8.777-148.122,9.396-193.556c18.173-45.435,199.909-302.893,75.724-463.425
		c-124.187-160.533-369.528-118.129-475.541-54.521s-33.318,190.822-75.724,251.401c-42.404,60.578-84.477,95.663-60.249,109.291
		c24.228,13.628,57.54,9.085,57.54,37.856c0,28.769-11.547,36.767,0.567,55.611c12.114,18.845-4.039,18.171,4.037,34.324
		c8.077,16.153,11.189,14.218,8.413,19.013c-2.776,4.796-18.172,32.811-12.114,54.011s43.41,29.276,93.887,25.238
		c50.478-4.038,81.773-9.086,84.802,17.162s4.962,107.595,4.962,107.595S1515.996,1243.349,1519.191,1244.485z"/>
	<path style="fill:#F77D48;" d="M1501.066,1005.49c0,0,150.021-204.61,86.969-342.368
		c-63.053-137.757-226.119-166.119-337.004-149.913c-110.887,16.208-139.151,68.88-115.234,113.447
		c23.917,44.569,26.09,111.423,91.318,145.861c65.227,34.439,138.702,35.544,148.486,81.124
		C1385.385,899.22,1425.97,1041.872,1501.066,1005.49z"/>
	<path style="fill:#8C9DF4;" d="M1519.191,1244.485c0,5.967-63.644,10.805-142.15,10.805c-78.508,0-142.15-4.838-142.15-10.805
		s63.643-10.804,142.15-10.804C1455.548,1233.682,1519.191,1238.519,1519.191,1244.485z"/>
	<ellipse style="fill:#F5F9FD;" cx="1325.478" cy="1474.573" rx="226.744" ry="17.218"/>
	<g>
		<g>
			<g>
				<polygon style="fill:#EBF3FA;" points="1526.764,624.42 1411.534,624.42 1374.396,587.281 1250.015,587.281 1250.015,582.639 
					1376.317,582.639 1413.456,619.777 1526.764,619.777 				"/>
			</g>
			<g>
				<path style="fill:#EBF3FA;" d="M1246.631,584.96c0-1.869,1.515-3.385,3.384-3.385c1.87,0,3.385,1.516,3.385,3.385
					c0,1.87-1.515,3.386-3.385,3.386C1248.146,588.346,1246.631,586.83,1246.631,584.96z"/>
			</g>
			<g>
				<path style="fill:#EBF3FA;" d="M1523.654,622.098c0-1.717,1.393-3.109,3.109-3.109c1.718,0,3.11,1.393,3.11,3.109
					c0,1.718-1.393,3.11-3.11,3.11C1525.047,625.208,1523.654,623.815,1523.654,622.098z"/>
			</g>
		</g>
		<g>
			<g>
				<polygon style="fill:#EBF3FA;" points="1526.9,639.466 1411.672,639.466 1374.533,602.328 1250.152,602.328 1250.152,597.685 
					1376.455,597.685 1413.595,634.823 1526.9,634.823 				"/>
			</g>
			<g>
				<path style="fill:#EBF3FA;" d="M1246.768,600.007c0-1.87,1.516-3.385,3.385-3.385c1.87,0,3.386,1.515,3.386,3.385
					c0,1.869-1.516,3.385-3.386,3.385C1248.283,603.392,1246.768,601.876,1246.768,600.007z"/>
			</g>
			<g>
				<path style="fill:#EBF3FA;" d="M1523.791,637.144c0-1.718,1.393-3.11,3.109-3.11c1.719,0,3.111,1.393,3.111,3.11
					c0,1.718-1.393,3.11-3.111,3.11C1525.184,640.255,1523.791,638.862,1523.791,637.144z"/>
			</g>
		</g>
		<g>
			<g>
				<polygon style="fill:#EBF3FA;" points="1526.9,655.063 1411.672,655.063 1374.533,617.924 1250.152,617.924 1250.152,613.282 
					1376.455,613.282 1413.594,650.42 1526.9,650.42 				"/>
			</g>
			<g>
				<path style="fill:#EBF3FA;" d="M1246.768,615.604c0-1.87,1.516-3.385,3.385-3.385c1.87,0,3.386,1.515,3.386,3.385
					c0,1.869-1.516,3.385-3.386,3.385C1248.283,618.988,1246.768,617.473,1246.768,615.604z"/>
			</g>
			<g>
				<path style="fill:#EBF3FA;" d="M1523.791,652.742c0-1.718,1.393-3.11,3.109-3.11c1.719,0,3.111,1.393,3.111,3.11
					c0,1.718-1.393,3.109-3.111,3.109C1525.184,655.852,1523.791,654.46,1523.791,652.742z"/>
			</g>
		</g>
		<g>
			<g>
				<polygon style="fill:#EBF3FA;" points="1351.564,767.988 1346.923,767.988 1346.923,688.537 1330.75,672.365 1251.9,672.365 
					1251.9,667.723 1332.673,667.723 1351.564,686.614 				"/>
			</g>
			<g>
				<path style="fill:#EBF3FA;" d="M1251.023,666.658c1.869,0,3.384,1.516,3.384,3.386c0,1.869-1.515,3.386-3.384,3.386
					c-1.87,0-3.386-1.517-3.386-3.386C1247.638,668.174,1249.153,666.658,1251.023,666.658z"/>
			</g>
			<g>
				<path style="fill:#EBF3FA;" d="M1345.858,767.215c0-1.87,1.516-3.385,3.386-3.385c1.869,0,3.384,1.515,3.384,3.385
					c0,1.869-1.515,3.385-3.384,3.385C1347.374,770.6,1345.858,769.084,1345.858,767.215z"/>
			</g>
		</g>
		<g>
			<g>
				<polygon style="fill:#EBF3FA;" points="1366.071,784.43 1361.43,784.43 1361.43,682.487 1337.767,658.824 1253.538,658.824 
					1253.538,654.181 1339.689,654.181 1366.071,680.565 				"/>
			</g>
			<g>
				<path style="fill:#EBF3FA;" d="M1251.023,653.117c1.869,0,3.384,1.516,3.384,3.386c0,1.869-1.515,3.385-3.384,3.385
					c-1.87,0-3.386-1.516-3.386-3.385C1247.638,654.633,1249.153,653.117,1251.023,653.117z"/>
			</g>
			<g>
				<path style="fill:#EBF3FA;" d="M1360.365,784.43c0-1.869,1.516-3.386,3.386-3.386c1.868,0,3.386,1.517,3.386,3.386
					c0,1.869-1.518,3.385-3.386,3.385C1361.881,787.815,1360.365,786.299,1360.365,784.43z"/>
			</g>
		</g>
		<g>
			<g>
				<polygon style="fill:#EBF3FA;" points="1383.867,804.166 1379.224,804.166 1379.224,671.655 1348.204,640.635 1250.015,640.635 
					1250.015,635.991 1350.127,635.991 1383.867,669.732 				"/>
			</g>
			<g>
				<path style="fill:#EBF3FA;" d="M1247.638,638.313c0-1.869,1.516-3.385,3.386-3.385c1.869,0,3.384,1.516,3.384,3.385
					c0,1.87-1.515,3.386-3.384,3.386C1249.153,641.698,1247.638,640.183,1247.638,638.313z"/>
			</g>
			<g>
				<path style="fill:#EBF3FA;" d="M1379.957,801.07c1.711-0.756,3.709,0.018,4.465,1.727c0.756,1.711-0.017,3.709-1.727,4.466
					c-1.711,0.756-3.709-0.018-4.465-1.727C1377.474,803.825,1378.248,801.827,1379.957,801.07z"/>
			</g>
		</g>
		<g>
			<polygon style="fill:#EBF3FA;" points="1403.61,835.301 1398.967,835.301 1398.967,678.063 1412.694,664.338 1526.764,664.338 
				1526.764,668.981 1414.616,668.981 1403.61,679.986 			"/>
		</g>
		<g>
			<polygon style="fill:#EBF3FA;" points="1417.717,852.129 1413.074,852.129 1413.074,689.849 1424.879,678.045 1526.764,678.045 
				1526.764,682.687 1426.802,682.687 1417.717,691.771 			"/>
		</g>
		<g>
			<polygon style="fill:#EBF3FA;" points="1433.965,852.129 1430.483,852.129 1430.483,696.033 1526.764,696.033 1526.764,699.515 
				1433.965,699.515 			"/>
		</g>
		<g>
			<path style="fill:#EBF3FA;" d="M1523.379,666.658c0-1.868,1.515-3.385,3.385-3.385c1.869,0,3.385,1.517,3.385,3.385
				c0,1.87-1.516,3.386-3.385,3.386C1524.894,670.044,1523.379,668.528,1523.379,666.658z"/>
		</g>
		<g>
			<path style="fill:#EBF3FA;" d="M1526.764,676.979c1.869,0,3.385,1.517,3.385,3.386c0,1.869-1.516,3.385-3.385,3.385
				c-1.87,0-3.385-1.516-3.385-3.385C1523.379,678.496,1524.894,676.979,1526.764,676.979z"/>
		</g>
		<g>
			<path style="fill:#EBF3FA;" d="M1526.764,694.389c1.869,0,3.385,1.516,3.385,3.385c0,1.87-1.516,3.385-3.385,3.385
				c-1.87,0-3.385-1.515-3.385-3.385C1523.379,695.904,1524.894,694.389,1526.764,694.389z"/>
		</g>
		<g>
			<path style="fill:#EBF3FA;" d="M1428.839,852.129c0-1.869,1.516-3.384,3.386-3.384c1.869,0,3.384,1.515,3.384,3.384
				c0,1.87-1.515,3.386-3.384,3.386C1430.354,855.515,1428.839,853.999,1428.839,852.129z"/>
		</g>
		<g>
			<path style="fill:#EBF3FA;" d="M1412.012,852.129c0-1.869,1.515-3.384,3.384-3.384c1.87,0,3.386,1.515,3.386,3.384
				c0,1.87-1.516,3.386-3.386,3.386C1413.526,855.515,1412.012,853.999,1412.012,852.129z"/>
		</g>
		<g>
			<path style="fill:#EBF3FA;" d="M1397.904,835.301c0-1.869,1.516-3.385,3.385-3.385s3.385,1.516,3.385,3.385
				c0,1.87-1.516,3.385-3.385,3.385S1397.904,837.171,1397.904,835.301z"/>
		</g>
		<g>
			<polygon style="fill:#EBF3FA;" points="1562.628,838.685 1557.985,838.685 1557.985,756.905 1522.417,721.337 1449.156,721.337 
				1449.156,716.694 1524.34,716.694 1562.628,754.982 			"/>
		</g>
		<g>
			<polygon style="fill:#EBF3FA;" points="1543.531,879.251 1538.887,879.251 1538.887,765.925 1511.799,738.836 1449.156,738.836 
				1449.156,734.193 1513.722,734.193 1543.531,764.003 			"/>
		</g>
		<g>
			<polygon style="fill:#EBF3FA;" points="1527.879,879.251 1523.236,879.251 1523.236,772.768 1503.771,753.301 1449.156,753.301 
				1449.156,748.659 1505.692,748.659 1527.879,770.844 			"/>
		</g>
		<g>
			<polygon style="fill:#EBF3FA;" points="1509.193,904.234 1504.551,904.234 1504.551,783.251 1494.222,772.92 1455.177,772.92 
				1455.177,879.251 1450.533,879.251 1450.533,768.279 1496.144,768.279 1509.193,781.328 			"/>
		</g>
		<g>
			<polygon style="fill:#EBF3FA;" points="1489.679,907.356 1485.034,907.356 1485.034,786.751 1473.4,786.751 1473.4,904.234 
				1468.758,904.234 1468.758,782.108 1489.679,782.108 			"/>
		</g>
		<g>
			<polygon style="fill:#EBF3FA;" points="1327.84,763.83 1323.198,763.83 1323.198,708.514 1225.068,708.514 1225.068,703.872 
				1327.84,703.872 			"/>
		</g>
		<g>
			<polygon style="fill:#EBF3FA;" points="1308.002,757.408 1303.359,757.408 1303.359,725.894 1233.018,725.894 1233.018,721.251 
				1308.002,721.251 			"/>
		</g>
		<g>
			<polygon style="fill:#EBF3FA;" points="1290.807,757.408 1286.164,757.408 1286.164,742.812 1262.416,742.812 1262.416,738.169 
				1290.807,738.169 			"/>
		</g>
		<g>
			<polygon style="fill:#EBF3FA;" points="1219.944,689.785 1188.644,689.785 1188.644,685.143 1218.021,685.143 1230.697,672.468 
				1230.697,563.825 1235.339,563.825 1235.339,674.391 			"/>
		</g>
		<g>
			<polygon style="fill:#EBF3FA;" points="1215.37,672.365 1185.315,672.365 1185.315,667.723 1210.729,667.723 1210.729,566.044 
				1215.37,566.044 			"/>
		</g>
		<g>
			<rect x="1189.097" y="574.364" style="fill:#EBF3FA;" width="4.642" height="78.753"/>
		</g>
		<g>
			<polygon style="fill:#EBF3FA;" points="1474.857,596.654 1414.546,596.654 1384.038,566.146 1250.015,566.146 1250.015,561.505 
				1385.96,561.505 1416.468,592.011 1474.857,592.011 			"/>
		</g>
		<g>
			<polygon style="fill:#EBF3FA;" points="1459.326,572.248 1426.194,572.248 1410.537,556.592 1413.82,553.31 1428.116,567.606 
				1459.326,567.606 			"/>
		</g>
		<g>
			
				<rect x="1377.63" y="625.149" transform="matrix(0.7137 -0.7004 0.7004 0.7137 -55.6464 1150.7366)" style="fill:#EBF3FA;" width="4.642" height="36.591"/>
		</g>
		<g>
			<path style="fill:#EBF3FA;" d="M1408.943,554.95c0-1.787,1.448-3.235,3.235-3.235s3.235,1.448,3.235,3.235
				s-1.448,3.236-3.235,3.236S1408.943,556.737,1408.943,554.95z"/>
		</g>
		<g>
			<path style="fill:#EBF3FA;" d="M1456.091,569.928c0-1.788,1.448-3.236,3.235-3.236s3.235,1.448,3.235,3.236
				c0,1.786-1.448,3.235-3.235,3.235S1456.091,571.714,1456.091,569.928z"/>
		</g>
		<g>
			<path style="fill:#EBF3FA;" d="M1364.699,630.515c0-1.788,1.449-3.236,3.236-3.236s3.236,1.448,3.236,3.236
				c0,1.786-1.449,3.235-3.236,3.235S1364.699,632.301,1364.699,630.515z"/>
		</g>
		<g>
			<path style="fill:#EBF3FA;" d="M1389.529,656.503c0-1.787,1.449-3.236,3.235-3.236c1.787,0,3.235,1.449,3.235,3.236
				c0,1.787-1.448,3.236-3.235,3.236C1390.979,659.739,1389.529,658.29,1389.529,656.503z"/>
		</g>
		<g>
			<path style="fill:#EBF3FA;" d="M1229.782,563.825c0-1.787,1.449-3.235,3.235-3.235c1.788,0,3.236,1.448,3.236,3.235
				s-1.448,3.236-3.236,3.236C1231.231,567.062,1229.782,565.612,1229.782,563.825z"/>
		</g>
		<g>
			<path style="fill:#EBF3FA;" d="M1185.422,687.169c0.163-1.779,1.737-3.09,3.518-2.927c1.779,0.163,3.09,1.738,2.926,3.518
				c-0.162,1.779-1.737,3.09-3.517,2.927C1186.569,690.523,1185.258,688.949,1185.422,687.169z"/>
		</g>
		<g>
			<path style="fill:#EBF3FA;" d="M1182.08,670.044c0-1.787,1.449-3.236,3.235-3.236c1.787,0,3.236,1.449,3.236,3.236
				c0,1.786-1.449,3.235-3.236,3.235C1183.529,673.279,1182.08,671.83,1182.08,670.044z"/>
		</g>
		<g>
			<path style="fill:#EBF3FA;" d="M1209.814,566.691c0-1.787,1.448-3.236,3.235-3.236s3.235,1.449,3.235,3.236
				s-1.448,3.236-3.235,3.236S1209.814,568.479,1209.814,566.691z"/>
		</g>
		<g>
			<path style="fill:#EBF3FA;" d="M1188.182,574.364c0-1.786,1.448-3.235,3.235-3.235s3.235,1.449,3.235,3.235
				c0,1.787-1.448,3.235-3.235,3.235S1188.182,576.151,1188.182,574.364z"/>
		</g>
		<g>
			<path style="fill:#EBF3FA;" d="M1188.182,652.742c0-1.787,1.448-3.236,3.235-3.236s3.235,1.449,3.235,3.236
				s-1.448,3.235-3.235,3.235S1188.182,654.529,1188.182,652.742z"/>
		</g>
		<g>
			<path style="fill:#EBF3FA;" d="M1260.041,740.49c0-1.788,1.449-3.236,3.236-3.236c1.786,0,3.235,1.448,3.235,3.236
				c0,1.786-1.449,3.235-3.235,3.235C1261.49,743.726,1260.041,742.276,1260.041,740.49z"/>
		</g>
		<g>
			<path style="fill:#EBF3FA;" d="M1285.25,756.299c0-1.787,1.449-3.235,3.235-3.235c1.788,0,3.236,1.448,3.236,3.235
				c0,1.786-1.448,3.234-3.236,3.234C1286.699,759.533,1285.25,758.085,1285.25,756.299z"/>
		</g>
		<g>
			<path style="fill:#EBF3FA;" d="M1230.476,723.573c0-1.788,1.449-3.236,3.235-3.236c1.787,0,3.236,1.448,3.236,3.236
				c0,1.786-1.449,3.235-3.236,3.235C1231.925,726.809,1230.476,725.359,1230.476,723.573z"/>
		</g>
		<g>
			<path style="fill:#EBF3FA;" d="M1302.445,757.408c0-1.788,1.448-3.236,3.235-3.236s3.235,1.448,3.235,3.236
				c0,1.786-1.448,3.235-3.235,3.235S1302.445,759.194,1302.445,757.408z"/>
		</g>
		<g>
			<path style="fill:#EBF3FA;" d="M1322.284,762.769c0-1.787,1.448-3.236,3.235-3.236s3.235,1.449,3.235,3.236
				c0,1.786-1.448,3.235-3.235,3.235S1322.284,764.556,1322.284,762.769z"/>
		</g>
		<g>
			<path style="fill:#EBF3FA;" d="M1221.832,706.192c0-1.787,1.448-3.235,3.236-3.235c1.786,0,3.235,1.448,3.235,3.235
				s-1.449,3.235-3.235,3.235C1223.28,709.428,1221.832,707.979,1221.832,706.192z"/>
		</g>
		<g>
			<rect x="1239.49" y="685.143" style="fill:#EBF3FA;" width="78.394" height="4.643"/>
		</g>
		<g>
			<path style="fill:#EBF3FA;" d="M1314.688,687.465c0-1.788,1.448-3.236,3.235-3.236c1.786,0,3.235,1.448,3.235,3.236
				c0,1.786-1.449,3.235-3.235,3.235C1316.136,690.7,1314.688,689.251,1314.688,687.465z"/>
		</g>
		<g>
			<path style="fill:#EBF3FA;" d="M1236.254,687.465c0-1.788,1.448-3.236,3.236-3.236c1.785,0,3.234,1.448,3.234,3.236
				c0,1.786-1.449,3.235-3.234,3.235C1237.702,690.7,1236.254,689.251,1236.254,687.465z"/>
		</g>
	</g>
	<path style="fill:#2E3552;" d="M2515.102,1658.521H294.977c-1.488,0-2.705-1.218-2.705-2.706v-1.384
		c0-1.489,1.217-2.705,2.705-2.705h2220.124c1.488,0,2.706,1.216,2.706,2.705v1.384
		C2517.808,1657.303,2516.59,1658.521,2515.102,1658.521z"/>
	<path style="fill:#8C9DF4;" d="M1978.182,894.256l14.336-0.9c1.193-0.063,2.32,0.549,2.921,1.582
		c0.761,1.321,1.583,2.62,2.466,3.897c1.641,2.371,3.412,4.576,5.333,6.583c0.897,0.942,1.143,2.314,0.602,3.49l-6.159,13.688
		c-0.672,1.455-0.1,3.192,1.323,3.981l11.981,6.692c1.36,0.756,3.054,0.367,3.959-0.889l8.004-11.267
		c0.754-1.112,2.168-1.576,3.488-1.154c5.568,1.771,11.413,2.646,17.303,2.595c1.422-0.011,2.695,0.976,3.053,2.348l2.119,8.138
		c0.418,1.54,1.922,2.558,3.518,2.331l13.473-2.035c0.277-0.04,0.537-0.105,0.783-0.219c1.184-0.493,1.958-1.715,1.861-3.039
		l-0.659-10.71l-0.165-2.609c2.28-1.139,4.527-2.464,6.68-3.952c2.9-2.005,5.563-4.245,7.939-6.649
		c0.91-0.916,2.279-1.195,3.454-0.654l11.021,4.974c1.511,0.67,3.284,0.093,4.076-1.352l5.118-9.158l1.461-2.629
		c0.802-1.431,0.402-3.251-0.937-4.192l-9.411-6.696c-1.1-0.764-1.593-2.139-1.205-3.397c1.096-3.788,1.796-7.682,2.061-11.599
		c0.05-0.34,0.063-0.653,0.079-0.987c-0.003-0.113,0.018-0.223,0.037-0.332c0.184-1.25,1.11-2.253,2.339-2.569l13.205-3.471
		c0.152-0.028,0.299-0.092,0.433-0.146c1.294-0.553,2.089-1.94,1.887-3.361l-2.009-13.434c-0.246-1.621-1.678-2.783-3.328-2.691
		l-14.952,0.943c-1.268,0.096-2.444-0.615-2.99-1.762c-1.221-2.51-2.652-4.968-4.302-7.352c-0.873-1.264-1.789-2.478-2.748-3.645
		c-0.772-0.952-0.951-2.258-0.444-3.37l5.916-13.16c0.659-1.445,0.096-3.17-1.306-3.955l-11.861-6.603
		c-1.431-0.802-3.237-0.41-4.206,0.944l-6.335,8.915c-0.85,1.196-2.385,1.65-3.742,1.119c-5.31-2.14-10.922-3.423-16.623-3.845
		c-1.35-0.077-2.506-1.031-2.849-2.357l-3.122-11.901c-0.418-1.598-1.979-2.614-3.609-2.383l-13.387,1.995
		c-1.608,0.235-2.764,1.683-2.648,3.279l0.033,0.626l0.77,12.441c0.084,1.333-0.656,2.551-1.873,3.105l-0.013,0.009
		c-2.913,1.327-5.75,2.927-8.483,4.817c-1.457,1.006-2.834,2.073-4.176,3.19c-0.922,0.79-2.205,0.973-3.31,0.479l-11.188-5.05
		c-1.529-0.695-3.341-0.091-4.146,1.36l-6.583,11.81c-0.185,0.339-0.296,0.7-0.359,1.05c-0.177,1.15,0.301,2.364,1.286,3.073
		l7.532,5.329c0.916,0.662,1.412,1.767,1.313,2.864c-0.029,0.287-0.095,0.579-0.203,0.864c-2.71,6.827-4.018,14.113-3.872,21.463
		c0.043,1.246-0.703,2.373-1.811,2.891c-0.16,0.072-0.328,0.132-0.506,0.179l-10.695,2.802c-1.549,0.404-2.545,1.912-2.319,3.508
		l0.044,0.313l1.948,13.096C1975.064,893.19,1976.518,894.356,1978.182,894.256z M2071.395,858.299
		c0.713,2.079,1.264,4.309,1.608,6.681c0.649,4.523-0.609,11.549-2.838,15.547c-0.237,0.43-0.481,0.847-0.727,1.264
		c-15.233,25.202-51.542,18.237-56.114-11.277c-0.591-3.859,0.172-9.398,1.749-13.594c0.379-0.967,0.78-1.873,1.225-2.637
		c2.048-3.625,4.509-6.623,7.269-9.026C2039.299,831.579,2064.153,837.545,2071.395,858.299z"/>
	<g>
		<path style="fill:#D5DFFC;" d="M1794.132,1244.667h-184.756c-14.593,0-26.531-11.938-26.531-26.531v-190.72
			c0-14.592,11.938-26.531,26.531-26.531h184.756c14.593,0,26.532,11.939,26.532,26.531v190.72
			C1820.664,1232.729,1808.725,1244.667,1794.132,1244.667z"/>
		<g>
			<path style="fill:#2A4E96;" d="M1773.57,1114.852c0,39.668-32.147,71.815-71.816,71.815s-71.815-32.147-71.815-71.815
				c0-39.669,32.146-71.816,71.815-71.816c4.509,0,8.93,0.412,13.205,1.219c-8.965,32.667-20.86,75.932-21.658,78.63
				c1.479-2.331,45.155-21.909,74.979-35.106C1771.696,1096.133,1773.57,1105.276,1773.57,1114.852z"/>
			<path style="fill:#F78248;" d="M1772.275,1079.945c-26.338,11.605-69.967,31.055-71.364,33.256
				c0.757-2.565,12.825-46.435,20.91-75.838C1744.207,1043.505,1762.607,1059.277,1772.275,1079.945z"/>
		</g>
	</g>
	<g>
		<path style="fill:#2A4E96;" d="M972.549,804.779H719.183c-14.202,0-25.822-11.621-25.822-25.823V650.544
			c0-14.201,11.62-25.821,25.822-25.821h253.366c14.202,0,25.822,11.62,25.822,25.821v128.412
			C998.371,793.158,986.751,804.779,972.549,804.779z"/>
		<g>
			<g>
				<path style="fill:#C0D4FF;" d="M831.511,772.965H718.737V737.08h112.773V772.965z M720.121,771.582h110.007v-33.118H720.121
					V771.582z"/>
			</g>
			<g>
				<rect x="726.909" y="746.723" style="fill:#C0D4FF;" width="43.622" height="2.844"/>
				<rect x="775.124" y="746.723" style="fill:#C0D4FF;" width="30.954" height="2.844"/>
				<rect x="726.909" y="754.846" style="fill:#C0D4FF;" width="24.074" height="2.845"/>
				<rect x="755.055" y="754.846" style="fill:#C0D4FF;" width="30.953" height="2.845"/>
				<rect x="789.214" y="754.846" style="fill:#C0D4FF;" width="30.953" height="2.845"/>
			</g>
		</g>
		<g>
			<g>
				<path style="fill:#C0D4FF;" d="M965.987,772.965H853.213V737.08h112.774V772.965z M854.597,771.582h110.007v-33.118H854.597
					V771.582z"/>
			</g>
			<g>
				<rect x="861.384" y="746.723" style="fill:#C0D4FF;" width="43.623" height="2.844"/>
				<rect x="909.6" y="746.723" style="fill:#C0D4FF;" width="30.953" height="2.844"/>
				<rect x="861.384" y="754.846" style="fill:#C0D4FF;" width="24.075" height="2.845"/>
				<rect x="889.53" y="754.846" style="fill:#C0D4FF;" width="30.953" height="2.845"/>
				<rect x="923.69" y="754.846" style="fill:#C0D4FF;" width="30.952" height="2.845"/>
			</g>
		</g>
		<g>
			<g>
				<g>
					<path style="fill:#C0D4FF;" d="M972.994,722.845H718.737v-20.619h254.257V722.845z M721.15,720.433h249.432v-15.794H721.15
						V720.433z"/>
				</g>
				<rect x="719.943" y="703.434" style="fill:#C0D4FF;" width="197.359" height="18.206"/>
			</g>
		</g>
		<g>
			<g>
				<g>
					<path style="fill:#C0D4FF;" d="M972.994,681.851H718.737v-20.619h254.257V681.851z M721.15,679.438h249.432v-15.793H721.15
						V679.438z"/>
				</g>
				<rect x="718.737" y="661.231" style="fill:#F99746;" width="132.208" height="20.619"/>
			</g>
		</g>
	</g>
	<g>
		<path style="fill:#F99746;" d="M983.351,1630.781l-13.096,4.646c0,0-56.88-75.147-63.884-141.264
			c-1.25-11.804-0.833-23.241,1.872-33.803c0,0-0.556-3.024-1.529-8.371c-0.449-2.495-1.005-5.499-1.635-8.942
			c-1.851-10.093-4.396-23.902-7.303-39.627c-6.693-36.186-15.364-82.442-22.1-116.448l3.528-1.079l38.179-11.733l7.89-23.872
			l28.43-7.129c0,0,6.352,11.834,12.027,67.736c1.048,7.332,2,15.419,2.716,24.188c2.213,26.764,2.374,59.965-2.705,97.922
			c-1.305,9.716-2.95,19.748-4.992,30.055c-1.497,7.557-1.722,17.853-1.091,29.677
			C962.523,1546.785,983.351,1630.781,983.351,1630.781z"/>
		<path style="fill:#ED7D2B;" d="M968.446,1335.083l-61.732,116.906c-0.449-2.495-1.005-5.499-1.635-8.942
			c-1.851-10.093-4.396-23.902-7.303-39.627c-6.693-36.186-15.364-82.442-22.1-116.448l3.528-1.079l38.179-11.733l7.89-23.872
			l28.43-7.129c0,0,6.352,11.834,12.027,67.736C966.778,1318.227,967.731,1326.313,968.446,1335.083z"/>
		<path style="fill:#F99746;" d="M941.289,1258.161l-1.429-11.675c-23.942,6.059-87.913-16.926-87.913-16.926
			s-23.194,19.421-20.148,65.975c1.485,22.723,4.201,119.279,7.036,147.851c1.026,10.356,1.923,17.726,2.29,20.669
			c0.008,0.014,0.008,0.021,0.008,0.028c0.112,0.898-0.217,1.747-0.696,2.53c-4.175,6.75-7.632,13.776-10.467,20.968
			c-27.833,70.65,4.287,157.657,4.287,157.657l8.335-3.2c0,0,18.278-96.828,33.13-139.604c2.521-7.256,4.938-12.957,7.153-16.364
			c6.456-9.928,12.448-26.148,17.889-45.442c10.279-36.475,18.555-83.926,24.061-120.552
			C925.585,1320.108,941.289,1258.161,941.289,1258.161z"/>
		<path style="fill:#1D4677;" d="M882.715,1651.726h-65.956c0,0-1.581-9.577,1.863-16.841c3.301-6.971,8.473-10.14,7.234-18.574
			c4.19,4.111,11.021,8.714,20.556,7.492c1.169,1.805,7.543,11.461,11.445,14.132
			C862.168,1640.885,881.388,1639.834,882.715,1651.726z"/>
		<path style="fill:#1D4677;" d="M1024.333,1651.726h-65.957c0,0-2.466-10.021,1.865-16.841c3.833-6.033,2.363-9.471-0.476-14.462
			c2.987,1.164,6.853,2.225,11.109,1.993c3.285-0.18,6.761-1.602,9.809-3.287c2.839,3.083,14.994,16.205,18.792,18.806
			C1003.785,1640.885,1023.006,1639.834,1024.333,1651.726z"/>
		<path style="fill:#2C3A64;" d="M961.885,957.491c-0.066-1.701-1.446-20.018-30.737-20.976c0,0,14.404,1.637,16.892,7.668
			c0,0-9.808-7.453-17.794-5.056c-7.987,2.396-12.678,15.726-12.726,20.11c-0.047,4.384,4.391,18.517,9.46,19.718
			c1.92,0.456,4.131,0.334,6.139,0.009c-1.348,2.005-2.67,4.218-3.934,6.69c-11.688,22.854,0.365,45.189,10.26,42.722
			c6.346-1.583,8.143,8.731,8.143,8.731l61.651-47.544C1009.239,989.563,986.594,944.929,961.885,957.491z"/>
		<path style="fill:#FFB27D;" d="M959.455,1122.718c-41.162,2.149-32.117-56.3-29.604-56.004
			c5.034-2.505,14.08-14.676,19.309-35.033l1.774,0.784l29.701,13.301c0,0-3.154,9.206-5.485,18.015
			c-1.817,6.896-3.121,13.556-2.031,15.42c2.343,0.907,3.742,1.477,3.742,1.477s0,0.011,0.011,0.03
			C977.171,1081.431,970.435,1122.147,959.455,1122.718z"/>
		<path style="fill:#8C9DF4;" d="M850.724,1155.338c3.549-10.957,7.211-21.473,10.925-31.173
			c8.443-22.056,13.811-33.57,18.364-42.497c8.662-16.968,47.384-15.902,47.384-15.902c7.455,25.604,27.951,41.564,27.951,41.564
			c10.927-6.111,19.063-27.602,19.063-27.602s26.838,10.242,37.769,33.996c11.732,25.496,25.164,63.627,35.968,75.051
			c2.518,2.656,9.903,6.686,18.836,10.966v0.008c0.193,0.275,0.342,0.416,0.438,0.416c-0.577,1.258-3.183,7.178-7.386,13.197
			c-3.409,4.888-7.893,9.833-13.199,12.382c-4.072-1.875-11.414-4.63-14.525-6.453c-11.258-6.553-27.313-25.127-40.424-45.04
			l-4.373,55.955l-6.617,84.719c-10.174,3.013-19.857,5.369-29.044,7.177c-0.602-7.103-3.017-15.596-3.017-15.596
			c0.106,4.455-5.366,12.98-8.608,17.618c-84.461,12.89-124.057-22.205-124.057-22.205
			C819.458,1270.854,833.688,1208.018,850.724,1155.338z"/>
		<path style="fill:#6980E2;" d="M1060.035,1213.362c-3.409,4.888-7.893,9.833-13.199,12.382c-4.072-1.875-11.414-4.63-14.525-6.453
			c-11.259-6.553-27.314-25.128-40.427-45.045c0.49-6.261,34.893,25.895,39.264,31.723
			C1034.442,1210.365,1051.469,1212.547,1060.035,1213.362z"/>
		<path style="fill:#ED985F;" d="M980.636,1045.771c0,0-3.158,9.198-5.484,18.017c-17.361-4.614-22.634-21.998-24.22-31.317
			L980.636,1045.771z"/>
		<path style="fill:#FFB27D;" d="M984.291,1055.51c0,0-41.534-9.157-35.151-33.708c6.386-24.552,5.324-42.268,32.113-37.46
			c26.788,4.809,29.485,15.389,29.447,24.076C1010.661,1017.106,995.26,1057.259,984.291,1055.51z"/>
		<path style="fill:#2C3A64;" d="M1013.035,994.479c-4.465-8.899-9.721-8.424-13.008-6.846
			c-19.516-17.201-38.658-3.149-38.658-3.149c-7.369,16.955-23.337,23.883-23.337,23.883s6.381,6.224,24.874,6.088
			c5.65-0.042,11.329-2.513,16.498-5.918c-9.969,9.565-21.657,15.387-21.657,15.387c23.149-4.22,38.674-29.75,40.265-32.461
			c1.96,2.758,5.712,8.631,6.028,13.59c0.429,6.738-2.006,19.825,2.046,20.321
			C1006.086,1025.374,1019.732,1007.825,1013.035,994.479z"/>
		<path style="fill:#6980E2;" d="M935.934,1061.035c0,0-7.026,0.45-8.534,4.73c0,0,9.171,35.159,27.946,41.561L935.934,1061.035z"/>
		<path style="fill:#6980E2;" d="M955.346,1107.326c0,0,15.467-26.608,17.452-31.934c0,0,7.238,2.682,6.789,6.959
			C979.587,1082.352,964.477,1105.405,955.346,1107.326z"/>
		<path style="fill:#FFB27D;" d="M1028.045,1236.844c0,0,9.313-4.669,12.824-7.372c3.511-2.703,4.015-0.582,3.037,1.254
			c-1.124,2.108-2.61,4.036-6.526,6.376C1033.464,1239.442,1027.006,1238.655,1028.045,1236.844z"/>
		<path style="fill:#6980E2;" d="M907.248,1094.816c0.508,1.664,63.74,97.831,65.12,116.98c1.379,19.15-26.591,8.326-27.027,5.828
			C944.902,1215.128,907.248,1094.816,907.248,1094.816z"/>
		<path style="fill:#6980E2;" d="M987.514,1230.206l-6.617,84.719c-90.456-24.82-95.43-206.646-95.43-206.646l55.905,96.141
			l45.652,25.137C987.024,1229.557,987.199,1229.781,987.514,1230.206z"/>
		<path style="fill:#ABDDDA;" d="M1067.553,1200.016c-0.027,0.1-0.07,0.15-0.132,0.15c0.034-0.075,0.062-0.134,0.078-0.175
			C1067.578,1199.841,1067.596,1199.841,1067.553,1200.016z"/>
		<g>
			<g>
				<path style="fill:#2A4E96;" d="M1412.679,1191.48v132.844c0,9.962-8.076,18.037-18.038,18.037h-340.463
					c-9.963,0-18.038-8.075-18.038-18.037V1191.48c0-9.963,8.075-18.038,18.038-18.038h340.463
					C1404.603,1173.442,1412.679,1181.518,1412.679,1191.48z"/>
			</g>
			<g>
				<path style="fill:#BDD1F9;" d="M1106.453,1208.854l-3.179,1.034l-0.834-4.342l5.237-2.068h2.737v24.295h-3.962V1208.854z"/>
				<path style="fill:#BDD1F9;" d="M1119.431,1215.713c0-6.996,3.283-12.475,8.13-12.475c4.821,0,8.079,5.41,8.079,12.475
					c0,6.995-3.258,12.475-8.131,12.475S1119.431,1222.776,1119.431,1215.713z M1131.521,1215.713c0-4.377-1.615-7.686-4.013-7.686
					s-3.962,3.205-3.962,7.686c0,4.41,1.59,7.684,4.014,7.684S1131.521,1220.157,1131.521,1215.713z"/>
				<path style="fill:#F77D48;" d="M1143.665,1215.713c0-6.996,3.284-12.475,8.13-12.475c4.821,0,8.079,5.41,8.079,12.475
					c0,6.995-3.258,12.475-8.131,12.475S1143.665,1222.776,1143.665,1215.713z M1155.756,1215.713c0-4.377-1.615-7.686-4.013-7.686
					s-3.96,3.205-3.96,7.686c0,4.41,1.589,7.684,4.012,7.684C1154.219,1223.396,1155.756,1220.157,1155.756,1215.713z"/>
				<path style="fill:#F77D48;" d="M1171.002,1208.854l-3.18,1.034l-0.835-4.342l5.238-2.068h2.736v24.295h-3.96V1208.854z"/>
				<path style="fill:#BDD1F9;" d="M1281.321,1208.854l-3.179,1.034l-0.834-4.342l5.237-2.068h2.736v24.295h-3.961V1208.854z"/>
				<path style="fill:#BDD1F9;" d="M1294.298,1215.713c0-6.996,3.283-12.475,8.131-12.475c4.82,0,8.078,5.41,8.078,12.475
					c0,6.995-3.258,12.475-8.13,12.475C1297.504,1228.188,1294.298,1222.776,1294.298,1215.713z M1306.39,1215.713
					c0-4.377-1.616-7.686-4.013-7.686c-2.397,0-3.961,3.205-3.961,7.686c0,4.41,1.589,7.684,4.013,7.684
					C1304.852,1223.396,1306.39,1220.157,1306.39,1215.713z"/>
				<path style="fill:#F77D48;" d="M1318.532,1215.713c0-6.996,3.284-12.475,8.131-12.475c4.821,0,8.078,5.41,8.078,12.475
					c0,6.995-3.257,12.475-8.13,12.475S1318.532,1222.776,1318.532,1215.713z M1330.625,1215.713c0-4.377-1.617-7.686-4.014-7.686
					c-2.397,0-3.961,3.205-3.961,7.686c0,4.41,1.589,7.684,4.013,7.684C1329.088,1223.396,1330.625,1220.157,1330.625,1215.713z"/>
				<path style="fill:#F77D48;" d="M1345.869,1208.854l-3.18,1.034l-0.834-4.342l5.238-2.068h2.736v24.295h-3.961V1208.854z"/>
				<path style="fill:#BDD1F9;" d="M1183.979,1215.713c0-6.996,3.283-12.475,8.131-12.475c4.82,0,8.077,5.41,8.077,12.475
					c0,6.995-3.257,12.475-8.13,12.475C1187.185,1228.188,1183.979,1222.776,1183.979,1215.713z M1196.07,1215.713
					c0-4.377-1.616-7.686-4.014-7.686s-3.961,3.205-3.961,7.686c0,4.41,1.59,7.684,4.014,7.684
					C1194.532,1223.396,1196.07,1220.157,1196.07,1215.713z"/>
				<path style="fill:#BDD1F9;" d="M1208.213,1215.713c0-6.996,3.283-12.475,8.131-12.475c4.819,0,8.077,5.41,8.077,12.475
					c0,6.995-3.258,12.475-8.13,12.475C1211.418,1228.188,1208.213,1222.776,1208.213,1215.713z M1220.305,1215.713
					c0-4.377-1.615-7.686-4.014-7.686c-2.396,0-3.961,3.205-3.961,7.686c0,4.41,1.59,7.684,4.014,7.684
					C1218.767,1223.396,1220.305,1220.157,1220.305,1215.713z"/>
				<path style="fill:#BDD1F9;" d="M1232.448,1215.713c0-6.996,3.282-12.475,8.131-12.475c4.819,0,8.077,5.41,8.077,12.475
					c0,6.995-3.258,12.475-8.131,12.475C1235.653,1228.188,1232.448,1222.776,1232.448,1215.713z M1244.539,1215.713
					c0-4.377-1.616-7.686-4.014-7.686s-3.961,3.205-3.961,7.686c0,4.41,1.59,7.684,4.015,7.684
					C1243.001,1223.396,1244.539,1220.157,1244.539,1215.713z"/>
				<path style="fill:#BDD1F9;" d="M1256.683,1215.713c0-6.996,3.283-12.475,8.131-12.475c4.82,0,8.077,5.41,8.077,12.475
					c0,6.995-3.257,12.475-8.13,12.475S1256.683,1222.776,1256.683,1215.713z M1268.773,1215.713c0-4.377-1.615-7.686-4.013-7.686
					s-3.961,3.205-3.961,7.686c0,4.41,1.589,7.684,4.014,7.684C1267.235,1223.396,1268.773,1220.157,1268.773,1215.713z"/>
			</g>
			<g>
				<path style="fill:#BDD1F9;" d="M1106.453,1287.793l-3.179,1.034l-0.834-4.342l5.237-2.068h2.737v24.296h-3.962V1287.793z"/>
				<path style="fill:#BDD1F9;" d="M1119.431,1294.651c0-6.995,3.283-12.475,8.13-12.475c4.821,0,8.079,5.41,8.079,12.475
					c0,6.995-3.258,12.475-8.131,12.475S1119.431,1301.716,1119.431,1294.651z M1131.521,1294.651c0-4.376-1.615-7.686-4.013-7.686
					s-3.962,3.206-3.962,7.686c0,4.411,1.59,7.685,4.014,7.685S1131.521,1299.097,1131.521,1294.651z"/>
				<path style="fill:#F77D48;" d="M1143.665,1294.651c0-6.995,3.284-12.475,8.13-12.475c4.821,0,8.079,5.41,8.079,12.475
					c0,6.995-3.258,12.475-8.131,12.475S1143.665,1301.716,1143.665,1294.651z M1155.756,1294.651c0-4.376-1.615-7.686-4.013-7.686
					s-3.96,3.206-3.96,7.686c0,4.411,1.589,7.685,4.012,7.685C1154.219,1302.336,1155.756,1299.097,1155.756,1294.651z"/>
				<path style="fill:#F77D48;" d="M1171.002,1287.793l-3.18,1.034l-0.835-4.342l5.238-2.068h2.736v24.296h-3.96V1287.793z"/>
				<path style="fill:#BDD1F9;" d="M1281.321,1287.793l-3.179,1.034l-0.834-4.342l5.237-2.068h2.736v24.296h-3.961V1287.793z"/>
				<path style="fill:#BDD1F9;" d="M1294.298,1294.651c0-6.995,3.283-12.475,8.131-12.475c4.82,0,8.078,5.41,8.078,12.475
					c0,6.995-3.258,12.475-8.13,12.475C1297.504,1307.126,1294.298,1301.716,1294.298,1294.651z M1306.39,1294.651
					c0-4.376-1.616-7.686-4.013-7.686c-2.397,0-3.961,3.206-3.961,7.686c0,4.411,1.589,7.685,4.013,7.685
					C1304.852,1302.336,1306.39,1299.097,1306.39,1294.651z"/>
				<path style="fill:#F77D48;" d="M1318.532,1294.651c0-6.995,3.284-12.475,8.131-12.475c4.821,0,8.078,5.41,8.078,12.475
					c0,6.995-3.257,12.475-8.13,12.475S1318.532,1301.716,1318.532,1294.651z M1330.625,1294.651c0-4.376-1.617-7.686-4.014-7.686
					c-2.397,0-3.961,3.206-3.961,7.686c0,4.411,1.589,7.685,4.013,7.685C1329.088,1302.336,1330.625,1299.097,1330.625,1294.651z"/>
				<path style="fill:#F77D48;" d="M1345.869,1287.793l-3.18,1.034l-0.834-4.342l5.238-2.068h2.736v24.296h-3.961V1287.793z"/>
				<path style="fill:#BDD1F9;" d="M1183.979,1294.651c0-6.995,3.283-12.475,8.131-12.475c4.82,0,8.077,5.41,8.077,12.475
					c0,6.995-3.257,12.475-8.13,12.475C1187.185,1307.126,1183.979,1301.716,1183.979,1294.651z M1196.07,1294.651
					c0-4.376-1.616-7.686-4.014-7.686s-3.961,3.206-3.961,7.686c0,4.411,1.59,7.685,4.014,7.685
					C1194.532,1302.336,1196.07,1299.097,1196.07,1294.651z"/>
				<path style="fill:#BDD1F9;" d="M1208.213,1294.651c0-6.995,3.283-12.475,8.131-12.475c4.819,0,8.077,5.41,8.077,12.475
					c0,6.995-3.258,12.475-8.13,12.475C1211.418,1307.126,1208.213,1301.716,1208.213,1294.651z M1220.305,1294.651
					c0-4.376-1.615-7.686-4.014-7.686c-2.396,0-3.961,3.206-3.961,7.686c0,4.411,1.59,7.685,4.014,7.685
					C1218.767,1302.336,1220.305,1299.097,1220.305,1294.651z"/>
				<path style="fill:#BDD1F9;" d="M1232.448,1294.651c0-6.995,3.282-12.475,8.131-12.475c4.819,0,8.077,5.41,8.077,12.475
					c0,6.995-3.258,12.475-8.131,12.475C1235.653,1307.126,1232.448,1301.716,1232.448,1294.651z M1244.539,1294.651
					c0-4.376-1.616-7.686-4.014-7.686s-3.961,3.206-3.961,7.686c0,4.411,1.59,7.685,4.015,7.685
					C1243.001,1302.336,1244.539,1299.097,1244.539,1294.651z"/>
				<path style="fill:#BDD1F9;" d="M1256.683,1294.651c0-6.995,3.283-12.475,8.131-12.475c4.82,0,8.077,5.41,8.077,12.475
					c0,6.995-3.257,12.475-8.13,12.475S1256.683,1301.716,1256.683,1294.651z M1268.773,1294.651c0-4.376-1.615-7.686-4.013-7.686
					s-3.961,3.206-3.961,7.686c0,4.411,1.589,7.685,4.014,7.685C1267.235,1302.336,1268.773,1299.097,1268.773,1294.651z"/>
			</g>
			<g>
				<path style="fill:#BDD1F9;" d="M1188.924,1248.345l-3.18,1.034l-0.834-4.342l5.237-2.068h2.737v24.295h-3.961V1248.345z"/>
				<path style="fill:#BDD1F9;" d="M1172.232,1248.345l-3.179,1.034l-0.833-4.342l5.236-2.068h2.738v24.295h-3.963V1248.345z"/>
				<path style="fill:#BDD1F9;" d="M1201.901,1255.202c0-6.996,3.282-12.475,8.13-12.475c4.82,0,8.077,5.411,8.077,12.475
					c0,6.995-3.257,12.476-8.13,12.476S1201.901,1262.267,1201.901,1255.202z M1213.992,1255.202c0-4.377-1.615-7.685-4.014-7.685
					c-2.396,0-3.961,3.204-3.961,7.685c0,4.412,1.59,7.685,4.014,7.685C1212.454,1262.887,1213.992,1259.647,1213.992,1255.202z"/>
				<path style="fill:#F77D48;" d="M1226.136,1255.202c0-6.996,3.282-12.475,8.131-12.475c4.819,0,8.077,5.411,8.077,12.475
					c0,6.995-3.258,12.476-8.131,12.476C1229.341,1267.678,1226.136,1262.267,1226.136,1255.202z M1238.227,1255.202
					c0-4.377-1.615-7.685-4.014-7.685c-2.396,0-3.961,3.204-3.961,7.685c0,4.412,1.59,7.685,4.015,7.685
					C1236.689,1262.887,1238.227,1259.647,1238.227,1255.202z"/>
				<path style="fill:#F77D48;" d="M1253.472,1248.345l-3.179,1.034l-0.834-4.342l5.236-2.068h2.737v24.295h-3.961V1248.345z"/>
				<path style="fill:#BDD1F9;" d="M1266.449,1255.202c0-6.996,3.283-12.475,8.13-12.475c4.821,0,8.079,5.411,8.079,12.475
					c0,6.995-3.258,12.476-8.131,12.476S1266.449,1262.267,1266.449,1255.202z M1278.54,1255.202c0-4.377-1.616-7.685-4.013-7.685
					c-2.398,0-3.962,3.204-3.962,7.685c0,4.412,1.591,7.685,4.014,7.685S1278.54,1259.647,1278.54,1255.202z"/>
				<path style="fill:#BDD1F9;" d="M1290.683,1255.202c0-6.996,3.284-12.475,8.131-12.475c4.82,0,8.078,5.411,8.078,12.475
					c0,6.995-3.258,12.476-8.13,12.476C1293.889,1267.678,1290.683,1262.267,1290.683,1255.202z M1302.773,1255.202
					c0-4.377-1.615-7.685-4.012-7.685c-2.397,0-3.961,3.204-3.961,7.685c0,4.412,1.589,7.685,4.013,7.685
					S1302.773,1259.647,1302.773,1255.202z"/>
				<path style="fill:#BDD1F9;" d="M1314.918,1255.202c0-6.996,3.283-12.475,8.13-12.475c4.821,0,8.078,5.411,8.078,12.475
					c0,6.995-3.257,12.476-8.13,12.476S1314.918,1262.267,1314.918,1255.202z M1327.01,1255.202c0-4.377-1.617-7.685-4.014-7.685
					c-2.398,0-3.961,3.204-3.961,7.685c0,4.412,1.589,7.685,4.013,7.685C1325.471,1262.887,1327.01,1259.647,1327.01,1255.202z"/>
				<path style="fill:#BDD1F9;" d="M1100.545,1255.202c0-6.996,3.282-12.475,8.131-12.475c4.82,0,8.077,5.411,8.077,12.475
					c0,6.995-3.257,12.476-8.13,12.476S1100.545,1262.267,1100.545,1255.202z M1112.636,1255.202c0-4.377-1.615-7.685-4.013-7.685
					s-3.961,3.204-3.961,7.685c0,4.412,1.59,7.685,4.014,7.685C1111.098,1262.887,1112.636,1259.647,1112.636,1255.202z"/>
				<path style="fill:#BDD1F9;" d="M1124.779,1255.202c0-6.996,3.283-12.475,8.131-12.475c4.82,0,8.077,5.411,8.077,12.475
					c0,6.995-3.257,12.476-8.13,12.476S1124.779,1262.267,1124.779,1255.202z M1136.87,1255.202c0-4.377-1.615-7.685-4.013-7.685
					s-3.962,3.204-3.962,7.685c0,4.412,1.591,7.685,4.015,7.685C1135.333,1262.887,1136.87,1259.647,1136.87,1255.202z"/>
				<path style="fill:#BDD1F9;" d="M1149.014,1255.202c0-6.996,3.283-12.475,8.131-12.475c4.82,0,8.078,5.411,8.078,12.475
					c0,6.995-3.258,12.476-8.131,12.476S1149.014,1262.267,1149.014,1255.202z M1161.104,1255.202c0-4.377-1.615-7.685-4.013-7.685
					s-3.961,3.204-3.961,7.685c0,4.412,1.59,7.685,4.014,7.685C1159.566,1262.887,1161.104,1259.647,1161.104,1255.202z"/>
				<path style="fill:#BDD1F9;" d="M1339.152,1255.202c0-6.996,3.284-12.475,8.13-12.475c4.821,0,8.079,5.411,8.079,12.475
					c0,6.995-3.258,12.476-8.131,12.476S1339.152,1262.267,1339.152,1255.202z M1351.244,1255.202c0-4.377-1.617-7.685-4.014-7.685
					c-2.397,0-3.96,3.204-3.96,7.685c0,4.412,1.589,7.685,4.012,7.685S1351.244,1259.647,1351.244,1255.202z"/>
			</g>
		</g>
		<path style="fill:#FFB27D;" d="M1027.739,1237.966l-3.471,12.081c0,0-4.362-0.757-11.302-1.981
			c-2.081-0.383-3.269-0.666-3.269-0.666c-5.55-1.032-12.184-2.448-19.422-3.963h-0.104c-12.387-2.831-26.258-6.228-37.953-10.008
			c-1.049-0.351-2.08-0.7-3.085-1.049c-6.913-2.432-12.892-4.988-17.132-7.545c-0.498-0.282-0.892-0.565-1.39-0.94
			c-11.59-8.025,24.972-27.376,31.021-23.221c1.6,1.106,3.321,2.248,5.122,3.422c10.025,6.486,22.787,13.713,34.123,19.799
			c5.551,3.022,10.804,5.762,15.165,8.027C1023.08,1235.602,1027.739,1237.966,1027.739,1237.966z"/>
		<path style="fill:#8C9DF4;" d="M966.755,1204.096c0,0,0.729,22.827-21.706,33.929c-25.932-8.915-39.802-45.752-50.509-71.055
			c-1.486-3.488-2.876-6.985-4.257-10.384c-4.956-12.646-8.924-25.109-11.303-35.876c-1.485-6.419-2.473-12.272-2.673-17.085
			c-0.098-1.698,30.024-21.715,33.694-14.063c5.646,12.173,11.59,27.941,17.141,43.611c3.076,8.593,6.049,17.186,9.021,25.111
			c1.687,4.813,3.374,9.342,4.956,13.496c3.076,7.936,5.847,14.354,8.32,18.409c1.591,2.647,6.144,6.328,12.193,10.483
			C963.232,1201.78,964.954,1202.922,966.755,1204.096z"/>
		<g>
			<path style="fill:#FFB27D;" d="M1022.062,1235.704c0,0,11.256,2.794,14.002,1.354c2.747-1.438,14.991-3.415,17.75,0.29
				c3.71,4.982,7.887,14.594,5.573,16.908c-2.312,2.313-8.116-4.132-16.162-1.794c-4.068,1.183-12.182,4.632-17.115,1.317
				c-4.943-3.32-10.747-8.181-10.747-8.181L1022.062,1235.704z"/>
		</g>
	</g>
	<path style="fill:#D5DFFC;" d="M853.411,446.274l27.445,0.683c2.284,0.078,4.33,1.431,5.3,3.498
		c1.229,2.643,2.576,5.254,4.044,7.832c2.727,4.789,5.731,9.283,9.053,13.424c1.555,1.942,1.792,4.6,0.565,6.745l-14.014,25.036
		c-1.521,2.659-0.72,6.063,1.856,7.803l21.695,14.744c2.463,1.664,5.754,1.205,7.685-1.031l17.122-20.12
		c1.623-1.993,4.393-2.638,6.835-1.615c10.307,4.302,21.289,6.943,32.513,7.829c2.708,0.216,4.967,2.308,5.42,4.98l2.677,15.848
		c0.537,3.003,3.23,5.193,6.309,5.027l25.992-1.628c0.535-0.028,1.041-0.109,1.527-0.283c2.335-0.742,4.015-2.939,4.052-5.478
		l0.534-20.5l0.119-4.997c4.533-1.787,9.032-3.935,13.379-6.408c5.857-3.335,11.301-7.155,16.228-11.338
		c1.887-1.592,4.539-1.895,6.686-0.669l20.155,11.31c2.765,1.528,6.236,0.725,7.988-1.892l11.275-16.584l3.218-4.762
		c1.766-2.592,1.308-6.122-1.083-8.14l-16.802-14.322c-1.967-1.639-2.675-4.337-1.728-6.669c2.721-7.028,4.702-14.326,5.859-21.74
		c0.153-0.639,0.229-1.232,0.315-1.869c0.015-0.215,0.071-0.419,0.127-0.624c0.559-2.351,2.49-4.105,4.884-4.502l25.722-4.403
		c0.294-0.029,0.583-0.125,0.848-0.207c2.558-0.835,4.301-3.344,4.153-6.086l-1.583-25.915c-0.195-3.129-2.729-5.582-5.887-5.68
		l-28.626-0.7c-2.431-0.03-4.554-1.579-5.399-3.855c-1.906-4.982-4.223-9.901-6.964-14.718c-1.452-2.551-2.994-5.018-4.625-7.398
		c-1.312-1.942-1.434-4.458-0.281-6.492l13.462-24.068c1.493-2.643,0.708-6.022-1.827-7.75l-21.483-14.554
		c-2.59-1.765-6.095-1.321-8.165,1.097l-13.552,15.917c-1.816,2.137-4.816,2.741-7.311,1.506
		c-9.751-4.961-20.224-8.342-31.011-10.096c-2.556-0.372-4.596-2.382-5.029-4.961l-3.958-23.184
		c-0.53-3.111-3.331-5.308-6.476-5.139l-25.821,1.565c-3.102,0.18-5.54,2.74-5.591,5.801l-0.043,1.197l-0.609,23.819
		c-0.063,2.552-1.676,4.746-4.086,5.6l-0.025,0.015c-5.766,2.042-11.437,4.614-16.955,7.755c-2.942,1.674-5.743,3.475-8.484,5.38
		c-1.887,1.349-4.361,1.482-6.381,0.357l-20.459-11.483c-2.796-1.58-6.346-0.732-8.122,1.899l-14.505,21.387
		c-0.41,0.612-0.683,1.285-0.862,1.938c-0.528,2.162,0.178,4.552,1.938,6.067l13.452,11.404c1.633,1.415,2.394,3.601,2.023,5.673
		c-0.105,0.542-0.276,1.088-0.53,1.612c-6.301,12.547-10.007,26.202-10.955,40.22c-0.128,2.381-1.736,4.399-3.934,5.202
		c-0.315,0.111-0.647,0.196-0.992,0.254l-20.831,3.55c-3.019,0.511-5.167,3.216-5.001,6.293l0.032,0.602l1.521,25.261
		C847.652,443.727,850.227,446.19,853.411,446.274z M1036.895,393.373c1.011,4.078,1.688,8.416,1.947,12.989
		c0.483,8.721-3.088,21.887-7.998,29.127c-0.521,0.779-1.058,1.533-1.594,2.286c-33.213,45.442-101.184,26.12-104.961-30.841
		c-0.482-7.447,1.895-17.864,5.6-25.59c0.883-1.778,1.799-3.438,2.772-4.818c4.504-6.562,9.691-11.858,15.346-15.973
		C980.246,337.139,1026.572,352.649,1036.895,393.373z"/>
	<path style="fill:#D5DFFC;" d="M1706.27,703.13l38.162-4.298c3.181-0.328,6.272,1.154,8.012,3.834
		c2.208,3.429,4.575,6.789,7.1,10.08c4.693,6.117,9.718,11.77,15.112,16.872c2.523,2.395,3.359,6.031,2.071,9.239l-14.636,37.371
		c-1.599,3.974,0.161,8.539,4.063,10.458l32.881,16.284c3.731,1.836,8.202,0.572,10.452-2.898l19.882-31.152
		c1.868-3.071,5.584-4.494,9.163-3.545c15.104,3.992,30.828,5.554,46.55,4.636c3.793-0.218,7.324,2.249,8.461,5.866l6.738,21.448
		c1.319,4.059,5.47,6.578,9.701,5.76l35.708-7.222c0.737-0.142,1.421-0.35,2.063-0.685c3.093-1.475,5-4.84,4.566-8.363
		l-3.178-28.511l-0.788-6.948c5.938-3.342,11.763-7.177,17.315-11.437c7.479-5.739,14.291-12.074,20.318-18.812
		c2.311-2.565,5.929-3.493,9.137-2.204l30.092,11.822c4.123,1.59,8.781-0.188,10.707-4.148l12.455-25.137l3.55-7.213
		c1.952-3.927,0.642-8.732-3.055-11.071l-26.021-16.636c-3.039-1.895-4.536-5.499-3.668-8.911
		c2.426-10.259,3.778-20.75,3.965-31.246c0.09-0.914,0.082-1.752,0.08-2.648c-0.02-0.302,0.019-0.597,0.059-0.89
		c0.322-3.363,2.663-6.164,5.904-7.171l34.803-11.018c0.401-0.097,0.784-0.285,1.135-0.448c3.385-1.647,5.321-5.455,4.593-9.228
		l-7.146-35.608c-0.869-4.298-4.848-7.213-9.242-6.745l-39.803,4.501c-3.373,0.422-6.611-1.319-8.219-4.311
		c-3.592-6.539-7.742-12.914-12.461-19.064c-2.501-3.258-5.107-6.38-7.822-9.368c-2.189-2.44-2.839-5.902-1.633-8.94l14.057-35.925
		c1.564-3.946-0.169-8.479-4.012-10.39l-32.553-16.061c-3.927-1.952-8.697-0.667-11.104,3.08l-15.737,24.645
		c-2.109,3.309-6.149,4.719-9.842,3.486c-14.463-5.014-29.62-7.696-44.902-8.064c-3.612-0.029-6.823-2.424-7.918-5.916
		l-9.915-31.369c-1.328-4.21-5.63-6.719-9.954-5.883l-35.482,7.102c-4.264,0.843-7.154,4.855-6.638,9.107l0.169,1.666l3.707,33.123
		c0.399,3.549-1.416,6.896-4.592,8.54l-0.033,0.025c-7.601,3.931-14.967,8.578-22.015,13.985c-3.756,2.883-7.294,5.914-10.729,9.077
		c-2.355,2.23-5.759,2.887-8.773,1.714l-30.546-12.002c-4.175-1.655-8.932,0.198-10.891,4.185l-16.013,32.408
		c-0.451,0.927-0.7,1.91-0.824,2.85c-0.317,3.096,1.117,6.273,3.843,8.037l20.821,13.23c2.532,1.65,4.005,4.533,3.887,7.477
		c-0.041,0.771-0.176,1.56-0.427,2.335c-6.333,18.59-8.858,38.221-7.496,57.827c0.28,3.323-1.563,6.427-4.456,7.96
		c-0.416,0.214-0.858,0.396-1.325,0.543l-28.189,8.898c-4.083,1.286-6.544,5.443-5.727,9.676l0.16,0.828l6.935,34.714
		C1697.803,700.7,1701.841,703.622,1706.27,703.13z M1950.418,594.762c2.18,5.457,3.945,11.339,5.181,17.628
		c2.335,11.992-0.097,30.918-5.518,41.89c-0.574,1.18-1.173,2.326-1.772,3.473c-37.34,69.317-135.223,55.53-151.34-22.681
		c-2.09-10.227-0.787-25.116,2.868-36.53c0.884-2.633,1.838-5.106,2.921-7.206c4.986-9.952,11.164-18.284,18.214-25.066
		C1861.171,527.661,1928.332,540.302,1950.418,594.762z"/>
</g>
</svg>
