<?xml version="1.0" encoding="utf-8"?>
<!-- Generator: Adobe Illustrator 27.5.0, SVG Export Plug-In . SVG Version: 6.00 Build 0)  -->
<svg version="1.1" xmlns="http://www.w3.org/2000/svg" xmlns:xlink="http://www.w3.org/1999/xlink" x="0px" y="0px"
	 viewBox="0 0 750 500" style="enable-background:new 0 0 750 500;" xml:space="preserve">
<g id="BACKGROUND">
	<rect id="XMLID_27_" style="fill:#FFFFFF;" width="750" height="500"/>
</g>
<g id="OBJECTS">
	<g id="XMLID_224_">
		<path id="XMLID_164_" style="fill:#ECF0F1;" d="M135.176,425.36c0,0-34.849-11.521-31.338-31.27
			c3.511-19.75,21.505-12.289,21.505-12.289s-38.323-39.489-23.7-56.027c9.875-11.168,25.894,10.951,25.894,10.951
			s-29.777-68.448,3.95-70.729c33.727-2.281,10.972,70.729,10.972,70.729s16.658-25.549,28.298-17.228
			c11.64,8.321-19.959,60.548-19.959,60.548s22.016-13.167,27.247,5.705c5.23,18.872-21.541,39.609-21.541,39.609"/>
		<path id="XMLID_170_" style="fill:#BDC3C7;" d="M507.285,425.36c0,0,34.849-11.521,31.338-31.27
			c-3.511-19.75-21.505-12.289-21.505-12.289s38.323-39.489,23.7-56.027c-9.875-11.168-25.894,10.951-25.894,10.951
			s29.777-68.448-3.95-70.729c-33.727-2.281-10.972,70.729-10.972,70.729s-16.658-25.549-28.298-17.228
			c-11.64,8.321,19.959,60.548,19.959,60.548s-22.016-13.167-27.247,5.705c-5.23,18.872,21.541,39.609,21.541,39.609"/>
		<path id="XMLID_169_" style="fill:#BDC3C7;" d="M179.78,425.36c0,0-23.386-7.731-21.03-20.985
			c2.356-13.254,14.432-8.247,14.432-8.247s-25.718-26.5-15.904-37.598c6.627-7.495,17.377,7.349,17.377,7.349
			s-19.982-45.934,2.651-47.464c22.633-1.531,7.363,47.464,7.363,47.464s11.179-17.145,18.99-11.561
			c7.811,5.584-13.394,40.632-13.394,40.632s14.774-8.836,18.285,3.829c3.51,12.664-14.456,26.581-14.456,26.581"/>
		<g id="XMLID_163_">
			<g id="XMLID_142_">
				<path id="XMLID_162_" style="fill:#ECF0F1;" d="M431.292,423.056H282.561c-4.538,0-8.217-3.679-8.217-8.217v-229.26h165.165
					v229.26C439.509,419.377,435.83,423.056,431.292,423.056z"/>
				<path id="XMLID_161_" style="fill:#BDC3C7;" d="M431.292,165.036H282.561c-4.538,0-8.217,3.679-8.217,8.217v12.326h165.165
					v-12.326C439.509,168.715,435.83,165.036,431.292,165.036z"/>
				<g id="XMLID_157_">
					<path id="XMLID_160_" style="fill:#ECF0F1;" d="M407.873,176.266c0,1.815-1.472,3.287-3.287,3.287
						c-1.815,0-3.287-1.471-3.287-3.287c0-1.815,1.472-3.287,3.287-3.287C406.401,172.979,407.873,174.451,407.873,176.266z"/>
					<path id="XMLID_159_" style="fill:#ECF0F1;" d="M418.692,176.266c0,1.815-1.472,3.287-3.287,3.287
						c-1.815,0-3.287-1.471-3.287-3.287c0-1.815,1.472-3.287,3.287-3.287C417.221,172.979,418.692,174.451,418.692,176.266z"/>
					<path id="XMLID_158_" style="fill:#ECF0F1;" d="M429.512,176.266c0,1.815-1.472,3.287-3.287,3.287
						c-1.815,0-3.287-1.471-3.287-3.287c0-1.815,1.472-3.287,3.287-3.287C428.04,172.979,429.512,174.451,429.512,176.266z"/>
				</g>
				<path id="XMLID_156_" style="fill:#BDC3C7;" d="M423.075,262.796h-68.613c-4.538,0-8.217-3.679-8.217-8.217v-51.333
					c0-4.538,3.679-8.217,8.217-8.217h68.613c4.538,0,8.217,3.679,8.217,8.217v51.333
					C431.292,259.117,427.613,262.796,423.075,262.796z"/>
				<path id="XMLID_155_" style="fill:#ECF0F1;" d="M396.534,222.165l-12.314,12.222c-3.381,3.355-8.897,3.143-12.009-0.463
					l-3.361-3.894c-3.358-3.891-9.424-3.778-12.636,0.234l-4.903,6.125v13.189l74.913-0.125v-10.698l-18.351-16.816
					C404.64,218.975,399.647,219.074,396.534,222.165z"/>
				<g id="XMLID_150_">
					<path id="XMLID_154_" style="fill:#BDC3C7;" d="M290.035,207.259h43.267c2.08,0,3.766-1.686,3.766-3.766l0,0
						c0-2.08-1.686-3.766-3.766-3.766h-43.267c-2.08,0-3.766,1.686-3.766,3.766l0,0
						C286.269,205.573,287.955,207.259,290.035,207.259z"/>
					<path id="XMLID_153_" style="fill:#BDC3C7;" d="M290.035,224.206h43.267c2.08,0,3.766-1.686,3.766-3.766l0,0
						c0-2.08-1.686-3.766-3.766-3.766h-43.267c-2.08,0-3.766,1.686-3.766,3.766l0,0
						C286.269,222.519,287.955,224.206,290.035,224.206z"/>
					<path id="XMLID_152_" style="fill:#BDC3C7;" d="M290.035,241.152h43.267c2.08,0,3.766-1.686,3.766-3.766l0,0
						c0-2.08-1.686-3.766-3.766-3.766h-43.267c-2.08,0-3.766,1.686-3.766,3.766l0,0
						C286.269,239.466,287.955,241.152,290.035,241.152z"/>
					<path id="XMLID_151_" style="fill:#BDC3C7;" d="M290.035,258.098h43.267c2.08,0,3.766-1.686,3.766-3.766v0
						c0-2.08-1.686-3.766-3.766-3.766h-43.267c-2.08,0-3.766,1.686-3.766,3.766v0C286.269,256.412,287.955,258.098,290.035,258.098z
						"/>
				</g>
				<g id="XMLID_143_">
					<path id="XMLID_149_" style="fill:#BDC3C7;" d="M288.644,288.246h138.882c2.08,0,3.766-1.686,3.766-3.766l0,0
						c0-2.08-1.686-3.766-3.766-3.766H288.644c-2.08,0-3.766,1.686-3.766,3.766l0,0C284.878,286.56,286.564,288.246,288.644,288.246
						z"/>
					<path id="XMLID_148_" style="fill:#BDC3C7;" d="M288.644,305.192h138.882c2.08,0,3.766-1.686,3.766-3.766l0,0
						c0-2.08-1.686-3.766-3.766-3.766H288.644c-2.08,0-3.766,1.686-3.766,3.766l0,0
						C284.878,303.506,286.564,305.192,288.644,305.192z"/>
					<path id="XMLID_147_" style="fill:#BDC3C7;" d="M288.644,322.139h138.882c2.08,0,3.766-1.686,3.766-3.766l0,0
						c0-2.08-1.686-3.766-3.766-3.766H288.644c-2.08,0-3.766,1.686-3.766,3.766l0,0
						C284.878,320.452,286.564,322.139,288.644,322.139z"/>
					<path id="XMLID_146_" style="fill:#BDC3C7;" d="M288.644,339.085h138.882c2.08,0,3.766-1.686,3.766-3.766l0,0
						c0-2.08-1.686-3.766-3.766-3.766H288.644c-2.08,0-3.766,1.686-3.766,3.766l0,0
						C284.878,337.399,286.564,339.085,288.644,339.085z"/>
					<path id="XMLID_145_" style="fill:#BDC3C7;" d="M288.644,356.031h138.882c2.08,0,3.766-1.686,3.766-3.766l0,0
						c0-2.08-1.686-3.766-3.766-3.766H288.644c-2.08,0-3.766,1.686-3.766,3.766l0,0
						C284.878,354.345,286.564,356.031,288.644,356.031z"/>
					<path id="XMLID_144_" style="fill:#BDC3C7;" d="M288.644,372.978h138.882c2.08,0,3.766-1.686,3.766-3.766l0,0
						c0-2.08-1.686-3.766-3.766-3.766H288.644c-2.08,0-3.766,1.686-3.766,3.766l0,0
						C284.878,371.291,286.564,372.978,288.644,372.978z"/>
				</g>
			</g>
			
				<linearGradient id="XMLID_00000152233643580623204220000007741291352663265684_" gradientUnits="userSpaceOnUse" x1="374.628" y1="294.046" x2="386.0389" y2="294.046">
				<stop  offset="0" style="stop-color:#000000"/>
				<stop  offset="1" style="stop-color:#FFFFFF"/>
			</linearGradient>
			
				<rect id="XMLID_134_" x="374.628" y="165.036" style="opacity:0.3;fill:url(#XMLID_00000152233643580623204220000007741291352663265684_);" width="11.411" height="258.02"/>
		</g>
		<g id="XMLID_121_">
			<path id="XMLID_113_" style="fill:#ECF0F1;" d="M365.85,423.056H206.975c-4.848,0-8.778-3.93-8.778-8.778V169.383h176.43v244.896
				C374.628,419.126,370.698,423.056,365.85,423.056z"/>
			<path id="XMLID_114_" style="fill:#BDC3C7;" d="M365.85,147.439H206.975c-4.848,0-8.778,3.93-8.778,8.778v13.166h176.43v-13.166
				C374.628,151.368,370.698,147.439,365.85,147.439z"/>
			<g id="XMLID_117_">
				<path id="XMLID_115_" style="fill:#ECF0F1;" d="M340.834,159.435c0,1.939-1.572,3.511-3.511,3.511s-3.511-1.572-3.511-3.511
					c0-1.939,1.572-3.511,3.511-3.511S340.834,157.496,340.834,159.435z"/>
				<path id="XMLID_118_" style="fill:#ECF0F1;" d="M352.391,159.435c0,1.939-1.572,3.511-3.511,3.511
					c-1.939,0-3.511-1.572-3.511-3.511c0-1.939,1.572-3.511,3.511-3.511C350.819,155.924,352.391,157.496,352.391,159.435z"/>
				<path id="XMLID_119_" style="fill:#ECF0F1;" d="M363.948,159.435c0,1.939-1.572,3.511-3.511,3.511
					c-1.939,0-3.511-1.572-3.511-3.511c0-1.939,1.572-3.511,3.511-3.511C362.377,155.924,363.948,157.496,363.948,159.435z"/>
			</g>
			<path id="XMLID_120_" style="fill:#BDC3C7;" d="M357.073,251.866H283.78c-4.848,0-8.778-3.93-8.778-8.778v-54.834
				c0-4.848,3.93-8.778,8.778-8.778h73.293c4.848,0,8.778,3.93,8.778,8.778v54.834C365.85,247.936,361.921,251.866,357.073,251.866z
				"/>
			<path id="XMLID_140_" style="fill:#ECF0F1;" d="M328.722,208.463l-13.153,13.056c-3.611,3.584-9.504,3.357-12.828-0.495
				l-3.59-4.16c-3.587-4.156-10.067-4.036-13.497,0.25l-5.237,6.543v14.088l80.023-0.134v-11.428l-19.602-17.963
				C337.38,205.056,332.048,205.162,328.722,208.463z"/>
			<g id="XMLID_133_">
				<path id="XMLID_122_" style="fill:#BDC3C7;" d="M214.959,192.542h46.218c2.222,0,4.023-1.801,4.023-4.023l0,0
					c0-2.222-1.801-4.023-4.023-4.023h-46.218c-2.222,0-4.023,1.801-4.023,4.023l0,0
					C210.936,190.74,212.737,192.542,214.959,192.542z"/>
				<path id="XMLID_124_" style="fill:#BDC3C7;" d="M214.959,210.644h46.218c2.222,0,4.023-1.801,4.023-4.023v0
					c0-2.222-1.801-4.023-4.023-4.023h-46.218c-2.222,0-4.023,1.801-4.023,4.023v0C210.936,208.842,212.737,210.644,214.959,210.644
					z"/>
				<path id="XMLID_125_" style="fill:#BDC3C7;" d="M214.959,228.746h46.218c2.222,0,4.023-1.801,4.023-4.023l0,0
					c0-2.222-1.801-4.023-4.023-4.023h-46.218c-2.222,0-4.023,1.801-4.023,4.023l0,0
					C210.936,226.945,212.737,228.746,214.959,228.746z"/>
				<path id="XMLID_126_" style="fill:#BDC3C7;" d="M214.959,246.848h46.218c2.222,0,4.023-1.801,4.023-4.023v0
					c0-2.222-1.801-4.023-4.023-4.023h-46.218c-2.222,0-4.023,1.801-4.023,4.023v0C210.936,245.046,212.737,246.848,214.959,246.848
					z"/>
			</g>
			<g id="XMLID_123_">
				<path id="XMLID_127_" style="fill:#BDC3C7;" d="M213.473,279.052h148.354c2.222,0,4.023-1.801,4.023-4.023l0,0
					c0-2.222-1.801-4.023-4.023-4.023H213.473c-2.222,0-4.023,1.801-4.023,4.023l0,0
					C209.45,277.251,211.252,279.052,213.473,279.052z"/>
				<path id="XMLID_128_" style="fill:#BDC3C7;" d="M213.473,297.154h148.354c2.222,0,4.023-1.801,4.023-4.023l0,0
					c0-2.222-1.801-4.023-4.023-4.023H213.473c-2.222,0-4.023,1.801-4.023,4.023l0,0
					C209.45,295.353,211.252,297.154,213.473,297.154z"/>
				<path id="XMLID_129_" style="fill:#BDC3C7;" d="M213.473,315.256h148.354c2.222,0,4.023-1.801,4.023-4.023l0,0
					c0-2.222-1.801-4.023-4.023-4.023H213.473c-2.222,0-4.023,1.801-4.023,4.023l0,0
					C209.45,313.455,211.252,315.256,213.473,315.256z"/>
				<path id="XMLID_130_" style="fill:#BDC3C7;" d="M213.473,333.358h148.354c2.222,0,4.023-1.801,4.023-4.023v0
					c0-2.222-1.801-4.023-4.023-4.023H213.473c-2.222,0-4.023,1.801-4.023,4.023v0C209.45,331.557,211.252,333.358,213.473,333.358z
					"/>
				<path id="XMLID_131_" style="fill:#BDC3C7;" d="M213.473,351.46h148.354c2.222,0,4.023-1.801,4.023-4.023l0,0
					c0-2.222-1.801-4.023-4.023-4.023H213.473c-2.222,0-4.023,1.801-4.023,4.023l0,0C209.45,349.659,211.252,351.46,213.473,351.46z
					"/>
				<path id="XMLID_132_" style="fill:#BDC3C7;" d="M213.473,369.562h148.354c2.222,0,4.023-1.801,4.023-4.023v0
					c0-2.222-1.801-4.023-4.023-4.023H213.473c-2.222,0-4.023,1.801-4.023,4.023v0C209.45,367.761,211.252,369.562,213.473,369.562z
					"/>
			</g>
		</g>
		<g id="XMLID_35_">
			<path id="XMLID_34_" style="fill:#1ABC9C;" d="M552.299,305.862c0,0,12.714-63.115,65.386-61.299
				c52.672,1.816,49.039,118.512,21.795,156.654c-27.244,38.142-125.323,33.147-146.664,7.719
				c-21.341-25.428-5.903-51.31,16.346-58.575C531.412,343.096,546.85,322.663,552.299,305.862z"/>
			<path id="XMLID_33_" style="opacity:0.5;fill:#1ABC9C;" d="M594.528,261.59c0,0,8.627-9.762,18.617-2.952
				c9.99,6.811,0.227,20.206,7.719,30.423c7.492,10.217,19.525,15.438,18.163,38.823c-1.362,23.385-14.303,44.953-32.239,48.585
				c-17.936,3.633-43.136-8.627-43.136-8.627l34.736-78.327L594.528,261.59z"/>
			<g id="XMLID_29_">
				<g id="XMLID_21_">
					<path id="XMLID_20_" style="fill:#8E44AD;" d="M592.524,289.653c0,0-21.046,5.893-31.429,35.732l29.465,3.835L592.524,289.653z
						"/>
					<path id="XMLID_15_" style="fill:#E67E22;" d="M612.822,353.541c0,0,1.122,10.477-10.664,15.154
						c-11.786,4.677-36.668-4.911-36.668-4.911l-5.238-23.525l28.623-2.993L612.822,353.541z"/>
					<path id="XMLID_4_" style="fill:#8E44AD;" d="M605.619,288.717c0,0,10.804,1.684,18.381,14.312
						c7.577,12.628-10.383,53.037-10.383,53.037s-20.719-17.398-37.089-13.563c-13.472,3.156-8.652,10.477-8.652,10.477
						s-5.472-5.612-2.245-11.646c3.227-6.033,12.067-10.383,12.067-20.485c0-10.102-0.902-25.997,15.154-31.289
						C605.409,285.42,605.619,288.717,605.619,288.717z"/>
					<path id="XMLID_6_" style="fill:#F1C48C;" d="M605.395,276.957l0.634,15.607c0,0-2.297,5.15-8.002,5.15
						s-6.021-4.278-6.021-4.278l2.218-13.309L605.395,276.957z"/>
					<path id="XMLID_9_" style="opacity:0.5;fill:#F1C48C;" d="M597.017,287.771c5.059,0,7.442-3.383,8.526-7.176l-0.148-3.638
						l-11.171,3.169l-1.129,6.774C594.174,287.451,595.466,287.771,597.017,287.771z"/>
					<path id="XMLID_3_" style="fill:#2C3E50;" d="M586.8,269.23c0,0-2.677-1.859-2.32-7.801s11.567-7.229,15.667-3.842
						c4.1,3.387,4.023,4.36,6.068,4.886c3.182,0.818,3.043,5.936,1.478,9.652l-2.496,2.246l-11.883-1.275L586.8,269.23z"/>
					<path id="XMLID_2_" style="fill:#F1C48C;" d="M586.963,267.688c0,0-2.65,17.528,8.866,17.528
						c11.516,0,9.172-17.528,9.172-17.528H586.963z"/>
					<path id="XMLID_1_" style="fill:#F1C48C;" d="M604.306,273.036c0,0,1.783-3.209,3.506-1.307c1.723,1.901,0,6.477-3.862,5.823
						L604.306,273.036z"/>
					<path id="XMLID_5_" style="fill:#2C3E50;" d="M586.421,268.104c0,0,1.753,1.812,6.12,1.812s7.279-1.723,9.031-1.188
						c1.753,0.535,0.178,1.901,1.07,3.06c0.891,1.159,1.159,2.317,0.861,4.011l0.921,0.267l1.218-4.872l0.505-4.1l-2.406-1.664
						c0,0-6.12-0.683-6.328-0.683s-5.763-0.149-5.763-0.149l-5.08,2.555L586.421,268.104z"/>
					<g id="XMLID_12_">
						<path id="XMLID_10_" style="fill:#95A5A6;" d="M580.53,343.859h-39.427c-1.55,0-2.806-1.256-2.806-2.806v-25.116
							c0-1.55,1.256-2.806,2.806-2.806h39.427c1.55,0,2.806,1.256,2.806,2.806v25.116
							C583.336,342.603,582.08,343.859,580.53,343.859z"/>
						<path id="XMLID_7_" style="fill:#2C3E50;" d="M578.425,343.859h-39.427c-1.55,0-2.806-1.256-2.806-2.806v-25.116
							c0-1.55,1.256-2.806,2.806-2.806h39.427c1.55,0,2.806,1.256,2.806,2.806v25.116
							C581.231,342.603,579.975,343.859,578.425,343.859z"/>
						<path id="XMLID_8_" style="fill:#95A5A6;" d="M589.731,348.411h-51.263c-1.257,0-2.276-1.019-2.276-2.276l0,0
							c0-1.257,1.019-2.276,2.276-2.276h51.263c1.257,0,2.276,1.019,2.276,2.276l0,0
							C592.006,347.392,590.987,348.411,589.731,348.411z"/>
						<path id="XMLID_11_" style="fill:#2C3E50;" d="M585.612,348.411h-47.144c-1.257,0-2.276-1.019-2.276-2.276l0,0
							c0-1.257,1.019-2.276,2.276-2.276h47.144c1.257,0,2.276,1.019,2.276,2.276l0,0
							C587.887,347.392,586.868,348.411,585.612,348.411z"/>
					</g>
					<path id="XMLID_14_" style="fill:#E67E22;" d="M549.308,345.964c7.072-10.177,16.931-5.332,19.176,3.18
						c2.157,8.18,8.225,49.082,8.225,49.082l-8.272,1.056C568.437,399.282,542.236,356.141,549.308,345.964z"/>
					<polygon id="XMLID_13_" style="fill:#E67E22;" points="548.279,349.051 520.965,391.331 527.747,394.231 560.252,370.191 					
						"/>
					<polygon id="XMLID_16_" style="fill:#2C3E50;" points="570.191,399.984 572.225,415.207 581.346,412.752 575.242,399.352 					
						"/>
					<polygon id="XMLID_18_" style="fill:#2C3E50;" points="521.152,392.267 515.633,394.886 503.941,395.915 522.743,403.211 
						525.829,394.792 					"/>
					<path id="XMLID_19_" style="fill:#F1C48C;" d="M593.225,331.98l-6.875,4.958c0,0,0.842,1.029,1.824,0.748
						c0.982-0.281,3.929-2.198,3.929-2.198l-3.788,2.9c0,0,0.374,0.655,1.684,0.608c1.309-0.047,4.303-2.292,4.303-2.292
						l-3.321,2.947c0,0,0.982,0.655,2.198,0.327c1.216-0.327,3.18-1.964,3.18-1.964s0.702,2.9,5.987,3.367
						c5.285,0.468,5.028-6.852,5.028-6.852L593.225,331.98z"/>
					<path id="XMLID_17_" style="fill:#8E44AD;" d="M616.844,294.751c0,0,7.296,5.332,13.189,18.24
						c5.893,12.908-3.929,25.256-18.521,28.764L616.844,294.751z"/>
				</g>
				<path id="XMLID_24_" style="fill:none;stroke:#2C3E50;stroke-width:0.2806;stroke-miterlimit:10;" d="M622.924,319.866
					c0,0-9.354,1.777-14.966,11.786"/>
				<path id="XMLID_22_" style="fill:none;stroke:#2C3E50;stroke-width:0.2806;stroke-miterlimit:10;" d="M617.499,321.924
					c0,0-4.864-2.9-6.08-10.383c-1.216-7.483,2.245-12.441,2.245-12.441"/>
				<path id="XMLID_25_" style="fill:none;stroke:#2C3E50;stroke-width:0.2806;stroke-miterlimit:10;" d="M580.504,304.502
					c0,0-1.263,2.245-1.754,6.875"/>
				<path id="XMLID_26_" style="fill:none;stroke:#2C3E50;stroke-width:0.2806;stroke-miterlimit:10;" d="M620.001,338.387
					c0,0-4.56,2.315-10.593,4.069"/>
				<path id="XMLID_23_" style="fill:none;stroke:#2C3E50;stroke-width:0.2806;stroke-miterlimit:10;" d="M608.613,332.307
					c0,0,2.011,0.842,2.432,3.555c0.421,2.713-1.73,5.098-1.73,5.098"/>
				<path id="XMLID_28_" style="fill:none;stroke:#FFFFFF;stroke-width:0.2806;stroke-miterlimit:10;" d="M605.152,351.577
					c0,0-1.216,6.828-10.383,10.944c-9.167,4.116-22.169-3.087-22.169-3.087"/>
				<path id="XMLID_30_" style="fill:none;stroke:#FFFFFF;stroke-width:0.2806;stroke-miterlimit:10;" d="M601.691,357.68
					c0,0-4.069-1.824-2.666-7.927"/>
				<path id="XMLID_31_" style="fill:none;stroke:#FFFFFF;stroke-width:0.2806;stroke-miterlimit:10;" d="M554.827,372.062
					c0,0-3.087-6.174-5.425-16.276"/>
				<path id="XMLID_32_" style="fill:none;stroke:#FFFFFF;stroke-width:0.2806;stroke-miterlimit:10;" d="M570.471,349.753
					c0,0,0.14,1.473-0.982,4.35c0,0,1.122,4.7,1.754,9.962"/>
			</g>
			<path id="XMLID_69_" style="fill:#2C3E50;" d="M590.228,273.946c0,0.394-0.319,0.713-0.713,0.713
				c-0.394,0-0.713-0.319-0.713-0.713c0-0.394,0.319-0.713,0.713-0.713C589.909,273.233,590.228,273.552,590.228,273.946z"/>
			<path id="XMLID_72_" style="fill:#2C3E50;" d="M593.959,273.946c0,0.394-0.319,0.713-0.713,0.713
				c-0.394,0-0.713-0.319-0.713-0.713c0-0.394,0.319-0.713,0.713-0.713C593.639,273.233,593.959,273.552,593.959,273.946z"/>
			<polyline id="XMLID_70_" style="fill:none;stroke:#D35400;stroke-width:0.2809;stroke-miterlimit:10;" points="591.069,275.153 
				590.411,278.408 591.728,278.408 			"/>
			<path id="XMLID_74_" style="fill:none;stroke:#D35400;stroke-width:0.2809;stroke-miterlimit:10;" d="M590.375,280.895
				c0,0,1.829,1.28,4.864,0"/>
		</g>
		<g id="XMLID_60_">
			<g id="XMLID_105_">
				<path id="XMLID_48_" style="fill:#F1C48C;" d="M266.366,256.858c0,0,3.787-4.096,6.369-4.507
					c2.581-0.41,3.779,1.201,3.779,1.201l11.143-3.821c0,0,1.997-0.938,2.495,0.322c0.473,1.197-1.714,2.24-1.714,2.24l-7.199,3.712
					c0,0,2.284-0.767,2.999,0.498c0.715,1.265-1.606,2.219-1.606,2.219s1.507,0.388,1.527,1.688c0.02,1.3-1.908,1.77-1.908,1.77
					s1.071,0.038,1.09,1.338c0.02,1.3-4.33,3.473-14.781,3.541C258.108,267.129,266.366,256.858,266.366,256.858z"/>
				<path id="XMLID_68_" style="fill:none;stroke:#D35400;stroke-width:0.2745;stroke-miterlimit:10;" d="M281.278,258.89
					c0,0-2.538,0.751-4.647,1.037"/>
				<path id="XMLID_75_" style="fill:none;stroke:#D35400;stroke-width:0.2745;stroke-miterlimit:10;" d="M281.348,262.14
					c0,0-1.63,0.686-3.38,0.789"/>
				<path id="XMLID_66_" style="fill:none;stroke:#D35400;stroke-width:0.2745;stroke-miterlimit:10;" d="M276.738,253.814
					c0,0,1.466,1.466,1.215,2.359c-0.25,0.894-2.181,0.929-2.824,0.393c0,0,1.144,4.468-2.181,5.719"/>
				<path id="XMLID_71_" style="fill:none;stroke:#D35400;stroke-width:0.2745;stroke-miterlimit:10;" d="M274.414,261.249
					c0,0,3.36-0.25,4.039,2.931"/>
			</g>
			<polygon id="XMLID_49_" style="fill:#2C3E50;" points="206.738,306.199 216.545,414.07 204.963,414.07 173.374,317.78 			"/>
			<path id="XMLID_45_" style="fill:#2C3E50;" d="M157.658,308.749c0,0-2.805,11.476-2.805,21.931l-8.012,83.9h10.509
				l40.856-105.831H157.658z"/>
			<path id="XMLID_43_" style="fill:#E67E22;" d="M190.961,230.275c0,0,18.174-1.098,22.877,13.012
				c4.29,12.868-4.289,67.202-4.289,67.202h-53.762c0,0-4.576-47.757-2.574-63.199s25.737-16.872,25.737-16.872L190.961,230.275z"/>
			<g id="XMLID_42_">
				<path id="XMLID_39_" style="fill:#D35400;" d="M181.684,202.393c0,0-2.949-2.038-5.415,0.429
					c-2.861,2.861,0.107,12.082,0.107,12.082l5.648-0.858L181.684,202.393z"/>
				<path id="XMLID_36_" style="fill:#D35400;" d="M180.559,202.607c0,0,8.365-7.775,16.407,0.751
					c5.402,5.726-0.536,9.973-0.536,9.973l-16.3-1.072L180.559,202.607z"/>
				<path id="XMLID_41_" style="fill:#F1C48C;" d="M178.665,218.443l-0.619,15.254c0,0,2.245,5.033,7.82,5.033
					c5.575,0,5.885-4.181,5.885-4.181l-2.168-13.008L178.665,218.443z"/>
				<path id="XMLID_40_" style="opacity:0.5;fill:#F1C48C;" d="M186.853,229.012c-4.944,0-7.274-3.306-8.333-7.014l0.144-3.556
					l10.918,3.097l1.104,6.621C189.632,228.699,188.369,229.012,186.853,229.012z"/>
				<path id="XMLID_38_" style="fill:#F1C48C;" d="M196.68,209.384c0,0,2.59,17.132-8.665,17.132
					c-11.255,0-8.964-17.132-8.964-17.132H196.68z"/>
				<path id="XMLID_37_" style="fill:#F1C48C;" d="M179.729,214.61c0,0-1.742-3.136-3.426-1.278c-1.684,1.858,0,6.33,3.775,5.691
					L179.729,214.61z"/>
				<path id="XMLID_46_" style="fill:#D35400;" d="M190.156,208.344c0,0-7.828,10.188-14.155,4.826l1.019-6.273l7.078-0.912
					L190.156,208.344z"/>
				<path id="XMLID_47_" style="fill:#D35400;" d="M188.735,208.908c0,0,2.037,3.137,8.445,2.466l0.375-3.592l-1.769-1.796
					L188.735,208.908z"/>
			</g>
			<path id="XMLID_44_" style="fill:#E67E22;" d="M205.545,233.492c0,0,14.703,11.969,25.094,19.088
				c11.582,7.936,37.319,1.93,37.319,1.93l2.359,14.584c0,0-15.013,7.936-33.458,10.08c-18.445,2.145-35.817-11.582-35.817-11.582
				L205.545,233.492z"/>
			<polygon id="XMLID_51_" style="fill:#2C3E50;" points="214.614,416.082 206.192,416.082 204.258,426.859 229.667,426.859 			"/>
			<polygon id="XMLID_63_" style="fill:#2C3E50;" points="155.705,416.082 147.283,416.082 145.349,426.859 170.758,426.859 			"/>
			<path id="XMLID_50_" style="fill:#E67E22;" d="M161.925,235.709c0,0-22.959,13.092-26.452,41.036
				c-3.432,27.453,24.021,43.539,24.021,43.539l4.719-10.08L161.925,235.709z"/>
			<path id="XMLID_53_" style="fill:none;stroke:#D35400;stroke-width:0.2745;stroke-miterlimit:10;" d="M213.685,272.027
				c0,0,0.858-11.582-0.572-20.876"/>
			<path id="XMLID_54_" style="fill:none;stroke:#D35400;stroke-width:0.2745;stroke-miterlimit:10;" d="M213.757,256.585
				c0,0,1.287-1.072,1.573-4.718"/>
			<path id="XMLID_52_" style="fill:none;stroke:#D35400;stroke-width:0.2745;stroke-miterlimit:10;" d="M163.784,307.916
				c0,0-10.295-10.867-10.295-20.59s11.725-16.872,13.726-30.742"/>
			<path id="XMLID_55_" style="fill:none;stroke:#D35400;stroke-width:0.2745;stroke-miterlimit:10;" d="M173.006,235.888
				c0,0,3.539,6.863,13.512,6.756c9.973-0.107,10.617-8.15,10.617-8.15"/>
			<polygon id="XMLID_56_" style="fill:#F1C48C;" points="164.266,309.56 167.912,312.777 163.408,322.16 160.138,318.783 			"/>
			<polyline id="XMLID_58_" style="fill:none;stroke:#FFFFFF;stroke-width:0.2745;stroke-miterlimit:10;" points="168.181,311.812 
				163.408,322.16 158.958,325.539 149.843,411.221 			"/>
			
				<line id="XMLID_59_" style="fill:none;stroke:#FFFFFF;stroke-width:0.2745;stroke-miterlimit:10;" x1="158.958" y1="325.539" x2="159.423" y2="321.285"/>
			<polyline id="XMLID_57_" style="fill:none;stroke:#FFFFFF;stroke-width:0.2745;stroke-miterlimit:10;" points="183.373,345.52 
				186.661,331.794 194.239,319.497 			"/>
			
				<line id="XMLID_61_" style="fill:none;stroke:#FFFFFF;stroke-width:0.2745;stroke-miterlimit:10;" x1="188.091" y1="335.226" x2="206.679" y2="412.151"/>
			<path id="XMLID_62_" style="fill:#2C3E50;" d="M189.232,215.029c0,0.395-0.32,0.715-0.715,0.715c-0.395,0-0.715-0.32-0.715-0.715
				c0-0.395,0.32-0.715,0.715-0.715C188.912,214.314,189.232,214.635,189.232,215.029z"/>
			<circle id="XMLID_65_" style="fill:#2C3E50;" cx="193.235" cy="215.029" r="0.715"/>
			<polyline id="XMLID_64_" style="fill:none;stroke:#D35400;stroke-width:0.2745;stroke-miterlimit:10;" points="191.126,215.798 
				191.609,219.712 189.84,219.712 			"/>
			<path id="XMLID_67_" style="fill:none;stroke:#D35400;stroke-width:0.2745;stroke-miterlimit:10;" d="M192.735,221.696
				c0,0-2.735,2.091-6.434,0"/>
		</g>
		<g id="XMLID_97_">
			<g id="XMLID_107_">
				<path id="XMLID_112_" style="fill:#F1C48C;" d="M378.597,241.854c0,0-1.636-5.334-3.784-6.823
					c-2.148-1.489-3.926-0.556-3.926-0.556l-8.383-8.275c0,0-1.392-1.711-2.387-0.792c-0.945,0.873,0.572,2.762,0.572,2.762
					l4.876,6.467c0,0-1.726-1.682-2.918-0.852c-1.193,0.829,0.485,2.696,0.485,2.696s-1.526-0.304-2.107,0.859
					c-0.582,1.163,0.951,2.422,0.951,2.422s-0.981-0.43-1.563,0.733c-0.582,1.163,2.395,5.008,11.783,9.602
					C381.583,254.691,378.597,241.854,378.597,241.854z"/>
				<path id="XMLID_111_" style="fill:none;stroke:#D35400;stroke-width:0.2745;stroke-miterlimit:10;" d="M364.28,237.218
					c0,0,1.961,1.777,3.737,2.949"/>
				<path id="XMLID_110_" style="fill:none;stroke:#D35400;stroke-width:0.2745;stroke-miterlimit:10;" d="M365.51,242.293
					c-1.532-0.852-2.703-2.177-2.703-2.177"/>
				<path id="XMLID_109_" style="fill:none;stroke:#D35400;stroke-width:0.2745;stroke-miterlimit:10;" d="M370.572,234.613
					c0,0-1.956,0.685-2.118,1.599c-0.162,0.914,1.562,1.783,2.374,1.579c0,0-2.969,3.53-0.516,6.099"/>
				<path id="XMLID_108_" style="fill:none;stroke:#D35400;stroke-width:0.2745;stroke-miterlimit:10;" d="M369.44,242.32
					c0,0-2.919-1.683-4.911,0.889"/>
			</g>
			<path id="XMLID_95_" style="fill:#F1C48C;" d="M453.464,348.633c0,0,5.08,36.3,12.7,57.254h6.35c0,0,7.665-33.303,2.399-57.466
				C474.912,348.422,454.099,348.633,453.464,348.633z"/>
			<path id="XMLID_94_" style="fill:#F1C48C;" d="M424.255,342.284c0,0-4.127,31.643-5.821,63.815l6.456-0.106
				c0,0,16.18-22.254,20.837-59.083C445.727,346.91,424.255,341.014,424.255,342.284z"/>
			<polygon id="XMLID_93_" style="fill:#2C3E50;" points="422.402,306.911 420.272,350.609 483.47,350.609 480.873,305.173 			"/>
			<path id="XMLID_91_" style="fill:#E67E22;" d="M427.218,240.405c0,0-16.792,10.301-28.08,29.209c0,0-11.289-17.215-20.602-27.939
				l-8.466,7.338c0,0,2.54,32.737,22.013,40.921c19.473,8.184,38.099-16.651,38.099-16.651L427.218,240.405z"/>
			<polygon id="XMLID_90_" style="fill:#D35400;" points="438.224,248.871 427.5,309.547 473.924,309.547 466.305,245.202 			"/>
			<path id="XMLID_87_" style="fill:#F1C48C;" d="M444.998,252.822c0,0,7.196,4.939,18.062,0l-5.503-17.074l-10.16,1.411l-5.08,8.89
				L444.998,252.822z"/>
			<polygon id="XMLID_88_" style="fill:#3498DB;" points="446.62,234.972 427.218,240.405 418.046,310.958 448.737,310.958 
				451.277,241.11 			"/>
			<polygon id="XMLID_89_" style="fill:#3498DB;" points="459.743,234.972 479.145,240.405 488.317,310.958 457.627,310.958 
				455.087,241.11 			"/>
			<g id="XMLID_85_">
				<path id="XMLID_84_" style="fill:#D35400;" d="M442.387,218.039l-2.469,6.914c0,0-4.656,0.564-4.868,5.785
					c-0.208,5.124,6.985,8.89,13.123,4.868c6.138-4.022,5.292-11.571,5.292-11.571L442.387,218.039z"/>
				<path id="XMLID_86_" style="fill:#D35400;" d="M461.119,218.039l2.469,6.914c0,0,4.656,0.564,4.868,5.785
					c0.208,5.124-6.985,8.89-13.123,4.868c-6.138-4.022-5.292-11.571-5.292-11.571L461.119,218.039z"/>
				<path id="XMLID_73_" style="fill:#D35400;" d="M457.274,205.128c0,0,2.681-1.525,4.656,1.058
					c1.834,2.399-2.117,12.276-2.117,12.276l-3.598-5.503L457.274,205.128z"/>
				<path id="XMLID_77_" style="fill:#D35400;" d="M457.274,205.128c0,0,0-3.316-4.092-3.528c-3.568-0.185-4.374,3.316-4.374,3.316
					s-5.574-5.574-9.948-2.469c-4.374,3.104-5.574,11.43,2.54,14.04h16.086L457.274,205.128z"/>
				<g id="XMLID_76_">
					<path id="XMLID_82_" style="fill:#F1C48C;" d="M459.179,221.126l0.611,15.054c0,0-2.216,4.967-7.718,4.967
						c-5.502,0-5.807-4.126-5.807-4.126l2.14-12.838L459.179,221.126z"/>
					<path id="XMLID_81_" style="opacity:0.5;fill:#F1C48C;" d="M451.099,231.557c4.879,0,7.178-3.263,8.223-6.922l-0.143-3.509
						l-10.775,3.057l-1.089,6.534C448.356,231.248,449.602,231.557,451.099,231.557z"/>
					<path id="XMLID_80_" style="fill:#F1C48C;" d="M441.401,212.185c0,0-2.556,16.907,8.552,16.907
						c11.107,0,8.847-16.907,8.847-16.907H441.401z"/>
					<path id="XMLID_79_" style="fill:#F1C48C;" d="M458.129,217.343c0,0,1.719-3.095,3.381-1.261c1.662,1.834,0,6.247-3.725,5.616
						L458.129,217.343z"/>
				</g>
				<path id="XMLID_78_" style="fill:#D35400;" d="M447.855,211.301c0,0-2.117,4.339-7.373,3.81
					c-5.256-0.529-1.587-4.727-1.587-4.727l5.75-0.952L447.855,211.301z"/>
				<path id="XMLID_83_" style="fill:#D35400;" d="M446.55,211.795l5.926,2.011c0,0,2.752,4.374,7.267,0.917l0.212-4.621
					c0,0-3.069-1.587-3.563-1.587C455.898,208.515,446.55,211.795,446.55,211.795z"/>
			</g>
			<path id="XMLID_92_" style="fill:#E67E22;" d="M479.145,240.405c0,0,24.411,17.921,24.976,45.577
				c0.564,27.657-14.675,39.792-14.675,39.792l-9.313-9.313c0,0,0-16.651,4.233-33.866L479.145,240.405z"/>
			<path id="XMLID_96_" style="fill:#E67E22;" d="M424.467,406.628c0,0,1.27,3.81,1.905,7.726c0.635,3.916,0.529,9.63,0.529,9.63
				h-2.54c0,0-0.423-2.963-1.27-5.292c0,0-2.434,2.223-6.244,4.127c-3.81,1.905-18.203,2.54-18.203,2.54l10.265-6.773l9.595-11.853
				L424.467,406.628z"/>
			<path id="XMLID_98_" style="fill:#E67E22;" d="M472.513,406.628c0,0,1.27,3.81,1.905,7.726c0.635,3.916,0.529,9.63,0.529,9.63
				h-2.54c0,0-0.423-2.963-1.27-5.292c0,0-2.434,2.223-6.244,4.127s-18.203,2.54-18.203,2.54l10.266-6.773l9.595-11.853
				L472.513,406.628z"/>
			
				<line id="XMLID_100_" style="fill:none;stroke:#2980B9;stroke-width:0.2809;stroke-miterlimit:10;" x1="464.16" y1="256.866" x2="475.424" y2="256.866"/>
			<path id="XMLID_101_" style="fill:none;stroke:#D35400;stroke-width:0.2809;stroke-miterlimit:10;" d="M423.508,249.314
				c0,0-0.823,3.621,1.371,6.693"/>
			<path id="XMLID_102_" style="fill:none;stroke:#D35400;stroke-width:0.2809;stroke-miterlimit:10;" d="M481.825,259.024
				c0,0,2.633-2.962,2.633-6.474"/>
			<path id="XMLID_99_" style="fill:#2C3E50;" d="M444.757,217.824c0,0.485-0.393,0.878-0.878,0.878
				c-0.485,0-0.878-0.393-0.878-0.878s0.393-0.878,0.878-0.878C444.365,216.946,444.757,217.339,444.757,217.824z"/>
			<path id="XMLID_104_" style="fill:#2C3E50;" d="M449.146,217.824c0,0.485-0.393,0.878-0.878,0.878
				c-0.485,0-0.878-0.393-0.878-0.878s0.393-0.878,0.878-0.878C448.753,216.946,449.146,217.339,449.146,217.824z"/>
			<polyline id="XMLID_103_" style="fill:none;stroke:#D35400;stroke-width:0.2809;stroke-miterlimit:10;" points="445.654,219.049 
				444.922,222.195 446.275,222.195 			"/>
			<path id="XMLID_116_" style="fill:#F1C48C;" d="M480.532,316.86c-1.018,1.033-4.315,4.477-4.377,5.838
				c-0.073,1.609,3.072-0.073,3.072-0.073s-4.096,7.534-3.804,10.094c0.293,2.56,2.999-1.317,2.999-1.317s-1.536,2.706-1.39,3.73
				c0.146,1.024,3.072-1.829,3.072-1.829s-1.755,2.048-1.097,3.145s3.511-2.999,3.511-2.999s-1.39,2.121-0.658,2.999
				c0.701,0.841,5.225-5.974,7.082-11.179L480.532,316.86z"/>
			<path id="XMLID_106_" style="fill:none;stroke:#D35400;stroke-width:0.2809;stroke-miterlimit:10;" d="M444.191,224.316
				c0,0,1.865,1.243,5.047,0"/>
		</g>
		<path id="XMLID_135_" style="fill:#ECF0F1;" d="M595.109,217.498L595.109,217.498c-3.729-1.088-5.494-5.347-3.626-8.753l0,0
			c1.298-2.367,0.878-5.308-1.031-7.217l-2.129-2.129l-2.129-2.129c-1.909-1.909-4.85-2.329-7.217-1.031h0
			c-3.406,1.868-7.666,0.103-8.753-3.626l0,0c-0.756-2.592-3.132-4.374-5.832-4.374h-3.011h-3.011c-2.7,0-5.076,1.782-5.832,4.374v0
			c-1.088,3.729-5.347,5.494-8.753,3.626h0c-2.367-1.298-5.308-0.878-7.217,1.031l-2.129,2.129l-2.129,2.129
			c-1.909,1.909-2.329,4.85-1.031,7.217v0c1.868,3.406,0.103,7.666-3.626,8.753l0,0c-2.592,0.756-4.374,3.132-4.374,5.832v3.011
			v3.011c0,2.7,1.782,5.076,4.374,5.832v0c3.729,1.088,5.494,5.347,3.626,8.753c-1.298,2.367-0.878,5.308,1.031,7.217l2.129,2.129
			l2.129,2.129c1.909,1.909,4.85,2.329,7.217,1.031l0,0c3.406-1.868,7.666-0.103,8.753,3.626v0c0.756,2.592,3.132,4.374,5.832,4.374
			h3.011h3.011c2.7,0,5.076-1.782,5.832-4.374l0,0c1.088-3.729,5.347-5.494,8.753-3.626l0,0c2.367,1.298,5.308,0.878,7.217-1.031
			l2.129-2.129l2.129-2.129c1.909-1.909,2.329-4.849,1.031-7.217c-1.868-3.406-0.103-7.666,3.626-8.753l0,0
			c2.592-0.756,4.374-3.132,4.374-5.832v-3.011v-3.011C599.483,220.63,597.701,218.254,595.109,217.498z M561.38,241.907
			c-8.596,0-15.565-6.969-15.565-15.565s6.969-15.565,15.565-15.565s15.565,6.969,15.565,15.565S569.976,241.907,561.38,241.907z"/>
		<path id="XMLID_138_" style="fill:#ECF0F1;" d="M523.693,174.136L523.693,174.136c-2.637-0.769-3.885-3.781-2.564-6.19l0,0
			c0.918-1.674,0.621-3.753-0.729-5.103l-1.506-1.506l-1.506-1.505c-1.35-1.35-3.429-1.647-5.103-0.729h0
			c-2.408,1.321-5.42,0.073-6.19-2.564h0c-0.535-1.833-2.215-3.093-4.124-3.093h-2.129h-2.129c-1.909,0-3.589,1.26-4.124,3.093l0,0
			c-0.769,2.637-3.781,3.885-6.19,2.564h0c-1.674-0.918-3.753-0.621-5.103,0.729l-1.505,1.505l-1.506,1.506
			c-1.35,1.35-1.647,3.429-0.729,5.103v0c1.321,2.408,0.073,5.421-2.564,6.19h0c-1.833,0.535-3.093,2.215-3.093,4.124v2.129v2.129
			c0,1.909,1.26,3.589,3.093,4.124l0,0c2.637,0.769,3.884,3.781,2.564,6.19c-0.918,1.674-0.621,3.753,0.729,5.103l1.506,1.506
			l1.505,1.506c1.35,1.35,3.429,1.647,5.103,0.729l0,0c2.408-1.321,5.421-0.073,6.19,2.564v0c0.535,1.833,2.215,3.093,4.124,3.093
			h2.129h2.129c1.909,0,3.589-1.26,4.124-3.093l0,0c0.769-2.637,3.781-3.885,6.19-2.564l0,0c1.674,0.918,3.753,0.621,5.103-0.729
			l1.506-1.506l1.506-1.506c1.35-1.35,1.647-3.429,0.729-5.103c-1.321-2.408-0.073-5.421,2.564-6.19l0,0
			c1.833-0.535,3.093-2.215,3.093-4.124v-2.129v-2.129C526.786,176.351,525.526,174.671,523.693,174.136z M499.843,191.395
			c-6.079,0-11.006-4.928-11.006-11.006c0-6.079,4.928-11.006,11.006-11.006c6.079,0,11.006,4.928,11.006,11.006
			C510.85,186.468,505.922,191.395,499.843,191.395z"/>
		<path id="XMLID_165_" style="fill:#ECF0F1;" d="M660.201,205.932L660.201,205.932c-2.637-0.769-3.885-3.781-2.564-6.19h0
			c0.918-1.674,0.621-3.753-0.729-5.103l-1.506-1.506l-1.505-1.506c-1.35-1.35-3.429-1.647-5.103-0.729l0,0
			c-2.408,1.321-5.421,0.073-6.19-2.564v0c-0.535-1.833-2.215-3.093-4.124-3.093h-2.129h-2.129c-1.909,0-3.589,1.26-4.124,3.093v0
			c-0.769,2.637-3.781,3.885-6.19,2.564h0c-1.674-0.918-3.753-0.621-5.103,0.729l-1.505,1.506l-1.506,1.506
			c-1.35,1.35-1.647,3.429-0.729,5.103l0,0c1.321,2.408,0.073,5.421-2.564,6.19h0c-1.833,0.535-3.093,2.215-3.093,4.124v2.129v2.129
			c0,1.909,1.26,3.589,3.093,4.124h0c2.637,0.769,3.885,3.781,2.564,6.19c-0.918,1.674-0.621,3.753,0.729,5.103l1.506,1.505
			l1.505,1.506c1.35,1.35,3.429,1.647,5.103,0.729l0,0c2.408-1.321,5.421-0.073,6.19,2.564v0c0.535,1.833,2.215,3.093,4.124,3.093
			h2.129h2.129c1.909,0,3.589-1.26,4.124-3.093v0c0.769-2.637,3.781-3.885,6.19-2.564l0,0c1.674,0.918,3.753,0.621,5.103-0.729
			l1.505-1.506l1.506-1.505c1.35-1.35,1.647-3.429,0.729-5.103c-1.321-2.408-0.073-5.421,2.564-6.19h0
			c1.833-0.535,3.093-2.215,3.093-4.124v-2.129v-2.129C663.294,208.147,662.034,206.467,660.201,205.932z M636.351,223.192
			c-6.079,0-11.006-4.928-11.006-11.006c0-6.079,4.928-11.006,11.006-11.006s11.006,4.928,11.006,11.006
			C647.357,218.264,642.429,223.192,636.351,223.192z"/>
		
			<path id="XMLID_171_" style="fill:none;stroke:#BDC3C7;stroke-width:1.9033;stroke-linecap:round;stroke-linejoin:round;stroke-miterlimit:10;stroke-dasharray:0,8.5651;" d="
			M115.729,254.332c0,0-40.922-42.122,4.283-68.753c45.204-26.631,65.081-2.839,73.224-48.044
			c8.144-45.204,59.8-84.699,118.433-57.576c58.633,27.123,41.994,68.996,108.603,50.915s133.505-21.609,150.972,34.162"/>
		
			<path id="XMLID_172_" style="fill:none;stroke:#BDC3C7;stroke-width:1.9033;stroke-linecap:round;stroke-linejoin:round;stroke-miterlimit:10;stroke-dasharray:0,8.5651;" d="
			M320.426,130.398c0,0,19.324-35.529,78.218-37.432c58.894-1.903,55.124,62.81,112.206,46.315
			c57.082-16.496,132.52-21.83,148.095,36.986"/>
		<g id="XMLID_173_">
			<path id="XMLID_168_" style="fill:#BDC3C7;" d="M208.191,126.095l1.149,2.328c0.126,0.256,0.37,0.433,0.653,0.474l2.569,0.373
				c0.711,0.103,0.995,0.977,0.48,1.479l-1.859,1.812c-0.204,0.199-0.298,0.486-0.249,0.767l0.439,2.559
				c0.121,0.708-0.622,1.248-1.258,0.914l-2.298-1.208c-0.253-0.133-0.554-0.133-0.807,0l-2.298,1.208
				c-0.636,0.334-1.38-0.206-1.258-0.914l0.439-2.559c0.048-0.281-0.045-0.568-0.249-0.767l-1.859-1.812
				c-0.515-0.502-0.231-1.376,0.48-1.479l2.569-0.373c0.282-0.041,0.526-0.218,0.653-0.474l1.149-2.328
				C206.954,125.451,207.873,125.451,208.191,126.095z"/>
			<path id="XMLID_174_" style="fill:#BDC3C7;" d="M223.102,126.095l1.149,2.328c0.126,0.256,0.37,0.433,0.653,0.474l2.569,0.373
				c0.711,0.103,0.995,0.977,0.48,1.479l-1.859,1.812c-0.204,0.199-0.298,0.486-0.249,0.767l0.439,2.559
				c0.122,0.708-0.622,1.248-1.258,0.914l-2.298-1.208c-0.253-0.133-0.554-0.133-0.807,0l-2.298,1.208
				c-0.636,0.334-1.379-0.206-1.258-0.914l0.439-2.559c0.048-0.281-0.045-0.568-0.249-0.767l-1.859-1.812
				c-0.515-0.502-0.231-1.376,0.481-1.479l2.569-0.373c0.282-0.041,0.527-0.218,0.653-0.474l1.149-2.328
				C221.865,125.451,222.784,125.451,223.102,126.095z"/>
			<path id="XMLID_175_" style="fill:#BDC3C7;" d="M238.013,126.095l1.149,2.328c0.126,0.256,0.37,0.433,0.653,0.474l2.569,0.373
				c0.711,0.103,0.995,0.977,0.48,1.479l-1.859,1.812c-0.204,0.199-0.298,0.486-0.249,0.767l0.439,2.559
				c0.121,0.708-0.622,1.248-1.258,0.914l-2.298-1.208c-0.253-0.133-0.554-0.133-0.807,0l-2.298,1.208
				c-0.636,0.334-1.379-0.206-1.258-0.914l0.439-2.559c0.048-0.281-0.045-0.568-0.249-0.767l-1.859-1.812
				c-0.515-0.502-0.231-1.376,0.48-1.479l2.569-0.373c0.282-0.041,0.527-0.218,0.653-0.474l1.149-2.328
				C236.776,125.451,237.695,125.451,238.013,126.095z"/>
			<path id="XMLID_176_" style="fill:#ECF0F1;" d="M252.924,126.095l1.149,2.328c0.126,0.256,0.37,0.433,0.653,0.474l2.569,0.373
				c0.711,0.103,0.995,0.977,0.48,1.479l-1.859,1.812c-0.204,0.199-0.298,0.486-0.249,0.767l0.439,2.559
				c0.122,0.708-0.622,1.248-1.258,0.914l-2.298-1.208c-0.253-0.133-0.554-0.133-0.807,0l-2.298,1.208
				c-0.636,0.334-1.379-0.206-1.258-0.914l0.439-2.559c0.048-0.281-0.045-0.568-0.249-0.767l-1.859-1.812
				c-0.515-0.502-0.231-1.376,0.48-1.479l2.569-0.373c0.282-0.041,0.527-0.218,0.653-0.474l1.149-2.328
				C251.687,125.451,252.606,125.451,252.924,126.095z"/>
			<path id="XMLID_177_" style="fill:#ECF0F1;" d="M267.834,126.095l1.149,2.328c0.126,0.256,0.37,0.433,0.653,0.474l2.569,0.373
				c0.711,0.103,0.995,0.977,0.48,1.479l-1.859,1.812c-0.204,0.199-0.298,0.486-0.249,0.767l0.439,2.559
				c0.121,0.708-0.622,1.248-1.258,0.914l-2.298-1.208c-0.253-0.133-0.554-0.133-0.807,0l-2.298,1.208
				c-0.636,0.334-1.379-0.206-1.258-0.914l0.439-2.559c0.048-0.281-0.045-0.568-0.249-0.767l-1.859-1.812
				c-0.514-0.502-0.231-1.376,0.48-1.479l2.569-0.373c0.282-0.041,0.526-0.218,0.653-0.474l1.149-2.328
				C266.598,125.451,267.516,125.451,267.834,126.095z"/>
		</g>
		<g id="XMLID_179_">
			<path id="XMLID_184_" style="fill:#BDC3C7;" d="M238.013,103.677l1.149,2.328c0.126,0.256,0.37,0.433,0.653,0.474l2.569,0.373
				c0.711,0.103,0.995,0.977,0.48,1.479l-1.859,1.812c-0.204,0.199-0.298,0.486-0.249,0.767l0.439,2.559
				c0.121,0.708-0.622,1.248-1.258,0.914l-2.298-1.208c-0.253-0.133-0.554-0.133-0.807,0l-2.298,1.208
				c-0.636,0.334-1.379-0.206-1.258-0.914l0.439-2.559c0.048-0.281-0.045-0.568-0.249-0.767l-1.859-1.812
				c-0.515-0.502-0.231-1.376,0.48-1.479l2.569-0.373c0.282-0.041,0.527-0.218,0.653-0.474l1.149-2.328
				C236.776,103.033,237.695,103.033,238.013,103.677z"/>
			<path id="XMLID_183_" style="fill:#BDC3C7;" d="M252.924,103.677l1.149,2.328c0.126,0.256,0.37,0.433,0.653,0.474l2.569,0.373
				c0.711,0.103,0.995,0.977,0.48,1.479l-1.859,1.812c-0.204,0.199-0.298,0.486-0.249,0.767l0.439,2.559
				c0.122,0.708-0.622,1.248-1.258,0.914l-2.298-1.208c-0.253-0.133-0.554-0.133-0.807,0l-2.298,1.208
				c-0.636,0.334-1.379-0.206-1.258-0.914l0.439-2.559c0.048-0.281-0.045-0.568-0.249-0.767l-1.859-1.812
				c-0.515-0.502-0.231-1.376,0.48-1.479l2.569-0.373c0.282-0.041,0.527-0.218,0.653-0.474l1.149-2.328
				C251.687,103.033,252.606,103.033,252.924,103.677z"/>
			<path id="XMLID_182_" style="fill:#BDC3C7;" d="M267.834,103.677l1.149,2.328c0.126,0.256,0.37,0.433,0.653,0.474l2.569,0.373
				c0.711,0.103,0.995,0.977,0.48,1.479l-1.859,1.812c-0.204,0.199-0.298,0.486-0.249,0.767l0.439,2.559
				c0.121,0.708-0.622,1.248-1.258,0.914l-2.298-1.208c-0.253-0.133-0.554-0.133-0.807,0l-2.298,1.208
				c-0.636,0.334-1.379-0.206-1.258-0.914l0.439-2.559c0.048-0.281-0.045-0.568-0.249-0.767l-1.859-1.812
				c-0.514-0.502-0.231-1.376,0.48-1.479l2.569-0.373c0.282-0.041,0.526-0.218,0.653-0.474l1.149-2.328
				C266.598,103.033,267.516,103.033,267.834,103.677z"/>
			<path id="XMLID_181_" style="fill:#BDC3C7;" d="M282.745,103.677l1.149,2.328c0.126,0.256,0.37,0.433,0.653,0.474l2.569,0.373
				c0.711,0.103,0.995,0.977,0.48,1.479l-1.859,1.812c-0.204,0.199-0.298,0.486-0.249,0.767l0.439,2.559
				c0.121,0.708-0.622,1.248-1.258,0.914l-2.298-1.208c-0.253-0.133-0.554-0.133-0.807,0l-2.298,1.208
				c-0.636,0.334-1.38-0.206-1.258-0.914l0.439-2.559c0.048-0.281-0.045-0.568-0.249-0.767l-1.859-1.812
				c-0.515-0.502-0.231-1.376,0.48-1.479l2.569-0.373c0.282-0.041,0.526-0.218,0.653-0.474l1.149-2.328
				C281.508,103.033,282.427,103.033,282.745,103.677z"/>
			<path id="XMLID_180_" style="fill:#ECF0F1;" d="M297.656,103.677l1.149,2.328c0.126,0.256,0.37,0.433,0.653,0.474l2.569,0.373
				c0.711,0.103,0.995,0.977,0.48,1.479l-1.859,1.812c-0.204,0.199-0.298,0.486-0.249,0.767l0.439,2.559
				c0.121,0.708-0.622,1.248-1.258,0.914l-2.298-1.208c-0.253-0.133-0.554-0.133-0.807,0l-2.298,1.208
				c-0.636,0.334-1.379-0.206-1.258-0.914l0.439-2.559c0.048-0.281-0.045-0.568-0.249-0.767l-1.859-1.812
				c-0.514-0.502-0.231-1.376,0.48-1.479l2.569-0.373c0.282-0.041,0.526-0.218,0.653-0.474l1.149-2.328
				C296.419,103.033,297.338,103.033,297.656,103.677z"/>
		</g>
		<g id="XMLID_178_">
			<path id="XMLID_191_" style="fill:#BDC3C7;" d="M571.243,120.274c-16.222,0-29.373,10.732-29.373,23.97
				c0,7.838,4.61,14.795,11.738,19.169c-0.246,1.768-1.079,3.835-3.315,5.475c0,0,5.748,2.073,10.407-2.27
				c3.273,1.028,6.825,1.597,10.542,1.597c16.222,0,29.373-10.732,29.373-23.97C600.616,131.006,587.466,120.274,571.243,120.274z"
				/>
			<g id="XMLID_187_">
				<circle id="XMLID_185_" style="fill:#FFFFFF;" cx="558.806" cy="144.829" r="3.497"/>
				<circle id="XMLID_188_" style="fill:#FFFFFF;" cx="571.243" cy="144.829" r="3.497"/>
				<circle id="XMLID_189_" style="fill:#FFFFFF;" cx="583.68" cy="144.829" r="3.497"/>
			</g>
		</g>
		<g id="XMLID_190_">
			<path id="XMLID_196_" style="fill:#BDC3C7;" d="M138.52,153.489c16.222,0,29.373,10.732,29.373,23.97
				c0,7.838-4.611,14.796-11.738,19.169c0.246,1.768,1.079,3.835,3.315,5.474c0,0-5.748,2.073-10.407-2.27
				c-3.273,1.028-6.825,1.597-10.542,1.597c-16.222,0-29.373-10.732-29.373-23.97S122.298,153.489,138.52,153.489z"/>
			<g id="XMLID_192_">
				<circle id="XMLID_195_" style="fill:#FFFFFF;" cx="150.957" cy="178.043" r="3.497"/>
				<circle id="XMLID_194_" style="fill:#FFFFFF;" cx="138.52" cy="178.043" r="3.497"/>
				<circle id="XMLID_193_" style="fill:#FFFFFF;" cx="126.083" cy="178.043" r="3.497"/>
			</g>
		</g>
		<g id="XMLID_198_">
			
				<line id="XMLID_186_" style="fill:none;stroke:#BDC3C7;stroke-width:0.9517;stroke-miterlimit:10;" x1="347.818" y1="79.721" x2="347.818" y2="84.718"/>
			
				<line id="XMLID_197_" style="fill:none;stroke:#BDC3C7;stroke-width:0.9517;stroke-miterlimit:10;" x1="350.316" y1="82.22" x2="345.32" y2="82.22"/>
		</g>
		<g id="XMLID_212_">
			
				<line id="XMLID_214_" style="fill:none;stroke:#BDC3C7;stroke-width:0.9517;stroke-miterlimit:10;" x1="401.299" y1="111.988" x2="401.299" y2="116.984"/>
			
				<line id="XMLID_213_" style="fill:none;stroke:#BDC3C7;stroke-width:0.9517;stroke-miterlimit:10;" x1="403.797" y1="114.486" x2="398.801" y2="114.486"/>
		</g>
		<g id="XMLID_218_">
			
				<line id="XMLID_220_" style="fill:none;stroke:#BDC3C7;stroke-width:0.9517;stroke-miterlimit:10;" x1="670.713" y1="258.746" x2="670.713" y2="263.742"/>
			
				<line id="XMLID_219_" style="fill:none;stroke:#BDC3C7;stroke-width:0.9517;stroke-miterlimit:10;" x1="673.211" y1="261.244" x2="668.214" y2="261.244"/>
		</g>
		<g id="XMLID_215_">
			
				<line id="XMLID_217_" style="fill:none;stroke:#BDC3C7;stroke-width:0.9517;stroke-miterlimit:10;" x1="605.152" y1="175.545" x2="605.152" y2="180.542"/>
			
				<line id="XMLID_216_" style="fill:none;stroke:#BDC3C7;stroke-width:0.9517;stroke-miterlimit:10;" x1="607.65" y1="178.043" x2="602.653" y2="178.043"/>
		</g>
		<g id="XMLID_221_">
			
				<line id="XMLID_223_" style="fill:none;stroke:#BDC3C7;stroke-width:0.9517;stroke-miterlimit:10;" x1="92.056" y1="285.748" x2="92.056" y2="290.744"/>
			
				<line id="XMLID_222_" style="fill:none;stroke:#BDC3C7;stroke-width:0.9517;stroke-miterlimit:10;" x1="94.554" y1="288.246" x2="89.558" y2="288.246"/>
		</g>
		<g id="XMLID_206_">
			
				<line id="XMLID_208_" style="fill:none;stroke:#BDC3C7;stroke-width:0.9517;stroke-miterlimit:10;" x1="142.017" y1="219.333" x2="142.017" y2="224.329"/>
			
				<line id="XMLID_207_" style="fill:none;stroke:#BDC3C7;stroke-width:0.9517;stroke-miterlimit:10;" x1="144.515" y1="221.831" x2="139.518" y2="221.831"/>
		</g>
		<g id="XMLID_200_">
			
				<line id="XMLID_202_" style="fill:none;stroke:#BDC3C7;stroke-width:0.9517;stroke-miterlimit:10;" x1="304.755" y1="125.612" x2="304.755" y2="130.609"/>
			
				<line id="XMLID_201_" style="fill:none;stroke:#BDC3C7;stroke-width:0.9517;stroke-miterlimit:10;" x1="307.253" y1="128.11" x2="302.257" y2="128.11"/>
		</g>
		<g id="XMLID_209_">
			
				<line id="XMLID_211_" style="fill:none;stroke:#BDC3C7;stroke-width:0.9517;stroke-miterlimit:10;" x1="491.641" y1="219.333" x2="491.641" y2="224.329"/>
			
				<line id="XMLID_210_" style="fill:none;stroke:#BDC3C7;stroke-width:0.9517;stroke-miterlimit:10;" x1="494.139" y1="221.831" x2="489.143" y2="221.831"/>
		</g>
		<g id="XMLID_203_">
			
				<line id="XMLID_205_" style="fill:none;stroke:#BDC3C7;stroke-width:0.9517;stroke-miterlimit:10;" x1="451.277" y1="155.913" x2="451.277" y2="160.909"/>
			
				<line id="XMLID_204_" style="fill:none;stroke:#BDC3C7;stroke-width:0.9517;stroke-miterlimit:10;" x1="453.775" y1="158.411" x2="448.779" y2="158.411"/>
		</g>
		<path id="XMLID_199_" style="fill:none;stroke:#BDC3C7;stroke-width:0.9517;stroke-miterlimit:10;" d="M171.719,128.388
			c0,1.533-1.243,2.776-2.776,2.776c-1.533,0-2.776-1.243-2.776-2.776c0-1.533,1.243-2.776,2.776-2.776
			C170.476,125.612,171.719,126.855,171.719,128.388z"/>
		
			<circle id="XMLID_225_" style="fill:none;stroke:#BDC3C7;stroke-width:0.9517;stroke-miterlimit:10;" cx="119.811" cy="231.136" r="2.776"/>
		
			<circle id="XMLID_226_" style="fill:none;stroke:#BDC3C7;stroke-width:0.9517;stroke-miterlimit:10;" cx="79.565" cy="315.256" r="2.776"/>
		<path id="XMLID_227_" style="fill:none;stroke:#BDC3C7;stroke-width:0.9517;stroke-miterlimit:10;" d="M284.123,84.718
			c0,1.533-1.243,2.776-2.776,2.776c-1.533,0-2.776-1.243-2.776-2.776c0-1.533,1.243-2.776,2.776-2.776
			C282.881,81.942,284.123,83.185,284.123,84.718z"/>
		
			<circle id="XMLID_228_" style="fill:none;stroke:#BDC3C7;stroke-width:0.9517;stroke-miterlimit:10;" cx="350.316" cy="134.595" r="2.776"/>
		
			<circle id="XMLID_229_" style="fill:none;stroke:#BDC3C7;stroke-width:0.9517;stroke-miterlimit:10;" cx="427.5" cy="144.829" r="2.776"/>
		
			<circle id="XMLID_230_" style="fill:none;stroke:#BDC3C7;stroke-width:0.9517;stroke-miterlimit:10;" cx="625.344" cy="169.383" r="2.776"/>
		
			<circle id="XMLID_231_" style="fill:none;stroke:#BDC3C7;stroke-width:0.9517;stroke-miterlimit:10;" cx="504.136" cy="242.293" r="2.776"/>
	</g>
</g>
</svg>
