<?xml version="1.0" encoding="utf-8"?>
<!-- Generator: Adobe Illustrator 27.5.0, SVG Export Plug-In . SVG Version: 6.00 Build 0)  -->
<svg version="1.1" xmlns="http://www.w3.org/2000/svg" xmlns:xlink="http://www.w3.org/1999/xlink" x="0px" y="0px"
	 viewBox="0 0 2000 2000" style="enable-background:new 0 0 2000 2000;" xml:space="preserve">
<g id="BACKGROUND">
	<rect style="fill:#FFFFFF;" width="2000" height="2000"/>
</g>
<g id="OBJECTS">
	<g>
		<g>
			<g>
				<path style="fill:#F7F0E3;" d="M1711.27,1322.952c-24.102-54.821-70.388-100.567-125.988-123.083
					c-57.914-23.453-124.411-14.915-185.411-22.771c-52.979-6.823-91.204-30.474-122.838-72.524
					c-30.31-40.291-57.487-84.912-107.045-103.549c-39.159-14.726-83.679-10.645-122.598,4.701
					c-71.715,28.276-125.881,88.4-171.499,148.296c-41.65,54.687-75.622,114.569-152.661,116.522
					c-77.088,1.955-150.477-42.018-228.095-30.367c-102.584,15.4-188.015,100.798-205.918,202.464
					c-16.778,95.283,25.324,187.696,97.653,241.994h1243.221C1721.231,1587.95,1769.056,1454.388,1711.27,1322.952z"/>
				<g>
					<path style="fill:#FFFFFF;" d="M587.418,1684.636h3.42c23.751-26.105,42.356-57.782,54.183-92.944
						c19.143-56.912,18.336-116.638-2.272-168.179c-10.415-26.047-25.454-50.322-39.998-73.799
						c-14.751-23.809-30.002-48.428-40.354-74.81c-4.28-10.909-7.442-22.622-9.344-34.571c-0.857-0.112-1.715-0.204-2.573-0.308
						c1.911,12.376,5.162,24.508,9.59,35.792c10.433,26.594,25.746,51.311,40.555,75.215c14.487,23.384,29.468,47.566,39.801,73.408
						c20.388,50.991,21.178,110.105,2.224,166.455C630.678,1626.494,611.683,1658.467,587.418,1684.636z"/>
					<path style="fill:#FFFFFF;" d="M1624.084,1576.213c25.616,5.458,50.301,10.353,74.173,13.432
						c0.41-0.788,0.807-1.581,1.211-2.372c-24.071-3.06-48.986-7.993-74.861-13.506c-39.399-8.394-82.043-17.48-124.338-17.48
						c-26.187,0-52.239,3.484-77.302,12.771c-9.495,3.518-18.645,7.981-27.356,13.298c-22.627-9.644-45.376-20.173-67.913-31.731
						c16.353-12.319,32.876-24.382,49.578-36.045c123.979-86.571,238.396-135.651,348.937-149.581
						c-0.222-0.81-0.454-1.619-0.683-2.429c-110.835,14.044-225.504,63.248-349.684,149.959
						c-17.056,11.912-33.928,24.238-50.615,36.824c-25.344-13.093-50.383-27.483-74.619-43.362
						c-43.955-28.801-96.24-69.912-141.902-124.536c176.948-19.851,357.102-44.863,504.219-143.188
						c5.587-3.734,11.776-8.137,18.187-13.131c-0.71-0.504-1.426-1-2.142-1.496c-6.144,4.759-12.069,8.962-17.434,12.547
						c-147.08,98.301-327.566,123.12-504.744,142.969c-32.266-39.028-61.096-84.871-81.13-137.942
						c-31.208-82.668-29.561-163.794,4.521-222.576c1.48-2.553,3.043-5.066,4.654-7.554c-1.424,0.653-2.834,1.331-4.244,2.009
						c-0.877,1.421-1.738,2.849-2.574,4.29c-34.459,59.436-36.172,141.34-4.697,224.714c19.927,52.783,48.499,98.445,80.503,137.388
						c-10.256,1.147-20.515,2.28-30.742,3.408c-36.895,4.072-75.048,8.284-112.094,13.052c-13.523,1.741-27.274,3.772-40.957,6.316
						c-29.333-61.907-61.553-122.303-103.204-174.097c-0.595,0.594-1.202,1.17-1.803,1.755
						c41.294,51.402,73.314,111.346,102.467,172.82c-59.68,11.382-117.632,32.778-148.574,82.581
						c-28.898,46.509-28.872,110.798,0.078,191.084c1.001,2.775,2.032,5.514,3.078,8.232h2.678
						c-1.146-2.973-2.286-5.979-3.404-9.082c-28.677-79.529-28.779-143.088-0.305-188.916
						c30.575-49.209,88.208-70.32,147.556-81.565c10.355,21.904,20.358,43.989,30.3,65.938l1.082,2.388
						c34.526,76.218,70.236,149.774,116.994,211.238h3.12c-47.182-61.578-83.094-135.574-117.836-212.268l-1.081-2.388
						c-9.857-21.763-19.777-43.66-30.038-65.381c13.419-2.48,26.905-4.468,40.171-6.174c37.023-4.766,75.162-8.977,112.047-13.047
						c10.771-1.189,21.567-2.38,32.373-3.589c46.096,55.479,99.048,97.161,143.506,126.292
						c23.972,15.706,48.728,29.961,73.779,42.944c-42.527,32.166-83.894,66.008-124.282,99.053
						c-13.986,11.442-28.132,23.002-42.39,34.558h3.964c13.449-10.911,26.804-21.822,40.008-32.624
						c40.674-33.274,82.334-67.358,125.164-99.714c22.41,11.528,45.032,22.041,67.539,31.67
						c-30.793,19.583-55.886,49.907-71.06,86.731c-1.9,4.61-3.559,9.265-5.095,13.938h2.632c1.45-4.352,3.004-8.689,4.775-12.986
						c15.215-36.924,40.52-67.219,71.548-86.489c62.917,26.729,124.753,46.572,177.886,62.292l2,0.591
						c22.391,6.62,45.292,13.405,65.549,24.303c0.566-0.646,1.135-1.289,1.698-1.938c-20.586-11.169-43.825-18.047-66.538-24.763
						l-2-0.591c-52.593-15.562-113.718-35.161-175.962-61.494c8.11-4.827,16.597-8.904,25.383-12.161
						C1488.699,1547.366,1560.627,1562.693,1624.084,1576.213z"/>
					<path style="fill:#FFFFFF;" d="M393.137,1414.275c11.042,45.198,6.116,94.009-13.517,133.921
						c-12.859,26.143-31.429,49.809-54.302,70.134c0.455,0.708,0.92,1.409,1.382,2.113c23.244-20.593,42.11-44.604,55.164-71.143
						c19.888-40.43,24.882-89.861,13.701-135.618c-8.735-35.752-26.295-66.034-50.556-87.944c-0.541,0.636-1.078,1.275-1.612,1.917
						C367.254,1349.226,384.531,1379.051,393.137,1414.275z"/>
				</g>
			</g>
			<path style="fill:#F7F0E3;" d="M958.958,841.716c21.779,22.255,31.54,59.747,19.532,94.314
				c-11.627,33.47-37.116,61.194-67.739,79.017c-24.639,14.34-56.779,22.251-81.011,7.234
				c-18.108-11.222-27.498-33.238-28.02-54.535c-0.522-21.297,6.64-42.052,15.492-61.429c12.478-27.314,29.271-53.801,54.288-70.411
				C905.984,813.011,938.024,820.324,958.958,841.716z"/>
		</g>
		<g>
			<path style="fill:#E9DDCA;" d="M670.268,451.518h-180.34v-80.564h180.34V451.518z M493.678,447.768h172.84v-73.064h-172.84
				V447.768z"/>
			<path style="fill:#E9DDCA;" d="M552.947,528.562h-180.34v-80.564h180.34V528.562z M376.357,524.812h172.84v-73.064h-172.84
				V524.812z"/>
		</g>
		<g>
			<g>
				<path style="fill:#E49B31;" d="M1696.365,614.408c-11.677-38.829-32.216-74.478-61.617-107.07
					c-29.461-32.592-69.641-59.497-120.54-80.776c-50.899-21.28-115.57-31.919-194.014-31.919
					c-62.575,0-126.348,8.438-191.319,25.315c-65.031,16.938-121.438,41.03-169.283,72.338l62.276,170.979l-33.377,27.039
					l48.407,14.226c47.785-25.01,91.318-43.17,130.6-54.483c39.222-11.251,80.899-16.877,125.091-16.877
					c44.132,0,77.546,10.64,100.24,31.919c22.695,21.341,34.012,46.961,34.012,77.046c0,36.322-11.677,68.547-34.911,96.736
					c-23.353,28.189-49.102,56.684-77.306,85.485c-19.581,19.995-38.623,40.663-57.006,61.943
					c-18.383,21.34-34.671,44.149-48.743,68.608c-14.132,24.398-25.449,50.692-34.012,78.881
					c-8.623,28.189-12.874,59.802-12.874,94.84c0,11.312,0.239,24.765,0.898,40.419c0.11,2.888,0.262,5.703,0.434,8.482h-45.763
					l49.94,33.771h242.817c-1.258-7.521-1.856-16.265-1.856-26.294c0-10.028,0-17.549,0-22.563c0-21.28,4.311-42.253,12.875-62.921
					c8.563-20.668,19.341-40.357,32.216-59.191c12.874-18.772,27.246-36.628,43.234-53.504
					c15.928-16.938,31.258-32.898,45.989-47.94c19.581-19.995,39.821-41.275,60.659-63.838
					c20.839-22.563,39.282-46.289,55.21-71.359c15.928-25.07,29.102-52.281,39.521-81.755
					c10.419-29.412,15.689-61.637,15.689-96.736C1713.85,690.17,1707.982,653.237,1696.365,614.408z"/>
				<path style="fill:#FBC343;" d="M1241.182,621.253c-43.673,0-84.861,5.444-123.623,16.333
					c-38.821,10.948-81.843,28.524-129.068,52.728l-76.399-205.407c47.283-30.299,103.029-53.615,167.297-70.008
					c64.208-16.333,127.233-24.5,189.074-24.5c77.523,0,141.436,10.297,191.737,30.891c50.302,20.594,90.01,46.632,119.126,78.174
					c29.056,31.542,49.354,66.043,60.894,103.621c11.48,37.578,17.28,73.322,17.28,107.231c0,33.968-5.208,65.155-15.505,93.62
					c-10.297,28.524-23.316,54.858-39.057,79.121s-33.968,47.224-54.562,69.061c-20.594,21.837-40.596,42.431-59.948,61.782
					c-14.558,14.558-29.707,30.003-45.449,46.396c-15.801,16.333-30.003,33.613-42.727,51.781
					c-12.723,18.227-23.375,37.282-31.838,57.284c-8.462,20.002-12.723,40.3-12.723,60.894c0,4.853,0,12.132,0,21.837
					s0.592,18.168,1.835,25.447h-239.967c-2.485-12.132-3.965-25.743-4.557-40.892c-0.651-15.15-0.888-28.169-0.888-39.117
					c0-33.909,4.202-64.504,12.723-91.785c8.462-27.281,19.647-52.728,33.613-76.34c13.907-23.671,30.003-45.745,48.171-66.398
					c18.168-20.594,36.986-40.596,56.338-59.947c27.873-27.873,53.32-55.45,76.399-82.731c22.961-27.281,34.501-58.468,34.501-93.62
					c0-29.116-11.185-53.911-33.613-74.564C1317.817,631.55,1284.796,621.253,1241.182,621.253z"/>
			</g>
			<g>
				<path style="fill:#E49B31;" d="M1426.932,1547.005c0,43.778-14.172,77.557-42.516,101.388
					c-28.344,23.879-60.376,35.77-96.146,35.77c-35.818,0-67.851-11.891-96.195-35.77c-28.295-23.83-42.467-57.61-42.467-101.388
					c0-43.729,14.172-77.509,42.468-101.388c43.63-36.819,108.177-45.024,159.259-19.182
					C1396.663,1449.366,1426.932,1495.933,1426.932,1547.005z"/>
				<path style="fill:#FBC343;" d="M1379.432,1547.005c0,43.778-14.172,77.557-42.516,101.388
					c-28.344,23.879-60.376,35.77-96.146,35.77c-35.818,0-67.851-11.891-96.195-35.77c-28.295-23.83-42.467-57.61-42.467-101.388
					c0-43.729,14.172-77.509,42.467-101.388c28.344-23.83,60.376-35.77,96.195-35.77c35.77,0,67.802,11.939,96.146,35.77
					C1365.26,1469.496,1379.432,1503.276,1379.432,1547.005z"/>
			</g>
		</g>
		<g>
			<g>
				
					<ellipse transform="matrix(0.1842 -0.9829 0.9829 0.1842 -387.8709 1375.8049)" style="fill:#D3DFFF;" cx="634.882" cy="921.565" rx="26.15" ry="26.15"/>
				
					<ellipse transform="matrix(0.1842 -0.9829 0.9829 0.1842 -418.9036 1440.8502)" style="fill:#D3DFFF;" cx="658.517" cy="972.773" rx="14.708" ry="14.812"/>
				<g>
					
						<ellipse transform="matrix(0.7071 -0.7071 0.7071 0.7071 -391.4908 634.6572)" style="fill:#D3DFFF;" cx="570.354" cy="789.9" rx="102.961" ry="102.961"/>
					<g>
						<circle style="fill:#FFFFFF;" cx="530.819" cy="789.9" r="12.972"/>
						<circle style="fill:#FFFFFF;" cx="570.354" cy="789.9" r="12.972"/>
						<circle style="fill:#FFFFFF;" cx="609.888" cy="789.9" r="12.972"/>
					</g>
				</g>
			</g>
			<g>
				<g>
					<g>
						<path style="fill:#102048;" d="M496.596,1632.621l9.62,37.087c2.509,9.672,11.86,16.207,22.206,15.504
							c31.543-2.144,97.081-9.871,134.696-37.596l-10.693-53.45c-51.718-2.922-100.085-0.045-141.965,14.053
							C499.974,1611.75,493.909,1622.261,496.596,1632.621z"/>
						<path style="fill:#FFFFFF;" d="M556.875,1662.143c-0.547,0-1.049-0.361-1.204-0.914l-12.917-46.25
							c-0.186-0.665,0.203-1.354,0.868-1.54c0.669-0.184,1.355,0.203,1.541,0.868l12.917,46.25c0.185,0.665-0.203,1.354-0.868,1.54
							C557.099,1662.128,556.985,1662.143,556.875,1662.143z"/>
						<path style="fill:#FFFFFF;" d="M584.791,1655.893c-0.547,0-1.049-0.361-1.204-0.914l-12.917-46.25
							c-0.185-0.665,0.203-1.354,0.868-1.54c0.67-0.187,1.355,0.203,1.541,0.868l12.917,46.25c0.186,0.665-0.203,1.354-0.868,1.54
							C585.015,1655.878,584.902,1655.893,584.791,1655.893z"/>
					</g>
					<polygon style="fill:#FBC343;" points="617.214,1432.143 497.01,1467.818 586.279,1590.131 714.437,1600.324 891.206,1525.577 
						824.034,1424.498 					"/>
					<path style="fill:#FBC343;" d="M765.405,1449.131c263.976-78.145,306.4,155.157-105.472,197.627
						c-14.548-16.37-31.549-44.775-38.3-68.518l217.504-100.512L765.405,1449.131z"/>
					<path style="fill:#F9B384;" d="M776.618,1616.335c-12.345-3.953-24.176-11.764-24.176-11.764l-42.425,13.307l9.722,46.151
						l44.072,8.955C777.237,1648.427,778.021,1628.265,776.618,1616.335z"/>
					<path style="fill:#E49B31;" d="M622.575,1579.86l-1.884-3.242c45.375-26.371,161.603-89.724,260.628-108.408l0.695,3.686
						C783.56,1490.472,667.783,1553.587,622.575,1579.86z"/>
					<path style="fill:#FBC343;" d="M617.214,1432.143c-245.71-46.717-309.347,189.416,102.526,231.886
						c14.548-16.37,25.951-35.714,32.702-59.458c-63.267-42.333-134.006-82.569-211.534-120.898L617.214,1432.143z"/>
					<path style="fill:#E49B31;" d="M751.435,1606.153c-11.688-7.439-23.867-15.304-36.761-23.629
						c-64.727-41.791-138.09-89.158-200.42-116.168l1.491-3.441c62.614,27.133,136.114,74.589,200.962,116.459
						c12.889,8.322,25.063,16.183,36.741,23.615L751.435,1606.153z"/>
					<path style="fill:#E49B31;" d="M436.938,1549.224l-3.282-1.813c9.223-16.697,23.996-27.96,43.908-33.474l1.001,3.613
						C459.394,1522.86,445.778,1533.221,436.938,1549.224z"/>
					<path style="fill:#E49B31;" d="M949.771,1535.008c-8.84-16.002-22.456-26.362-41.627-31.673l1.001-3.613
						c19.913,5.515,34.685,16.777,43.908,33.474L949.771,1535.008z"/>
					<path style="fill:#E49B31;" d="M696.731,1661.955l-2.741-2.559c19.655-21.051,31.727-43.273,36.905-67.938l3.67,0.77
						C729.243,1617.582,716.867,1640.391,696.731,1661.955z"/>
					<g>
						<path style="fill:#102048;" d="M899.161,1602.589c-31.48-19.449-92.509,14.157-107.829,15.856
							c-4.466,0.495-9.633-0.482-14.714-2.109c1.403,11.929,0.619,32.091-12.806,56.648l7.486,1.521c0,0,51.752,18.97,106.651,7.928
							C928.622,1672.24,923.909,1617.878,899.161,1602.589z"/>
						<path style="fill:#FFFFFF;" d="M856.25,1666.205c-0.125,0-0.251-0.019-0.377-0.058c-0.658-0.208-1.023-0.91-0.815-1.568
							c3.74-11.843,5.372-35.141-5.461-50.787c-0.393-0.568-0.251-1.347,0.316-1.739c0.566-0.395,1.346-0.253,1.739,0.315
							c11.344,16.386,9.677,40.651,5.789,52.963C857.273,1665.864,856.781,1666.205,856.25,1666.205z"/>
						<path style="fill:#FFFFFF;" d="M831.563,1670.893c-0.125,0-0.251-0.019-0.377-0.058c-0.658-0.208-1.023-0.91-0.815-1.568
							c3.74-11.843,5.372-35.141-5.461-50.787c-0.393-0.568-0.251-1.347,0.316-1.739c0.566-0.394,1.345-0.253,1.739,0.315
							c11.344,16.386,9.677,40.651,5.789,52.963C832.586,1670.552,832.094,1670.893,831.563,1670.893z"/>
					</g>
				</g>
				<g>
					<g>
						<path style="fill:#F9B384;" d="M573.744,1127.68c0,0,61.881-52.62,59.59-62.62c-1.638-7.146-19.167,3.333-19.167,3.333
							s24.583-29.167,23.333-32.708c-2.234-6.329-19.236,5.468-19.236,5.468s11.492-16.541,5.998-19.236
							c-5.494-2.695-17.472,7.498-17.472,7.498s6.998-9.184,3.71-11.593c-3.288-2.41-17.472,7.498-17.472,7.498
							s5.09-11.58-5.723-7.19s-86.633,73.97-86.633,73.97L573.744,1127.68z"/>
						<g>
							<path style="fill:#E28B6D;" d="M599.062,1065.268c-0.301,0-0.603-0.108-0.843-0.327
								c-10.622-9.705-15.305-12.061-27.024-15.666c-0.66-0.202-1.03-0.902-0.827-1.562c0.203-0.66,0.902-1.032,1.563-0.827
								c12.142,3.734,16.991,6.173,27.976,16.209c0.51,0.466,0.545,1.257,0.08,1.766
								C599.739,1065.131,599.401,1065.268,599.062,1065.268z"/>
							<path style="fill:#E28B6D;" d="M580.418,1093.81c-0.058,0-0.116-0.004-0.174-0.012c-0.684-0.096-1.161-0.728-1.065-1.411
								c1.216-8.701,3.955-14.139,8.374-16.623c3.777-2.125,8.692-1.906,14.609,0.648c0.634,0.273,0.926,1.009,0.652,1.643
								c-0.273,0.634-1.009,0.928-1.643,0.652c-5.161-2.229-9.33-2.486-12.393-0.764c-3.641,2.047-6.038,7.023-7.123,14.789
								C581.567,1093.357,581.032,1093.81,580.418,1093.81z"/>
							<path style="fill:#E28B6D;" d="M577.5,1041.205c-0.332,0-0.664-0.132-0.91-0.393c-0.474-0.503-0.45-1.294,0.052-1.767
								l15.528-14.635c0.502-0.476,1.293-0.45,1.767,0.052c0.474,0.503,0.45,1.294-0.052,1.767l-15.528,14.635
								C578.116,1041.093,577.808,1041.205,577.5,1041.205z"/>
							<path style="fill:#E28B6D;" d="M591.875,1046.205c-0.312,0-0.623-0.115-0.866-0.349c-0.498-0.478-0.514-1.269-0.036-1.767
								l14.915-15.54c0.478-0.5,1.269-0.516,1.768-0.036c0.498,0.478,0.514,1.269,0.036,1.767l-14.915,15.54
								C592.531,1046.076,592.203,1046.205,591.875,1046.205z"/>
							<path style="fill:#E28B6D;" d="M606.562,1054.955c-0.305,0-0.611-0.111-0.852-0.336c-0.505-0.471-0.533-1.262-0.062-1.767
								l11.702-12.553c0.472-0.503,1.261-0.532,1.767-0.062c0.505,0.471,0.533,1.262,0.062,1.767l-11.702,12.553
								C607.23,1054.821,606.897,1054.955,606.562,1054.955z"/>
						</g>
					</g>
					<g>
						<path style="fill:#3A6BEA;" d="M807.5,1479.636l-226.25,8.75l-25-206.25c0,0,75.743-71.842,104.884-98.298l49.195-2.523
							C862.96,1250.693,837.967,1337.343,807.5,1479.636z"/>
						<path style="fill:#3A6BEA;" d="M710.329,1181.315c0,0,174.621,14.933,229.671,134.571
							c53.867,117.065-167.5,158.75-167.5,158.75L710.329,1181.315z"/>
						<path style="fill:#3A6BEA;" d="M510.726,1206.952l72.159-87.812l-67.478-40.894c-28.148,19.572-82.58,63.902-128.709,114.102
							c-10.182,11.081-18.135,24.023-22.141,38.274c-3.418,12.161-4.039,24.172-2.118,35.934v0
							c5.007,30.655,29.121,54.312,61.31,58.081c27.491,3.219,132.5-5,217.5-30l25-96.49
							C653.403,1190.857,557.926,1189.591,510.726,1206.952z"/>
					</g>
					<g style="opacity:0.8;">
						<path style="fill:#FFFFFF;" d="M856.055,1228.793c0.376-0.086,0.753-0.172,1.129-0.259c-0.789-0.467-1.581-0.921-2.372-1.38
							c-12.797,2.946-26.001,5.957-39.016,7.527c-7.822,0.942-33.956,2.668-41.594-14.744c-3.8-8.663-0.924-18.297,3.374-25.059
							c-0.628-0.182-1.249-0.358-1.873-0.536c-4.401,7.163-7.226,17.213-3.217,26.347c8.154,18.599,35.387,16.836,43.535,15.852
							C829.412,1234.928,842.956,1231.811,856.055,1228.793z"/>
						<path style="fill:#FFFFFF;" d="M937.548,1363.725c-8.342-3.223-16.96-6.555-26.021-5.701
							c-15.892,1.502-29.492,17.217-30.316,35.032c-0.563,12.147,4.077,24.877,12.924,36.074c0.533-0.333,1.064-0.668,1.593-1.005
							c-8.649-10.88-13.188-23.232-12.644-34.981c0.784-16.919,13.622-31.836,28.619-33.254c8.615-0.798,16.655,2.295,25.168,5.583
							c3.039,1.174,6.128,2.357,9.267,3.363c0.162-0.604,0.319-1.21,0.465-1.821
							C943.544,1366.031,940.522,1364.874,937.548,1363.725z"/>
						<path style="fill:#FFFFFF;" d="M496.799,1304.094c-10.902-9.016-27.842-11.426-46.467-6.611
							c-16.599,4.294-30.841,12.798-40.625,24.053c0.643,0.207,1.271,0.442,1.923,0.632c9.519-10.677,23.23-18.747,39.17-22.869
							c18.035-4.668,34.369-2.388,44.805,6.24c4.96,4.101,8.467,9.426,11.016,15.173c0.644-0.073,1.29-0.148,1.938-0.223
							C505.891,1314.307,502.172,1308.536,496.799,1304.094z"/>
						<path style="fill:#FFFFFF;" d="M398.243,1180.085c20.428-5.076,40.362-12.205,58.748-22.796
							c6.947-4.001,14.792-9.104,20.309-16.594c5.869-7.971,7.819-17.461,5.217-25.383c-1.021-3.107-2.828-5.836-5.087-8.023
							c-0.478,0.391-0.961,0.787-1.442,1.183c2.109,2.007,3.799,4.537,4.747,7.426c2.413,7.346,0.565,16.201-4.944,23.684
							c-5.311,7.212-12.956,12.178-19.735,16.082c-17.342,9.99-36.1,16.899-55.368,21.89
							C399.871,1178.394,399.057,1179.239,398.243,1180.085z"/>
					</g>
					<g>
						<path style="fill:#F9B384;" d="M726.31,1135.46l-0.032,3.201l-0.507,49.73l-0.063,5.388c-0.095,8.431-3.55,16.07-9.128,21.616
							c-5.547,5.515-13.185,8.97-21.648,9.033c-17.052,0.095-30.998-13.598-31.156-30.681l-0.602-61.458L726.31,1135.46z"/>
						<path style="fill:#102048;" d="M726.278,1138.662l-0.507,49.73c-27.639-11.252-39.017-41.173-39.017-41.173L726.278,1138.662z
							"/>
						<path style="fill:#F9B384;" d="M737.213,1051.88c9.905,11.886,38.827,79.239,9.509,102.218
							c-32.992,25.858-83.201-16.64-83.201-16.64l-6.735-78.446l43.581-11.49L737.213,1051.88z"/>
						<path style="fill:#102048;" d="M634.583,1047.559c0,0-96.667,50.417-17.847,195.747
							c10.123,18.666,32.546,26.814,51.728,17.706h0c20.577-9.77,28.368-34.908,17.195-54.758
							c-12.893-22.904-25.337-52.397-20.025-74.344L634.583,1047.559z"/>
						
							<ellipse transform="matrix(0.7071 -0.7071 0.7071 0.7071 -569.0732 768.986)" style="fill:#FBC343;" cx="643.712" cy="1071.425" rx="26.149" ry="26.149"/>
						<path style="fill:#102048;" d="M675.88,1102.844c-2.825-16.314-4.547-27.501,11.941-35.909c0,0,58.108,10.565,69.202-11.358
							c11.093-21.923-5.811-56.523-41.204-32.488c-90.596-17.697-102.746,67.089-75.277,95.351l27.112-4.161
							C673.11,1113.442,676.821,1108.282,675.88,1102.844z"/>
						<g>
							<circle style="fill:#102048;" cx="720.87" cy="1102.89" r="3.863"/>
							<circle style="fill:#102048;" cx="747.019" cy="1090.013" r="3.863"/>
							<path style="fill:#102048;" d="M744.345,1114.779c-0.271,0-0.542-0.1-0.753-0.301c-0.438-0.416-0.456-1.108-0.039-1.546
								c1.549-1.631,3.246-3.924,2.533-5.586c-0.741-1.726-3.872-2.472-5.306-2.472c-3.082,0-4.562-5.483-4.827-6.582
								c-0.142-0.587,0.219-1.178,0.806-1.319c0.586-0.146,1.178,0.218,1.32,0.806c0.563,2.316,1.837,4.908,2.701,4.908
								c1.475,0,5.986,0.697,7.316,3.796c0.95,2.213-0.045,4.89-2.957,7.955C744.923,1114.665,744.634,1114.779,744.345,1114.779z"
								/>
							<path style="fill:#102048;" d="M744.542,1129.438c-0.211,0-0.423-0.061-0.611-0.188c-7.273-4.908-14.617-0.792-14.691-0.75
								c-0.522,0.301-1.191,0.122-1.494-0.403c-0.301-0.523-0.121-1.192,0.403-1.493c0.348-0.2,8.613-4.831,17.005,0.834
								c0.5,0.338,0.633,1.018,0.295,1.519C745.238,1129.27,744.893,1129.438,744.542,1129.438z"/>
							<path style="fill:#102048;" d="M719.178,1086.159c2.198,4.136-1.632,4.966-6.119,7.35s-9.081,3.257-10.129,1.284
								c-1.048-1.973,1.739-5.505,6.226-7.889S717.477,1082.957,719.178,1086.159z"/>
							<path style="fill:#102048;" d="M735.542,1078.693c0.966,3.692,3.719,2.075,7.724,1.027s7.24-3.061,6.779-4.821
								c-0.461-1.761-4.081-2.339-8.086-1.291C737.954,1074.655,734.794,1075.835,735.542,1078.693z"/>
						</g>
						
							<ellipse transform="matrix(0.7351 -0.678 0.678 0.7351 -573.706 773.5887)" style="opacity:0.4;fill:#EB5D60;" cx="703.042" cy="1120.916" rx="11.391" ry="11.391"/>
						
							<ellipse transform="matrix(0.6109 -0.7917 0.7917 0.6109 -630.7401 958.4537)" style="fill:#F9B384;" cx="659.785" cy="1120.958" rx="15.427" ry="17.53"/>
						<path style="fill:#102048;" d="M666.563,1126.674c-0.604,0-1.094-0.489-1.094-1.094c0-3.229-1.574-6.214-4.21-7.985
							c-2.254-1.517-4.942-1.872-7.188-0.957c-0.56,0.225-1.198-0.04-1.426-0.6c-0.228-0.56,0.04-1.197,0.6-1.426
							c2.921-1.191,6.374-0.757,9.235,1.167c3.242,2.178,5.177,5.842,5.177,9.801
							C667.656,1126.185,667.167,1126.674,666.563,1126.674z"/>
					</g>
					<g>
						
							<rect x="461.915" y="1227.047" transform="matrix(0.6788 -0.7343 0.7343 0.6788 -744.2449 755.0284)" style="fill:#102048;" width="58.145" height="2.5"/>
						<path style="fill:#102048;" d="M787.864,1389.588l-0.729-2.391c28.733-8.757,56.618-19.234,81.888-50.835l1.952,1.561
							C845.26,1370.083,816.988,1380.713,787.864,1389.588z"/>
					</g>
				</g>
				<g>
					<g>
						<path style="fill:#D3DFFF;" d="M805.334,1292.776H560.916c-8.79,0-15.916,7.709-15.916,17.218v174.507
							c0,9.509,7.126,17.218,15.916,17.218h244.419c8.79,0,15.916-7.709,15.916-17.218v-174.507
							C821.25,1300.485,814.124,1292.776,805.334,1292.776z"/>
					</g>
					<g>
						<path style="fill:#1F3C88;" d="M696.028,1386.218c0.928,0,1.68,0.814,1.68,1.818v18.424c0,1.004-0.752,1.818-1.68,1.818
							h-25.806c-0.928,0-1.68-0.814-1.68-1.818v-18.424c0-1.004,0.752-1.818,1.68-1.818H696.028 M696.028,1381.218h-25.806
							c-3.683,0-6.68,3.058-6.68,6.818v18.424c0,3.76,2.997,6.818,6.68,6.818h25.806c3.683,0,6.68-3.058,6.68-6.818v-18.424
							C702.708,1384.276,699.711,1381.218,696.028,1381.218L696.028,1381.218z"/>
					</g>
				</g>
			</g>
		</g>
		<rect x="280.261" y="1682.136" style="fill:#102048;" width="1473.676" height="5"/>
	</g>
</g>
</svg>
