<svg width="500" height="250" viewBox="0 0 500 250" fill="none" xmlns="http://www.w3.org/2000/svg">
<rect width="500" height="250" fill="black"/>
<path d="M146.543 83.0625L148.203 89H153.984L144.844 60.5625H139.863L130.547 89H136.328L138.008 83.0625H146.543ZM139.355 78.3945L142.344 67.9258L145.254 78.3945H139.355ZM157.91 59V63.4336H164.238V84.5859H157.91V89H175.781V84.5859H169.727V59H157.91ZM180.254 78.2773V78.6875C180.254 80.224 180.449 81.6497 180.84 82.9648C181.243 84.2669 181.816 85.3932 182.559 86.3438C183.301 87.2943 184.193 88.043 185.234 88.5898C186.289 89.1237 187.474 89.3906 188.789 89.3906C189.453 89.3906 190.072 89.319 190.645 89.1758C191.23 89.0326 191.764 88.8307 192.246 88.5703C192.572 88.388 192.878 88.1797 193.164 87.9453C193.451 87.7109 193.724 87.4505 193.984 87.1641V88.375C193.984 89.0911 193.88 89.7357 193.672 90.3086C193.477 90.8815 193.19 91.3633 192.812 91.7539C192.396 92.1836 191.875 92.5091 191.25 92.7305C190.638 92.9518 189.935 93.0625 189.141 93.0625C188.646 93.0625 188.164 93.0104 187.695 92.9062C187.24 92.8151 186.797 92.6719 186.367 92.4766C185.924 92.2812 185.501 92.0273 185.098 91.7148C184.694 91.4154 184.316 91.0638 183.965 90.6602L181.523 93.9609C181.979 94.5469 182.526 95.0482 183.164 95.4648C183.802 95.8945 184.479 96.2461 185.195 96.5195C185.911 96.793 186.634 96.9948 187.363 97.125C188.092 97.2552 188.776 97.3203 189.414 97.3203C190.898 97.3203 192.253 97.1185 193.477 96.7148C194.714 96.3242 195.775 95.7448 196.66 94.9766C197.533 94.2083 198.21 93.2643 198.691 92.1445C199.186 91.0247 199.434 89.7487 199.434 88.3164V67.8672H194.492L194.277 69.8789C194.017 69.5534 193.73 69.2604 193.418 69C193.105 68.7266 192.767 68.4922 192.402 68.2969C191.921 68.0234 191.38 67.8216 190.781 67.6914C190.195 67.5482 189.544 67.4766 188.828 67.4766C187.5 67.4766 186.309 67.737 185.254 68.2578C184.199 68.7786 183.301 69.5143 182.559 70.4648C181.816 71.4154 181.243 72.5547 180.84 73.8828C180.449 75.2109 180.254 76.6758 180.254 78.2773ZM185.703 78.6875V78.2773C185.703 77.3919 185.794 76.5651 185.977 75.7969C186.159 75.0156 186.439 74.332 186.816 73.7461C187.181 73.1732 187.643 72.724 188.203 72.3984C188.763 72.0599 189.427 71.8906 190.195 71.8906C190.612 71.8906 190.996 71.9297 191.348 72.0078C191.712 72.0859 192.044 72.1966 192.344 72.3398C192.695 72.5091 193.008 72.7305 193.281 73.0039C193.555 73.2773 193.789 73.5964 193.984 73.9609V82.9062C193.802 83.2318 193.587 83.5247 193.34 83.7852C193.092 84.0456 192.806 84.2669 192.48 84.4492C192.168 84.6185 191.816 84.7487 191.426 84.8398C191.048 84.931 190.625 84.9766 190.156 84.9766C189.388 84.9766 188.724 84.8138 188.164 84.4883C187.604 84.1628 187.142 83.7135 186.777 83.1406C186.413 82.5807 186.139 81.9232 185.957 81.168C185.788 80.3997 185.703 79.5729 185.703 78.6875ZM204.082 78.2383V78.6484C204.082 80.1979 204.303 81.6302 204.746 82.9453C205.189 84.2474 205.84 85.3802 206.699 86.3438C207.546 87.3073 208.587 88.0625 209.824 88.6094C211.074 89.1432 212.493 89.4102 214.082 89.4102C215.658 89.4102 217.064 89.1432 218.301 88.6094C219.538 88.0625 220.579 87.3073 221.426 86.3438C222.272 85.3802 222.917 84.2474 223.359 82.9453C223.802 81.6302 224.023 80.1979 224.023 78.6484V78.2383C224.023 76.7018 223.802 75.2826 223.359 73.9805C222.917 72.6654 222.272 71.526 221.426 70.5625C220.566 69.599 219.518 68.8438 218.281 68.2969C217.044 67.75 215.632 67.4766 214.043 67.4766C212.454 67.4766 211.042 67.75 209.805 68.2969C208.581 68.8438 207.546 69.599 206.699 70.5625C205.84 71.526 205.189 72.6654 204.746 73.9805C204.303 75.2826 204.082 76.7018 204.082 78.2383ZM209.512 78.6484V78.2383C209.512 77.3789 209.596 76.5651 209.766 75.7969C209.935 75.0286 210.202 74.3516 210.566 73.7656C210.931 73.1797 211.4 72.7174 211.973 72.3789C212.546 72.0404 213.236 71.8711 214.043 71.8711C214.863 71.8711 215.56 72.0404 216.133 72.3789C216.706 72.7174 217.174 73.1797 217.539 73.7656C217.891 74.3516 218.151 75.0286 218.32 75.7969C218.49 76.5651 218.574 77.3789 218.574 78.2383V78.6484C218.574 79.5339 218.49 80.3672 218.32 81.1484C218.151 81.9167 217.891 82.5872 217.539 83.1602C217.174 83.7461 216.706 84.2083 216.133 84.5469C215.56 84.8854 214.876 85.0547 214.082 85.0547C213.262 85.0547 212.559 84.8854 211.973 84.5469C211.4 84.2083 210.931 83.7461 210.566 83.1602C210.202 82.5872 209.935 81.9167 209.766 81.1484C209.596 80.3672 209.512 79.5339 209.512 78.6484ZM244.023 67.4766C242.604 67.4766 241.296 67.8216 240.098 68.5117C238.9 69.1888 237.871 70.1263 237.012 71.3242L236.973 70.8555L236.758 67.8672H231.699V89H237.129V76.3047C237.376 75.7057 237.689 75.1849 238.066 74.7422C238.444 74.2995 238.9 73.9349 239.434 73.6484C239.876 73.401 240.378 73.2188 240.938 73.1016C241.51 72.9714 242.148 72.9062 242.852 72.9062C243.529 72.9062 244.238 72.9518 244.98 73.043C245.736 73.1211 246.471 73.2448 247.188 73.4141L247.988 68.0039C247.559 67.8737 246.992 67.7565 246.289 67.6523C245.599 67.5352 244.844 67.4766 244.023 67.4766ZM254.316 67.8672V72.3008H260.332V84.5859H254.316V89H271.543V84.5859H265.82V67.8672H254.316ZM259.941 62.457C259.941 62.8737 260.013 63.2643 260.156 63.6289C260.312 63.9805 260.527 64.2799 260.801 64.5273C261.074 64.7878 261.4 64.9896 261.777 65.1328C262.168 65.276 262.598 65.3477 263.066 65.3477C264.03 65.3477 264.792 65.0807 265.352 64.5469C265.924 64 266.211 63.3034 266.211 62.457C266.211 61.6107 265.924 60.9206 265.352 60.3867C264.792 59.8398 264.03 59.5664 263.066 59.5664C262.598 59.5664 262.168 59.638 261.777 59.7812C261.4 59.9245 261.074 60.1198 260.801 60.3672C260.527 60.6276 260.312 60.9401 260.156 61.3047C260.013 61.6562 259.941 62.0404 259.941 62.457ZM286.855 62.6914H281.426V67.8672H276.602V71.8711H281.426V81.4805C281.426 82.8737 281.608 84.0716 281.973 85.0742C282.337 86.0638 282.858 86.8776 283.535 87.5156C284.199 88.1667 285 88.6484 285.938 88.9609C286.888 89.2604 287.943 89.4102 289.102 89.4102C289.701 89.4102 290.306 89.3776 290.918 89.3125C291.543 89.2604 292.142 89.1823 292.715 89.0781C293.288 88.974 293.828 88.8438 294.336 88.6875C294.844 88.5182 295.286 88.3229 295.664 88.1016L295.137 84.3711C294.889 84.4362 294.59 84.5013 294.238 84.5664C293.9 84.6315 293.535 84.6901 293.145 84.7422C292.741 84.8073 292.318 84.8594 291.875 84.8984C291.445 84.9375 291.022 84.957 290.605 84.957C290.033 84.957 289.512 84.8919 289.043 84.7617C288.587 84.6315 288.197 84.4102 287.871 84.0977C287.546 83.7982 287.292 83.3945 287.109 82.8867C286.94 82.3659 286.855 81.7214 286.855 80.9531V71.8711H294.746V67.8672H286.855V62.6914ZM306.348 70.7773V59H300.918V89H306.348V73.7461C306.556 73.4727 306.784 73.2253 307.031 73.0039C307.292 72.7826 307.578 72.5938 307.891 72.4375C308.229 72.2552 308.607 72.1185 309.023 72.0273C309.44 71.9362 309.889 71.8906 310.371 71.8906C310.996 71.8906 311.556 71.9753 312.051 72.1445C312.546 72.3008 312.969 72.5482 313.32 72.8867C313.672 73.2253 313.939 73.668 314.121 74.2148C314.316 74.7617 314.414 75.4128 314.414 76.168V89H319.844V76.207C319.844 74.6576 319.655 73.3359 319.277 72.2422C318.913 71.1354 318.398 70.2305 317.734 69.5273C317.07 68.8242 316.276 68.3099 315.352 67.9844C314.427 67.6458 313.411 67.4766 312.305 67.4766C311.549 67.4766 310.833 67.5872 310.156 67.8086C309.479 68.0299 308.861 68.3424 308.301 68.7461C307.936 69.0065 307.585 69.3125 307.246 69.6641C306.921 70.0026 306.621 70.3737 306.348 70.7773ZM328.32 67.8672H323.652V89H328.594V73.1797C328.659 73.0104 328.73 72.8542 328.809 72.7109C328.887 72.5677 328.978 72.444 329.082 72.3398C329.225 72.1966 329.388 72.0859 329.57 72.0078C329.753 71.9297 329.961 71.8906 330.195 71.8906C330.404 71.8906 330.599 71.9232 330.781 71.9883C330.964 72.0404 331.126 72.138 331.27 72.2812C331.4 72.4245 331.504 72.6263 331.582 72.8867C331.66 73.1471 331.699 73.4792 331.699 73.8828V89H336.484V73.4141C336.484 73.2578 336.484 73.1341 336.484 73.043C336.484 72.9518 336.484 72.8932 336.484 72.8672C336.549 72.724 336.628 72.6003 336.719 72.4961C336.81 72.3789 336.914 72.2747 337.031 72.1836C337.174 72.0924 337.324 72.0208 337.48 71.9688C337.65 71.9167 337.839 71.8906 338.047 71.8906C338.242 71.8906 338.431 71.9232 338.613 71.9883C338.809 72.0404 338.978 72.138 339.121 72.2812C339.264 72.4375 339.375 72.6458 339.453 72.9062C339.544 73.1667 339.59 73.4987 339.59 73.9023V89H344.531V73.9219C344.531 72.75 344.414 71.7604 344.18 70.9531C343.958 70.1328 343.646 69.4622 343.242 68.9414C342.826 68.4336 342.337 68.0625 341.777 67.8281C341.23 67.5938 340.638 67.4766 340 67.4766C339.492 67.4766 339.023 67.5417 338.594 67.6719C338.164 67.8021 337.78 67.9844 337.441 68.2188C337.168 68.401 336.914 68.6224 336.68 68.8828C336.458 69.1302 336.257 69.4102 336.074 69.7227C335.957 69.3971 335.814 69.1107 335.645 68.8633C335.488 68.6029 335.299 68.3815 335.078 68.1992C334.792 67.9518 334.453 67.7695 334.062 67.6523C333.672 67.5352 333.229 67.4766 332.734 67.4766C331.719 67.4766 330.853 67.7435 330.137 68.2773C329.434 68.7982 328.88 69.5143 328.477 70.4258L328.32 67.8672ZM362.598 83.1992C362.598 83.5247 362.513 83.8242 362.344 84.0977C362.188 84.3711 361.947 84.612 361.621 84.8203C361.283 85.0286 360.846 85.1979 360.312 85.3281C359.792 85.4453 359.18 85.5039 358.477 85.5039C357.891 85.5039 357.318 85.4453 356.758 85.3281C356.211 85.2109 355.723 85.0221 355.293 84.7617C354.863 84.5143 354.512 84.1888 354.238 83.7852C353.965 83.3685 353.809 82.8737 353.77 82.3008H348.594C348.594 83.1602 348.802 84.0195 349.219 84.8789C349.648 85.7253 350.273 86.4805 351.094 87.1445C351.914 87.8216 352.93 88.3685 354.141 88.7852C355.365 89.2018 356.771 89.4102 358.359 89.4102C359.805 89.4102 361.113 89.2539 362.285 88.9414C363.457 88.6159 364.46 88.1667 365.293 87.5938C366.113 87.0208 366.745 86.3438 367.188 85.5625C367.643 84.7682 367.871 83.9023 367.871 82.9648C367.871 81.9492 367.643 81.0768 367.188 80.3477C366.745 79.6055 366.126 78.974 365.332 78.4531C364.538 77.9453 363.594 77.5286 362.5 77.2031C361.406 76.8776 360.221 76.6107 358.945 76.4023C358.06 76.2721 357.331 76.1224 356.758 75.9531C356.185 75.7708 355.736 75.569 355.41 75.3477C355.072 75.1393 354.837 74.9049 354.707 74.6445C354.577 74.3711 354.512 74.0781 354.512 73.7656C354.512 73.4531 354.583 73.1602 354.727 72.8867C354.883 72.6003 355.104 72.3529 355.391 72.1445C355.703 71.9102 356.107 71.7279 356.602 71.5977C357.096 71.4674 357.676 71.4023 358.34 71.4023C359.121 71.4023 359.785 71.5 360.332 71.6953C360.892 71.8906 361.335 72.151 361.66 72.4766C361.895 72.724 362.07 73.0039 362.188 73.3164C362.305 73.6159 362.363 73.9414 362.363 74.293H367.793C367.793 73.3164 367.578 72.4115 367.148 71.5781C366.719 70.7448 366.1 70.0221 365.293 69.4102C364.473 68.8112 363.477 68.3424 362.305 68.0039C361.133 67.6523 359.811 67.4766 358.34 67.4766C356.934 67.4766 355.671 67.6523 354.551 68.0039C353.431 68.3555 352.48 68.8307 351.699 69.4297C350.918 70.0286 350.319 70.7253 349.902 71.5195C349.486 72.3138 349.277 73.1471 349.277 74.0195C349.277 74.918 349.479 75.7122 349.883 76.4023C350.299 77.0924 350.872 77.6979 351.602 78.2188C352.331 78.7526 353.203 79.2083 354.219 79.5859C355.247 79.9505 356.38 80.2565 357.617 80.5039C358.594 80.6862 359.401 80.8685 360.039 81.0508C360.677 81.2331 361.191 81.4284 361.582 81.6367C361.96 81.8581 362.22 82.0924 362.363 82.3398C362.52 82.5872 362.598 82.8737 362.598 83.1992Z" fill="white"/>
<circle cx="90" cy="137" r="25" fill="#FF0000"/>
<rect x="131" y="134" width="28" height="6" fill="white"/>
<rect x="207.671" y="160.124" width="33.001" height="6" transform="rotate(91.1797 207.671 160.124)" fill="white"/>
<path d="M411.538 166.836L411 192.953L405.001 192.829L405.539 166.713L411.538 166.836Z" fill="white"/>
<rect x="204" y="187" width="205" height="6" fill="white"/>
<rect x="233" y="134" width="28" height="6" fill="white"/>
<rect x="340" y="134" width="28" height="6" fill="white"/>
<path d="M174.008 136.518L158.251 144.732L158.265 128.277L174.008 136.518Z" fill="white"/>
<path d="M276.008 136.518L260.251 144.732L260.265 128.277L276.008 136.518Z" fill="white"/>
<path d="M383.008 136.518L367.251 144.732L367.265 128.277L383.008 136.518Z" fill="white"/>
<path d="M408.962 156.21L416.839 172.138L400.389 171.774L408.962 156.21Z" fill="white"/>
<path d="M203.5 115L229.048 152.5H177.952L203.5 115Z" fill="#F7FC11"/>
<rect x="282" y="115" width="43" height="43" fill="#00BF13"/>
<path d="M408 110L413.613 128.657H431.776L417.082 140.187L422.695 158.843L408 147.313L393.305 158.843L398.918 140.187L384.224 128.657H402.387L408 110Z" fill="#2110EA"/>
</svg>
