<svg width="50" height="50" viewBox="0 0 50 50" fill="none" xmlns="http://www.w3.org/2000/svg">
<path d="M5.87674 7.75958C4.10163 5.98447 4.10163 3.10644 5.87674 1.33133C7.65185 -0.443778 10.5299 -0.443778 12.305 1.33133L48.6686 37.695C50.4437 39.4701 50.4437 42.3481 48.6686 44.1232C46.8935 45.8983 44.0155 45.8983 42.2404 44.1232L5.87674 7.75958Z" fill="#D8D8D8"/>
<mask id="mask0_418_2942" style="mask-type:luminance" maskUnits="userSpaceOnUse" x="4" y="0" width="46" height="46">
<path d="M5.87674 7.75958C4.10163 5.98447 4.10163 3.10644 5.87674 1.33133C7.65185 -0.443778 10.5299 -0.443778 12.305 1.33133L48.6686 37.695C50.4437 39.4701 50.4437 42.3481 48.6686 44.1232C46.8935 45.8983 44.0155 45.8983 42.2404 44.1232L5.87674 7.75958Z" fill="white"/>
</mask>
<g mask="url(#mask0_418_2942)">
<path d="M77.2727 -27.2734H-31.8182V81.8175H77.2727V-27.2734Z" fill="#FFA0A0"/>
</g>
<path d="M22.7273 33.701L7.75958 48.6687C5.98447 50.4438 3.10644 50.4438 1.33133 48.6687C-0.443778 46.8936 -0.443778 44.0155 1.33133 42.2404L16.299 27.2727L1.33133 12.305C-0.443778 10.5299 -0.443778 7.6519 1.33133 5.87679C3.10644 4.10168 5.98447 4.10168 7.75958 5.87679L22.7273 20.8445L37.695 5.87679C39.4701 4.10168 42.3481 4.10168 44.1232 5.87679C45.8983 7.6519 45.8983 10.5299 44.1232 12.305L29.1555 27.2727L44.1232 42.2404C45.8983 44.0155 45.8983 46.8936 44.1232 48.6687C42.3481 50.4438 39.4701 50.4438 37.695 48.6687L22.7273 33.701Z" fill="black"/>
<mask id="mask1_418_2942" style="mask-type:luminance" maskUnits="userSpaceOnUse" x="0" y="4" width="46" height="46">
<path d="M22.7273 33.701L7.75958 48.6687C5.98447 50.4438 3.10644 50.4438 1.33133 48.6687C-0.443778 46.8936 -0.443778 44.0155 1.33133 42.2404L16.299 27.2727L1.33133 12.305C-0.443778 10.5299 -0.443778 7.6519 1.33133 5.87679C3.10644 4.10168 5.98447 4.10168 7.75958 5.87679L22.7273 20.8445L37.695 5.87679C39.4701 4.10168 42.3481 4.10168 44.1232 5.87679C45.8983 7.6519 45.8983 10.5299 44.1232 12.305L29.1555 27.2727L44.1232 42.2404C45.8983 44.0155 45.8983 46.8936 44.1232 48.6687C42.3481 50.4438 39.4701 50.4438 37.695 48.6687L22.7273 33.701Z" fill="white"/>
</mask>
<g mask="url(#mask1_418_2942)">
<path d="M-31.8182 -27.2726L-31.8182 81.8184H77.2727V-27.2726H-31.8182Z" fill="#7600FF"/>
</g>
</svg>
