<svg width="315" height="166" viewBox="0 0 315 166" fill="none" xmlns="http://www.w3.org/2000/svg">
<path d="M82.4111 49.8493L94.9566 49.8493L101.275 57.9629L107.489 65.1902L119.203 79.8493L105.43 79.8493L97.371 69.9629L93.2378 64.0993L82.4111 49.8493ZM120.203 39.213C120.214 46.8266 118.78 53.3039 115.901 58.6448C113.044 63.9857 109.141 68.0652 104.19 70.8834C99.2626 73.6788 93.7191 75.0766 87.56 75.0766C81.3554 75.0766 75.7853 73.6675 70.8495 70.8493C65.9138 68.0311 62.0104 63.9516 59.1393 58.6107C56.2682 53.2698 54.8273 46.8039 54.8167 39.213C54.8061 31.5993 56.2289 25.1221 59.085 19.7812C61.9412 14.4402 65.8333 10.3721 70.7612 7.57661C75.6891 4.75843 81.2553 3.34934 87.4598 3.34934C93.6189 3.34934 99.1663 4.75843 104.102 7.57661C109.061 10.3721 112.975 14.4402 115.846 19.7812C118.74 25.1221 120.192 31.5993 120.203 39.213ZM105.237 39.213C105.23 34.2811 104.486 30.1221 103.004 26.7357C101.545 23.3493 99.4842 20.7812 96.8226 19.0312C94.1611 17.2812 91.0462 16.4062 87.4781 16.4062C83.9099 16.4062 80.7975 17.2812 78.1408 19.0312C75.4842 20.7812 73.4196 23.3493 71.947 26.7357C70.4972 30.1221 69.7757 34.2811 69.7826 39.213C69.7895 44.1448 70.5226 48.3039 71.9819 51.6902C73.4639 55.0766 75.5356 57.6448 78.1972 59.3948C80.8587 61.1448 83.9736 62.0198 87.5417 62.0198C91.1099 62.0198 94.2223 61.1448 96.879 59.3948C99.5356 57.6448 101.589 55.0766 103.039 51.6902C104.511 48.3039 105.244 44.1448 105.237 39.213ZM164.462 51.8266L164.42 21.7584L178.943 21.7584L179.016 74.122L165.073 74.122L165.06 64.6107L164.514 64.6107C163.337 67.6789 161.374 70.1448 158.627 72.0084C155.902 73.872 152.574 74.8038 148.642 74.8038C145.142 74.8038 142.061 74.0084 139.4 72.4175C136.739 70.8266 134.656 68.5652 133.152 65.6334C131.671 62.7016 130.916 59.1902 130.887 55.0993L130.841 21.7584L145.363 21.7584L145.406 52.5084C145.433 55.5993 146.266 58.0425 147.905 59.8379C149.544 61.6334 151.738 62.5311 154.488 62.5311C156.238 62.5311 157.874 62.1334 159.396 61.3379C160.917 60.5198 162.143 59.3152 163.073 57.7243C164.025 56.1334 164.488 54.1675 164.462 51.8266ZM190.633 74.122L190.559 21.7584L205.082 21.7584L205.155 74.122L190.633 74.122ZM197.845 15.0084C195.686 15.0084 193.833 14.2925 192.286 12.8607C190.761 11.4062 189.997 9.66752 189.994 7.64479C189.991 5.64479 190.75 3.92888 192.271 2.49707C193.815 1.04252 195.666 0.315248 197.825 0.315248C199.984 0.315248 201.826 1.04252 203.351 2.49707C204.898 3.92888 205.673 5.64479 205.676 7.64479C205.679 9.66752 204.909 11.4062 203.365 12.8607C201.844 14.2925 200.005 15.0084 197.845 15.0084ZM216.516 74.122L216.504 65.4629L242.096 33.7243L242.095 33.3493L217.345 33.3493L217.329 21.7584L259.568 21.7584L259.581 31.2016L235.556 62.1561L235.557 62.5311L260.511 62.5311L260.527 74.122L216.516 74.122ZM0.249646 164.122L0.152161 94.3038L27.6976 94.3038C32.9703 94.3038 37.4717 95.247 41.2016 97.1334C44.9542 98.997 47.8101 101.645 49.7695 105.077C51.7515 108.486 52.7457 112.497 52.7522 117.111C52.7587 121.747 51.7642 125.736 49.7689 129.077C47.7735 132.395 44.8794 134.94 41.0864 136.713C37.3161 138.486 32.7492 139.372 27.3855 139.372L8.94236 139.372L8.9258 127.508L24.9826 127.508C27.8008 127.508 30.1412 127.122 32.0037 126.349C33.8663 125.577 35.251 124.417 36.158 122.872C37.0876 121.327 37.5508 119.406 37.5476 117.111C37.5444 114.792 37.0758 112.838 36.1417 111.247C35.2304 109.656 33.831 108.452 31.9435 107.633C30.0787 106.792 27.7258 106.372 24.8849 106.372L14.9304 106.372L15.011 164.122L0.249646 164.122ZM37.9098 132.349L55.3065 164.122L39.011 164.122L21.9894 132.349L37.9098 132.349ZM85.9982 165.145C80.6119 165.145 75.974 164.054 72.0846 161.872C68.2179 159.667 65.2362 156.554 63.1397 152.531C61.0432 148.486 59.991 143.702 59.9833 138.179C59.9758 132.792 61.0146 128.065 63.0999 123.997C65.1851 119.929 68.1239 116.758 71.9161 114.486C75.7311 112.213 80.2068 111.077 85.3432 111.077C88.7977 111.077 92.0144 111.633 94.9933 112.747C97.9948 113.838 100.611 115.486 102.841 117.69C105.094 119.895 106.848 122.667 108.103 126.008C109.357 129.327 109.988 133.213 109.994 137.667L110 141.656L65.7836 141.656L65.7711 132.656L96.3165 132.656C96.3136 130.565 95.8565 128.713 94.9451 127.099C94.0338 125.486 92.7706 124.224 91.1557 123.315C89.5635 122.383 87.7106 121.917 85.597 121.917C83.3924 121.917 81.4386 122.429 79.7355 123.452C78.0551 124.452 76.7388 125.804 75.7866 127.508C74.8344 129.19 74.3484 131.065 74.3285 133.133L74.3405 141.69C74.3441 144.281 74.8245 146.52 75.7817 148.406C76.7616 150.292 78.1386 151.747 79.9128 152.77C81.6869 153.792 83.7899 154.304 86.2217 154.304C87.8354 154.304 89.3123 154.077 90.6526 153.622C91.9929 153.167 93.1396 152.486 94.0929 151.577C95.0462 150.667 95.7719 149.554 96.2701 148.236L109.703 149.122C109.026 152.349 107.632 155.167 105.522 157.577C103.434 159.963 100.732 161.827 97.4159 163.167C94.1223 164.486 90.3164 165.145 85.9982 165.145ZM163.024 126.69L149.73 127.508C149.501 126.372 149.011 125.349 148.26 124.44C147.508 123.508 146.519 122.77 145.291 122.224C144.085 121.656 142.642 121.372 140.96 121.372C138.71 121.372 136.813 121.849 135.269 122.804C133.725 123.736 132.954 124.986 132.956 126.554C132.957 127.804 133.459 128.861 134.46 129.724C135.461 130.588 137.178 131.281 139.611 131.804L149.091 133.713C154.183 134.758 157.981 136.44 160.484 138.758C162.987 141.077 164.242 144.122 164.247 147.895C164.252 151.327 163.245 154.338 161.225 156.929C159.229 159.52 156.482 161.542 152.984 162.997C149.509 164.429 145.498 165.145 140.953 165.145C134.021 165.145 128.496 163.702 124.379 160.815C120.284 157.906 117.88 153.952 117.169 148.952L131.452 148.202C131.887 150.315 132.934 151.929 134.595 153.042C136.256 154.133 138.381 154.679 140.972 154.679C143.518 154.679 145.562 154.19 147.107 153.213C148.673 152.213 149.467 150.929 149.488 149.361C149.463 148.042 148.905 146.963 147.813 146.122C146.72 145.258 145.038 144.599 142.764 144.145L133.694 142.338C128.579 141.315 124.769 139.542 122.266 137.02C119.785 134.497 118.542 131.281 118.536 127.372C118.532 124.008 119.437 121.111 121.252 118.679C123.089 116.247 125.666 114.372 128.982 113.054C132.321 111.736 136.23 111.077 140.707 111.077C147.32 111.077 152.527 112.474 156.326 115.27C160.148 118.065 162.381 121.872 163.024 126.69ZM206.963 141.827L206.921 111.758L221.444 111.758L221.517 164.122L207.574 164.122L207.56 154.611L207.015 154.611C205.837 157.679 203.875 160.145 201.127 162.008C198.403 163.872 195.074 164.804 191.143 164.804C187.643 164.804 184.562 164.008 181.901 162.417C179.239 160.827 177.157 158.565 175.653 155.633C174.171 152.702 173.416 149.19 173.388 145.099L173.341 111.758L187.864 111.758L187.907 142.508C187.934 145.599 188.767 148.042 190.406 149.838C192.045 151.633 194.239 152.531 196.989 152.531C198.739 152.531 200.375 152.133 201.897 151.338C203.418 150.52 204.644 149.315 205.573 147.724C206.526 146.133 206.989 144.167 206.963 141.827ZM247.558 94.3038L247.656 164.122L233.133 164.122L233.036 94.3038L247.558 94.3038ZM287.069 111.758L287.084 122.667L255.55 122.667L255.534 111.758L287.069 111.758ZM262.676 99.2129L277.199 99.2129L277.267 148.031C277.269 149.372 277.475 150.417 277.885 151.167C278.295 151.895 278.864 152.406 279.592 152.702C280.342 152.997 281.206 153.145 282.183 153.145C282.865 153.145 283.547 153.088 284.228 152.974C284.91 152.838 285.433 152.736 285.796 152.667L288.095 163.474C287.368 163.702 286.346 163.963 285.028 164.258C283.711 164.577 282.109 164.77 280.222 164.838C276.722 164.974 273.654 164.508 271.016 163.44C268.401 162.372 266.364 160.713 264.907 158.463C263.449 156.213 262.729 153.372 262.747 149.94L262.676 99.2129ZM313.857 94.3038L312.595 143.19L300.118 143.19L298.686 94.3038L313.857 94.3038ZM306.387 165.008C304.137 165.008 302.204 164.213 300.588 162.622C298.973 161.008 298.174 159.077 298.194 156.827C298.168 154.599 298.961 152.69 300.572 151.099C302.184 149.508 304.114 148.713 306.364 148.713C308.524 148.713 310.422 149.508 312.061 151.099C313.7 152.69 314.532 154.599 314.558 156.827C314.537 158.327 314.141 159.702 313.37 160.952C312.622 162.179 311.635 163.167 310.408 163.917C309.182 164.645 307.842 165.008 306.387 165.008Z" fill="#5B1A83"/>
</svg>
