<svg width="275" height="105" viewBox="0 0 275 105" fill="none" xmlns="http://www.w3.org/2000/svg">
<mask id="path-1-inside-1_569_170" fill="white">
<path d="M0 52.4011C0 23.4591 23.4621 0.0134499 52.404 0.0336552L222.596 0.152472C251.538 0.172677 275 23.6511 275 52.5931V52.5931C275 81.535 251.538 104.981 222.596 104.96L52.404 104.842C23.4621 104.821 0 81.343 0 52.4011V52.4011Z"/>
</mask>
<path d="M0 52.4011C0 23.4591 23.4621 0.0134499 52.404 0.0336552L222.596 0.152472C251.538 0.172677 275 23.6511 275 52.5931V52.5931C275 81.535 251.538 104.981 222.596 104.96L52.404 104.842C23.4621 104.821 0 81.343 0 52.4011V52.4011Z" fill="url(#paint0_linear_569_170)"/>
<path d="M0 -0.00292969L275 0.189057L0 -0.00292969ZM275 52.5931C275 85.401 248.404 111.979 215.596 111.956L59.404 111.847C26.5961 111.824 0 85.209 0 52.4011C0 77.477 23.4621 97.8215 52.404 97.8417L222.596 97.9605C251.538 97.9807 275 77.669 275 52.5931ZM0 104.805V-0.00292969V104.805ZM275 0.189057V104.997V0.189057Z" fill="url(#paint1_linear_569_170)" mask="url(#path-1-inside-1_569_170)"/>
<path d="M68.1581 66.4469L68.1338 31.5378L81.2247 31.5469C83.9065 31.5488 86.1568 32.0163 87.9757 32.9494C89.8058 33.8825 91.1874 35.1902 92.1204 36.8727C93.0648 38.5438 93.5377 40.493 93.5393 42.7203C93.5409 44.9589 93.0649 46.9018 92.1115 48.5488C91.1695 50.1845 89.7783 51.4506 87.9381 52.3471C86.0978 53.2321 83.8367 53.6737 81.1549 53.6719L71.831 53.6654L71.8274 48.4154L80.299 48.4213C81.8671 48.4224 83.1511 48.2074 84.1508 47.7762C85.1505 47.3338 85.8887 46.6922 86.3653 45.8516C86.8534 44.9997 87.097 43.9544 87.0961 42.7158C87.0952 41.4772 86.8502 40.4202 86.3609 39.5448C85.8717 38.6581 85.1269 37.9871 84.1266 37.5319C83.1263 37.0653 81.8363 36.8314 80.2568 36.8303L74.4613 36.8263L74.482 66.4513L68.1581 66.4469ZM86.1812 50.6413L94.8343 66.4655L87.7775 66.4606L79.2778 50.6365L86.1812 50.6413ZM110.32 66.9877C107.695 66.9859 105.428 66.4388 103.518 65.3466C101.62 64.243 100.158 62.6851 99.1342 60.6731C98.1101 58.6496 97.597 56.2686 97.5951 53.5299C97.5932 50.8368 98.103 48.4735 99.1243 46.4401C100.157 44.3954 101.599 42.8055 103.45 41.6704C105.302 40.524 107.478 39.9516 109.978 39.9534C111.591 39.9545 113.114 40.2169 114.546 40.7406C115.99 41.253 117.263 42.0494 118.366 43.1297C119.481 44.21 120.357 45.5856 120.994 47.2565C121.632 48.916 121.951 50.8935 121.953 53.189L121.954 55.081L100.494 55.0661L100.491 50.907L116.036 50.9178C116.024 49.736 115.768 48.6847 115.267 47.7639C114.767 46.8317 114.067 46.0983 113.169 45.5635C112.282 45.0288 111.248 44.7611 110.066 44.7602C108.805 44.7594 107.697 45.0654 106.743 45.6784C105.789 46.28 105.045 47.0749 104.512 48.0632C103.99 49.0401 103.723 50.1138 103.713 51.2842L103.715 54.9149C103.716 56.4376 103.996 57.7446 104.553 58.8359C105.111 59.9159 105.89 60.746 106.89 61.3262C107.891 61.8951 109.061 62.18 110.402 62.1809C111.3 62.1815 112.112 62.0571 112.84 61.8076C113.567 61.5468 114.197 61.1665 114.731 60.6669C115.265 60.1673 115.667 59.5482 115.94 58.8098L121.702 59.4615C121.339 60.984 120.647 62.3131 119.625 63.4487C118.614 64.573 117.319 65.4471 115.74 66.071C114.161 66.6835 112.355 66.9891 110.32 66.9877ZM147.862 47.2412L142.237 47.8509C142.078 47.2826 141.799 46.7483 141.401 46.248C141.014 45.7478 140.491 45.344 139.832 45.0367C139.173 44.7294 138.366 44.5754 137.411 44.5748C136.127 44.5739 135.048 44.8515 134.173 45.4077C133.31 45.964 132.884 46.6853 132.896 47.5716C132.886 48.333 133.164 48.9525 133.733 49.4302C134.313 49.9078 135.268 50.3006 136.597 50.6083L141.064 51.566C143.542 52.1018 145.383 52.9497 146.588 54.1096C147.805 55.2695 148.42 56.787 148.432 58.662C148.422 60.3097 147.94 61.7639 146.987 63.0246C146.044 64.274 144.733 65.2503 143.051 65.9537C141.37 66.6571 139.438 67.008 137.256 67.0065C134.052 67.0043 131.472 66.332 129.516 64.9897C127.561 63.6361 126.395 61.7546 126.018 59.3452L132.035 58.7699C132.308 59.9519 132.889 60.8443 133.775 61.4472C134.662 62.0501 135.816 62.3521 137.236 62.3531C138.702 62.3541 139.878 62.0538 140.764 61.4521C141.661 60.8505 142.11 60.1065 142.109 59.2201C142.108 58.4701 141.818 57.8506 141.238 57.3615C140.67 56.8725 139.783 56.4969 138.579 56.2347L134.112 55.2941C131.6 54.7696 129.742 53.8876 128.536 52.6481C127.331 51.3973 126.733 49.8173 126.743 47.9082C126.731 46.2946 127.167 44.8972 128.053 43.716C128.95 42.5234 130.193 41.6038 131.784 40.9572C133.386 40.2992 135.232 39.971 137.323 39.9725C140.391 39.9746 142.806 40.6297 144.569 41.9377C146.342 43.2458 147.44 45.0136 147.862 47.2412ZM170.206 55.5068L170.195 40.3363L176.366 40.3406L176.384 66.5224L170.401 66.5183L170.398 61.8649L170.125 61.8647C169.535 63.3302 168.564 64.5283 167.213 65.4592C165.873 66.3901 164.219 66.8549 162.254 66.8535C160.538 66.8523 159.02 66.4705 157.702 65.7083C156.394 64.9346 155.371 63.8146 154.631 62.3482C153.891 60.8704 153.521 59.086 153.519 56.9951L153.508 40.3247L159.678 40.329L159.689 56.0449C159.69 57.704 160.146 59.0225 161.056 60.0004C161.965 60.9783 163.159 61.4678 164.636 61.4688C165.545 61.4694 166.426 61.2484 167.278 60.8059C168.13 60.3633 168.828 59.7047 169.373 58.83C169.929 57.9441 170.207 56.8363 170.206 55.5068ZM188.875 31.6221L188.9 66.5312L182.729 66.5269L182.705 31.6178L188.875 31.6221ZM208.3 40.3629L208.304 45.1356L193.253 45.1251L193.249 40.3524L208.3 40.3629ZM196.961 34.0823L203.131 34.0866L203.148 58.6661C203.149 59.4957 203.274 60.1321 203.525 60.5755C203.786 61.0075 204.127 61.3032 204.548 61.4626C204.969 61.6219 205.435 61.7018 205.946 61.7022C206.332 61.7024 206.685 61.6743 207.003 61.6177C207.332 61.5611 207.582 61.5101 207.753 61.4648L208.796 66.2894C208.466 66.4028 207.995 66.5275 207.381 66.6634C206.779 66.7993 206.04 66.8784 205.165 66.9005C203.62 66.9449 202.228 66.7109 200.989 66.1987C199.75 65.6751 198.766 64.8676 198.038 63.7762C197.322 62.6848 196.968 61.3209 196.979 59.6845L196.961 34.0823Z" fill="white"/>
<defs>
<linearGradient id="paint0_linear_569_170" x1="0" y1="52.4011" x2="275" y2="52.4011" gradientUnits="userSpaceOnUse">
<stop stop-color="#5B1A83" stop-opacity="0.64"/>
<stop offset="1" stop-color="#5B1A83"/>
</linearGradient>
<linearGradient id="paint1_linear_569_170" x1="137.5" y1="0.0930635" x2="137.427" y2="104.901" gradientUnits="userSpaceOnUse">
<stop stop-color="#5B1A83"/>
<stop offset="1" stop-color="#8E52B3" stop-opacity="0"/>
</linearGradient>
</defs>
</svg>
