<svg width="275" height="105" viewBox="0 0 275 105" fill="none" xmlns="http://www.w3.org/2000/svg">
<mask id="path-1-inside-1_418_2884" fill="white">
<path d="M0 52.404C0 23.4621 23.4621 0.0163796 52.404 0.0365849L222.596 0.155401C251.538 0.175607 275 23.6541 275 52.596C275 81.5379 251.538 104.984 222.596 104.963L52.404 104.845C23.4621 104.824 0 81.3459 0 52.404Z"/>
</mask>
<path d="M0 52.404C0 23.4621 23.4621 0.0163796 52.404 0.0365849L222.596 0.155401C251.538 0.175607 275 23.6541 275 52.596C275 81.5379 251.538 104.984 222.596 104.963L52.404 104.845C23.4621 104.824 0 81.3459 0 52.404Z" fill="url(#paint0_linear_418_2884)"/>
<path d="M0 0L275 0.191986L0 0ZM275 52.596C275 85.4039 248.404 111.981 215.596 111.959L59.404 111.849C26.5961 111.827 0 85.2119 0 52.404C0 77.4799 23.4621 97.8244 52.404 97.8446L222.596 97.9634C251.538 97.9836 275 77.6719 275 52.596ZM0 104.808V0V104.808ZM275 0.191986V105V0.191986Z" fill="url(#paint1_linear_418_2884)" mask="url(#path-1-inside-1_418_2884)"/>
<path d="M33.4473 66.4254L33.4229 31.5163L46.5138 31.5254C49.1956 31.5273 51.4459 31.9948 53.2648 32.9279C55.095 33.861 56.4766 35.1688 57.4096 36.8512C58.3539 38.5223 58.8269 40.4715 58.8284 42.6988C58.83 44.9375 58.3541 46.8803 57.4007 48.5274C56.4586 50.1631 55.0675 51.4291 53.2272 52.3256C51.3869 53.2107 49.1258 53.6523 46.444 53.6504L37.1202 53.6439L37.1165 48.3939L45.5881 48.3998C47.1563 48.4009 48.4402 48.1859 49.4399 47.7548C50.4396 47.3123 51.1778 46.6707 51.6545 45.8302C52.1425 44.9782 52.3861 43.933 52.3852 42.6943C52.3844 41.4557 52.1393 40.3987 51.6501 39.5233C51.1608 38.6366 50.416 37.9657 49.4157 37.5104C48.4154 37.0438 47.1255 36.81 45.5459 36.8089L39.7505 36.8048L39.7711 66.4298L33.4473 66.4254ZM51.4703 50.6198L60.1234 66.444L53.0666 66.4391L44.5669 50.615L51.4703 50.6198ZM75.6096 66.9662C72.9846 66.9644 70.7171 66.4173 68.8073 65.3251C66.9088 64.2215 65.4475 62.6637 64.4233 60.6516C63.3992 58.6281 62.8862 56.2471 62.8843 53.5085C62.8824 50.8153 63.3921 48.452 64.4134 46.4186C65.4461 44.3739 66.8881 42.784 68.7396 41.6489C70.5911 40.5025 72.7668 39.9301 75.2668 39.9319C76.8805 39.933 78.4034 40.1954 79.8355 40.7192C81.2791 41.2315 82.5524 42.0279 83.6554 43.1082C84.7698 44.1885 85.6457 45.5641 86.2833 47.235C86.9208 48.8946 87.2404 50.8721 87.242 53.1675L87.2433 55.0596L65.7831 55.0446L65.7801 50.8855L81.3256 50.8963C81.3134 49.7145 81.057 48.6632 80.5564 47.7424C80.0557 46.8102 79.3563 46.0768 78.4582 45.5421C77.5715 45.0074 76.5372 44.7396 75.3554 44.7388C74.094 44.7379 72.9863 45.0439 72.0322 45.6569C71.0781 46.2585 70.3343 47.0534 69.8009 48.0417C69.2788 49.0186 69.0125 50.0923 69.002 51.2627L69.0045 54.8934C69.0056 56.4161 69.2849 57.7232 69.8425 58.8145C70.4001 59.8944 71.1791 60.7245 72.1795 61.3047C73.1799 61.8736 74.3505 62.1585 75.6914 62.1594C76.5891 62.1601 77.4016 62.0356 78.1287 61.7861C78.8558 61.5253 79.4862 61.1451 80.0199 60.6454C80.5536 60.1458 80.9566 59.5268 81.2288 58.7883L86.9907 59.4401C86.6281 60.9625 85.9358 62.2916 84.9139 63.4272C83.9033 64.5515 82.6085 65.4256 81.0294 66.0495C79.4502 66.6621 77.6436 66.9676 75.6096 66.9662ZM105.527 40.2939L105.53 45.0666L90.4792 45.0561L90.4759 40.2834L105.527 40.2939ZM94.1874 34.0133L100.358 34.0176L100.375 58.5971C100.376 59.4267 100.501 60.0631 100.751 60.5065C101.013 60.9385 101.354 61.2342 101.775 61.3936C102.195 61.5529 102.661 61.6328 103.173 61.6332C103.559 61.6334 103.911 61.6053 104.229 61.5487C104.559 61.4921 104.809 61.4411 104.979 61.3958L106.022 66.2204C105.693 66.3338 105.221 66.4585 104.608 66.5944C104.006 66.7303 103.267 66.8094 102.392 66.8315C100.847 66.8759 99.4545 66.6419 98.2155 66.1297C96.9765 65.6061 95.993 64.7986 95.2649 63.7072C94.5483 62.6158 94.195 61.2519 94.2053 59.6156L94.1874 34.0133ZM110.706 66.4793L110.687 40.2975L116.67 40.3017L116.673 44.6653L116.946 44.6655C117.422 43.1545 118.24 41.9903 119.398 41.1729C120.568 40.3442 121.903 39.9303 123.403 39.9314C123.744 39.9316 124.125 39.9489 124.545 39.9833C124.977 40.0064 125.335 40.0464 125.619 40.1034L125.623 45.7795C125.362 45.6884 124.947 45.6086 124.379 45.54C123.822 45.4601 123.282 45.4199 122.759 45.4196C121.634 45.4188 120.623 45.6624 119.726 46.1504C118.84 46.6271 118.141 47.2914 117.63 48.1433C117.12 48.9952 116.865 49.978 116.865 51.0916L116.876 66.4837L110.706 66.4793ZM134.376 76.314C133.535 76.3135 132.757 76.2447 132.041 76.1079C131.336 75.9824 130.773 75.8343 130.353 75.6635L131.781 70.8577C132.679 71.1197 133.48 71.2452 134.185 71.2344C134.889 71.2235 135.509 71.0023 136.042 70.5709C136.588 70.1508 137.047 69.4466 137.422 68.4582L137.949 67.0438L128.436 40.3099L134.982 40.3145L141.029 60.0914L141.302 60.0916L147.339 40.3231L153.902 40.3277L143.44 69.6727C142.952 71.0587 142.305 72.2457 141.499 73.2338C140.693 74.2332 139.705 74.9939 138.535 75.5158C137.376 76.0491 135.99 76.3152 134.376 76.314Z" fill="white"/>
<g clip-path="url(#clip0_418_2884)">
<path d="M246.63 55.6316C246.63 63.8493 239.944 70.5346 231.727 70.5346L224.511 70.5346C223.955 70.5346 223.468 70.2345 223.206 69.7874C223.071 69.5631 222.995 69.2994 222.995 69.019C222.995 68.1824 223.674 67.5034 224.511 67.5034L231.727 67.5034C238.273 67.5034 243.599 62.1776 243.599 55.6316C243.599 49.0856 238.273 43.7613 231.727 43.7613C231.645 43.7613 190.86 43.7613 190.86 43.7613L193.098 46.2697L197.216 50.8848L199.453 53.3916C200.009 54.0175 199.955 54.9754 199.331 55.5316C199.041 55.7893 198.682 55.9166 198.323 55.9166C197.906 55.9166 197.491 55.7454 197.19 55.4104L193.153 50.8848L187.513 44.5631C187.007 43.9963 186.719 43.3051 186.648 42.599C186.631 42.4429 186.627 42.2852 186.631 42.1276C186.659 41.338 186.953 40.5559 187.513 39.927L193.286 33.4553L197.191 29.0796C197.748 28.4552 198.706 28.4006 199.331 28.9583C199.955 29.516 200.01 30.4739 199.454 31.0984L197.351 33.4552L190.86 40.73C190.86 40.73 231.645 40.73 231.727 40.73C239.944 40.7302 246.63 47.414 246.63 55.6316Z" fill="white"/>
<path d="M243.599 55.631C243.599 62.1769 238.273 67.5028 231.727 67.5028L224.511 67.5028C223.7 67.5028 223.038 68.1394 222.997 68.9412C223.017 67.5483 223.588 66.2904 224.505 65.3749C225.437 64.4428 226.725 63.8654 228.148 63.8654L231.727 63.8654C233.936 63.8654 236.013 62.997 237.574 61.4208C239.135 59.8445 239.982 57.7605 239.961 55.5493C239.917 51.0555 236.157 47.3984 231.577 47.3984L194.106 47.3984L193.098 46.2693L190.86 43.7607C190.86 43.7607 231.645 43.7607 231.727 43.7607C238.273 43.7607 243.599 49.085 243.599 55.631Z" fill="#FF79C6"/>
</g>
<defs>
<linearGradient id="paint0_linear_418_2884" x1="0" y1="52.404" x2="275" y2="52.404" gradientUnits="userSpaceOnUse">
<stop stop-color="#5B1A83" stop-opacity="0.64"/>
<stop offset="1" stop-color="#5B1A83"/>
</linearGradient>
<linearGradient id="paint1_linear_418_2884" x1="137.5" y1="0.0959932" x2="137.427" y2="104.904" gradientUnits="userSpaceOnUse">
<stop stop-color="#5B1A83"/>
<stop offset="1" stop-color="#8E52B3" stop-opacity="0"/>
</linearGradient>
<clipPath id="clip0_418_2884">
<rect width="60" height="60" fill="white" transform="translate(186.63 19.5537)"/>
</clipPath>
</defs>
</svg>
